<?xml version="1.0" standalone="no"?>
<!DOCTYPE svg PUBLIC "-//W3C//DTD SVG 1.1//EN" "http://www.w3.org/Graphics/SVG/1.1/DTD/svg11.dtd">
<svg xmlns="http://www.w3.org/2000/svg">
<metadata>Generated by Fontastic.me</metadata>
<defs>
<font id="monet-icons" horiz-adv-x="512">
<font-face font-family="monet-icons" units-per-em="512" ascent="480" descent="-32"/>
<missing-glyph horiz-adv-x="512" />

<glyph glyph-name="about-icon" unicode="&#97;" d="M263 512c-146 0-263-117-263-263 0-147 117-264 263-264 147 0 264 117 264 264 0 146-117 263-264 263z m26-395l-51 0 0 157 51 0z m0 212l-51 0 0 51 51 0z"/>
<glyph glyph-name="ecosystem-icon" unicode="&#99;" d="M447 225c0 7 4 17 4 28 0 10 0 17-4 27l55 41c3 3 7 10 3 17l-51 92c-3 7-10 7-17 7l-65-27c-14 10-31 20-44 27l-7 68c-4 4-7 7-14 7l-106 0c-6 0-10-3-10-10l-10-72c-17-7-34-14-48-24l-65 27c-7 0-10-3-13-6l-52-92c-3-7-3-14 4-18l54-41c0-6-3-17-3-27 0-10 0-17 3-27l-54-41c-7-4-7-10-7-14l51-92c4-7 10-7 17-7l65 28c14-11 27-17 41-28l10-68c4-7 11-10 17-10l106 0c7 0 14 3 14 10l10 68c17 7 31 17 44 28l65-28c7-3 14 0 17 7l52 92c3 4 3 10-4 14-3 0-58 44-58 44z m-191-71c-55 0-96 44-99 99 0 54 44 95 99 99 55 0 96-45 99-99-3-55-48-99-99-99z"/>
<glyph glyph-name="facebook" unicode="&#100;" d="M284 4l0 232 74 0 12 91-86 0 0 55c0 28 7 43 43 43l47 0 0 83c-8 0-35 4-67 4-59 4-110-43-114-102 0-8 0-12 0-20l0-67-75 0 0-91 75 0 0-232z"/>
<glyph glyph-name="faq-icon" unicode="&#101;" d="M307 150l-99 0c-7 62 30 124 88 150 11 4 22 11 29 22 11 14 15 33 4 47-11 33-40 52-73 48-44 0-80-33-80-77l-103 15c15 91 92 157 183 157 73 4 139-40 168-106 26-51 15-113-25-154-15-14-33-29-52-36-29-11-43-40-40-66z m15-99c0-36-29-66-66-66-37 0-66 30-66 66 0 37 29 66 66 66 37 0 66-29 66-66z"/>
<glyph glyph-name="github" unicode="&#102;" d="M252 512c-139 0-252-113-252-256 0-110 69-205 172-241 11 0 18 7 18 11l0 47c-69-14-84 33-84 33-4 15-15 29-29 37-22 14 0 14 0 14 18 0 33-11 40-22 15-25 48-36 73-22 0 15 7 26 15 33-55 8-114 30-114 125 0 25 8 51 26 69-7 22-7 44 4 66 0 0 22 7 69-26 22 8 44 8 62 8 22 0 44-4 63-8 47 33 69 26 69 26 7-22 11-44 4-66 18-18 25-44 25-69 0-99-58-117-117-125 11-11 19-29 19-47l0-70c0-7 3-14 18-11 131 44 205 190 161 322-33 103-132 172-242 172z"/>
<glyph glyph-name="icon-telegram" unicode="&#106;" d="M488 488l-468-185c0 0-24-8-20-19 0-12 20-20 20-20l118-40 279 178c0 0 16 12 16 0 0 0 4 0-4-12-8-12-220-197-220-197l0-4-16-130c4 0 8 0 12 0l75 67 118-91c16-7 35-3 43 12 0 0 0 4 0 4l83 418c0 35-36 19-36 19z"/>
<glyph glyph-name="medium" unicode="&#107;" d="M63 386c0 8 0 12-8 16l-47 63 0 8 153 0 119-260 102 260 146 0 0-8-44-40c-4-4-4-8-4-11l0-296c0-4 0-8 4-12l40-39 0-8-205 0 0 8 43 39c4 4 4 4 4 12l0 236-118-299-16 0-137 299 0-200c0-8 0-16 7-24l56-67 0-8-158 0 0 8 55 67c8 8 8 16 8 24z"/>
<glyph glyph-name="reddit" unicode="&#109;" d="M442 358c0 10-4 23-13 29-16 16-42 16-58 0-32 23-70 32-112 32l23 74 64-16c0-19 16-32 35-32 19 0 32 16 32 35 0 19-16 32-35 32-13 0-26-10-32-22l-64 16c-4 0-7 0-7-4l-29-83c-44 0-83-13-115-32-6 7-16 13-25 13-23 0-42-19-42-42 0-16 10-28 22-35 0-3-3-9-3-13 0-41 32-76 87-96l0-3c-26-16-45-41-42-73-3-36 19-64 51-74 3-10 7-16 10-26-3 0-7 0-7 0-22 4-44-16-44-38 0-3 0-6 3-10 0-3 3-3 6-3l218 0c3 0 3 3 3 3 0 4 3 7 3 10-3 22-22 42-45 38-3 0-6 0-6 0 0 10 3 16 6 26 32 10 55 38 52 74 3 32-16 57-42 70l0 3c22 7 42 19 58 35 16 16 25 39 25 61 0 3 0 7 0 13 13 6 23 22 23 38z m-128-102c-16-16-39-22-61-19-23-3-45 3-61 19 0 0 0 3-3 3 0 3 3 7 6 7 0 0 3 0 3-4 16-9 32-16 52-16 19-3 38 4 51 16 3 4 6 4 9 0 4 0 4-6 4-6z m-119 96c0 3 0 3 0 0 13 0 26-10 26-26 0-12-10-25-26-25-13 0-25 9-25 25 0 16 12 26 25 26z m115-48c-12 0-25 10-25 26 0 12 13 22 25 22 13 0 26-10 23-26 3-9-10-22-23-22z"/>
<glyph glyph-name="team-icon" unicode="&#112;" d="M346 278c38 0 67 29 70 68 0 0 0 3 0 3-3 35-32 67-70 67-39 0-68-32-68-67-3-39 29-71 68-71z m-186 0c38 0 67 29 70 68 0 0 0 3 0 3 0 35-32 67-70 67-38 0-67-32-67-67 0-39 29-71 67-71z m0-48c-54 0-160-28-160-80l0-57 323 0 0 57c0 55-109 80-163 80z m186 0c-7 0-16 0-23-3 29-16 45-45 45-77l0-57 138 0 0 57c3 55-106 80-160 80z"/>
<glyph glyph-name="twitter" unicode="&#114;" d="M509 413c-21-7-41-14-62-17 21 14 38 34 45 58-21-14-45-21-65-27-41 41-106 44-147 3-21-20-34-48-34-75 0-7 0-17 3-24-82 7-160 44-215 109-7-13-14-34-14-51 0-34 18-68 48-89-17 0-34 4-48 14 0-51 35-92 86-102-10-4-21-4-31-4-7 0-14 0-20 4 13-41 51-72 99-72-38-31-82-44-130-44-10 0-17 0-24 0 48-31 102-48 160-48 164 0 297 129 297 293 0 0 0 4 0 4l0 13c21 14 38 31 52 55z"/>
<glyph glyph-name="youtube" unicode="&#116;" d="M483 380c-4 22-22 41-44 48-62 7-128 11-190 11-66 0-128-4-190-11-26-7-44-26-48-48-7-44-11-87-11-128 0-44 4-87 11-128 4-25 22-44 48-51 62-7 128-11 190-11 62 0 128 4 190 11 22 7 40 26 47 48 8 44 11 84 11 128-3 44-7 87-14 131z m-282-212l0 165 124-84z"/>
<glyph glyph-name="contacts" unicode="&#117;" d="M502 321c0 17-7 34-24 41l-225 133-229-133c-14-10-24-24-24-41l0-253c0-27 24-51 51-51l403 0c27 0 51 24 51 51l0 253z m-253-126l-205 129 205 120 212-120z"/>
<glyph glyph-name="monet" unicode="&#120;" d="M504 264c-2 7-7 12-51 41l-49 33 0 46c0 41 0 44-5 51-12 13-12 13-146 13-107 0-128 0-138-8-2-2-5-2-7-5-6-7-6-10-6-51l0-44-18-10-17-13-29-20c-30-21-35-26-38-33-3-8 0-18 5-26 3-2 21-15 44-31 35-23 38-25 38-33 0-8 8-15 15-15 3 0 8 0 11 2 10 8 15 21 18 31 0 8-6 15-13 15-3 0-5 0-8-2-10 0-13 0-49 23-20 15-35 28-35 28 10 10 23 18 33 26l20 12 13 8 3 3 7 5 0-34c0-56 3-56 64-56l44 0 28-28 28-28 0-74-7-8c-6-5-8-10-8-15 0-11 8-16 28-16 26 0 33 13 18 28-8 8-8 11-8 34l0 25 11-10c5-5 10-13 10-20 0-6 2-13 5-16 2-5 8-5 13-2 12 5 25 18 28 33 0 8-10 13-21 13-7 0-12 2-28 18l-18 18 0 46 49 0c66 0 66 2 66 56l0 36 39-26c13-8 25-18 38-28-13-10-23-18-36-26-35-23-35-25-46-20-7 2-15 0-20-5-3-3-3-5-3-8 3-13 8-23 18-31 8-5 18-5 23 3 3 3 3 8 3 10 0 8 2 10 38 33 16 6 28 16 41 29 5 5 8 15 5 23z"/>
<glyph glyph-name="icon-privacy-polity" unicode="&#65;" d="M315 512l-205 0c-27 0-51-24-51-51l0-410c0-27 24-51 51-51l307 0c28 0 52 24 52 51l0 307z m99-457l-300 0 0 402 114 0 0-181 182 0z m-123 276l0 142 142-142z"/>
<glyph glyph-name="logo-linkedin" unicode="&#66;" d="M7 341l106 0 0-348-106 0z m54 171c35 0 62-27 62-61 0-35-27-62-62-62-34-3-61 27-61 62 0 34 27 61 61 61m123-171l103 0 0-47 3 0c21 37 62 58 103 58 109 0 129-72 129-164l0-191-106 0 0 170c0 41 0 92-58 92-58 0-64-44-64-88l0-171-110 0z"/>
<glyph glyph-name="3-dorts" unicode="&#67;" d="M114 256c0-31-26-57-57-57-32 0-57 26-57 57 0 31 25 57 57 57 31 0 57-26 57-57z m199 0c0-31-26-57-57-57-31 0-57 26-57 57 0 31 26 57 57 57 31 0 57-26 57-57z m199 0c0-31-25-57-57-57-31 0-57 26-57 57 0 31 26 57 57 57 32 0 57-26 57-57z"/>
<glyph glyph-name="native" unicode="&#98;" d="M187 166c4-2 8-1 11 2 3 3 4 7 3 11-20 59-89 82-154 29-14-13-30-24-47-34 22-22 48-97 104-106 62-11 116 50 72 78-31 18-66 28-101 28 37 9 76 6 112-8z m279 42c-112 91-183-52-139-38 32 10 67 12 100 4-57 0-111-26-148-70 2 48 6 96 13 143 30 1 69 25 91 68 38 67 20 136 15 180-30-29-158 4-209-83-21-38-18-85 8-120 3-5 9-7 15-5 6 2 10 7 11 13 0 55 33 104 84 125-24-30-40-65-48-102-13-56-26-92-31-270 0-9 3-17 9-23 6-6 15-10 23-10 13 1 25 9 30 21 9 21 22 40 40 54 20-22 50-32 79-27 55 9 81 84 104 106-17 10-33 21-47 34z"/>
<glyph glyph-name="leaderless" unicode="&#103;" d="M309 414c0-30-24-53-53-53-29 0-53 23-53 53 0 29 24 52 53 52 29 0 53-23 53-52z m26-197l-12 93c-1 14-12 24-26 24l-15 0c-3 0-6-1-9-4l-17-17-17 17c-3 3-6 4-9 4l-15 0c-13 0-25-10-26-23l-12-94c-1-4 0-8 3-11 2-3 6-4 10-4l14 0 11-135c2-14 13-24 27-24l29 0c13 0 25 10 26 24l11 135 14 0c4 0 8 1 10 4 3 3 4 7 3 11z m151 197c0-30-24-53-53-53-30 0-53 23-53 53 0 29 23 52 53 52 29 0 53-23 53-52z m26-197l-12 93c-1 14-13 24-27 24l-14 0c-4 0-7-1-9-4l-17-17-18 17c-2 3-5 4-9 4l-14 0c-14 0-25-10-27-23l-12-94c0-4 1-8 3-11 3-3 7-4 10-4l15 0 11-135c1-14 12-24 26-24l29 0c14 0 25 10 26 24l12 135 14 0c4 0 7 1 10 4 2 3 3 7 3 11z m-380 197c0-30-23-53-53-53-29 0-53 23-53 53 0 29 24 52 53 52 30 0 53-23 53-52z m27-197l-12 93c-2 14-13 24-27 24l-14 0c-4 0-7-1-9-4l-18-17-17 17c-2 3-5 4-9 4l-14 0c-14 0-25-10-27-23l-12-94c0-4 1-8 3-11 3-3 6-4 10-4l15 0 11-135c1-14 12-24 26-24l29 0c14 0 25 10 26 24l11 135 15 0c3 0 7 1 10 4 2 3 3 7 3 11z"/>
<glyph glyph-name="hybrid" unicode="&#104;" d="M502 396c-8 8-20 8-28 0-5-5-11-8-17-10l-76 75c2 7 6 13 11 18 7 7 7 20 0 27-8 8-20 8-28 0-20-20-26-45-27-92 0-5 2-10 5-14 4-3 9-6 14-6l2 0c10 0 18 8 18 18l31-32c-9 0-19 0-31 0l-39 1c-49 0-120 5-166-40-30-30-38-75-40-121 0-5 1-11 5-14 4-4 9-6 14-6l0 0c11 0 19 8 20 18 0 9 1 18 1 26l69-68c-23-2-47-2-70-1l-39 0c-77 1-100-2-125-27-8-8-8-20 0-28 7-7 20-7 27 0 5 5 11 9 18 11l75-75c-2-7-5-13-10-18-5-5-7-13-6-19 2-7 8-13 14-14 7-2 14 0 19 5 21 21 27 54 28 92 0 5-2 10-5 14-4 4-9 6-14 6l-2 0c-10 0-18-8-18-17l-31 31c9 0 19 0 31 0l39 0c48-1 120-6 165 40 32 31 40 86 41 131 0 11-9 20-19 20-11 0-20-8-20-19 0-8-1-26-2-35l-68 68c23 1 46 2 69 1l39-1c68 0 101 3 126 28 7 7 7 19 0 27z m-177-168c-7-18-22-33-41-41l-101 102c3 9 9 17 16 24 7 7 16 13 25 17z"/>
<glyph glyph-name="easy-to-use" unicode="&#105;" d="M79 458c-7 7-18 7-25 0-7-7-7-18 0-25l40-40c7-7 18-7 25 0 7 7 7 18 0 25z m14-124c0 10-9 18-18 18l-57 0c-10 0-18-8-18-18 0-10 8-18 18-18l57 0c9 0 18 8 18 18z m-8-55l-40-40c-7-7-6-19 1-26 6-7 18-7 25 0l40 40c7 7 7 19 0 26-7 7-19 7-26 0z m93 140c10 0 18 9 18 18l0 57c0 10-8 18-18 18-10 0-18-8-18-18l0-57c0-9 8-18 18-18z m68-23c5 0 10 2 13 5l40 40c7 7 7 19 0 26-7 7-19 7-26 0l-40-40c-5-5-6-13-3-20 2-7 9-11 16-11z m-79-54l153-340 44 102 99-96 23 25 24 24-98 95 100 48z"/>
<glyph glyph-name="fast" unicode="&#108;" d="M147 312c0 2-1 3-2 5l-49 56c-1 1-3 2-4 2-2 0-4-1-5-2-22-20-41-43-56-69-1-2-1-4 0-5 0-2 1-3 3-4l65-36c1 0 2 0 3 0 2 0 4 1 6 3 9 17 22 33 36 46 2 1 2 3 3 4z m22 21c0-2 2-3 3-3 2-1 3 0 5 0 17 10 36 16 56 18 3 1 6 4 5 7l-10 74c0 4-3 6-7 6-29-4-58-14-85-28-3-1-4-5-2-8z m-80-100l-72 19c-2 1-4 1-5 0-2-1-3-2-3-4-6-22-9-44-9-67 0-4 0-8 0-12 0-3 3-6 6-6l1 0 74 3c2 0 3 1 5 2 1 2 1 3 1 5 0 3 0 5 0 8 0 15 2 30 6 44 1 4-1 7-4 8z m278 179c-27 13-56 21-86 24-2 0-3-1-5-2-1-1-2-2-2-4l-7-74c0-4 2-7 6-7 19-2 39-7 56-16 1 0 2 0 3 0 1 0 1 0 2 0 2 1 3 2 4 3l32 67c1 2 1 4 0 5 0 2-1 3-3 4z m110-105c0 2 0 4-1 5-16 26-35 49-59 68-2 2-6 1-8-1l-47-58c-2-3-2-7 1-9 15-12 28-27 38-44 1-2 2-3 4-3 2-1 3-1 5 0l64 39c1 0 2 2 3 3z m23-49c0 1-1 2-3 3-1 1-3 1-4 1l-72-23c-3-1-5-4-4-7 5-17 8-34 8-51 0-3 0-5 0-8 0-2 0-3 1-5 2-1 3-1 5-2l74-3 1 0c3 0 6 3 6 6 0 4 0 8 0 12 0 26-4 52-12 77z m-184-120c0 1 0 2 0 3l60 101c1 3 1 6-1 8-2 2-5 3-8 1l-103-55c-2 0-4 1-6 1-32 0-58-27-58-59 0-32 26-58 58-58 32 0 58 26 58 58z"/>
<glyph glyph-name="byzantine-fault-tolerant" unicode="&#111;" d="M104 357l0-54-4 0c-22 0-40-18-40-41l0-226c0-22 18-40 40-40l315 0c23 0 41 18 41 40l0 226c0 23-18 41-41 41l-1 0 0 54c0 86-69 155-155 155-86 0-155-70-155-155z m178-218c-3-1-4-5-4-8 0-17 0-33 0-50 1-6-3-13-9-16-6-4-13-4-19 0-6 3-10 10-10 16l0 1c0 16 0 33 0 49 0 3-1 6-4 8-14 11-20 30-12 47 7 16 25 25 43 22 18-4 30-19 31-38 0-12-6-24-16-31z m-110 218c0 48 39 87 87 87 48 0 87-39 87-87l0-54-174 0z"/>
<glyph glyph-name="asynchronous" unicode="&#113;" d="M198 484l-198 0 0-196 198 0z m-40-156l-118 0 0 116 118 0z m241-9l110 67-110 67 0-47-178 0 0-41 178 0z m-85-89l0-196 198 0 0 196z m158-156l-118 0 0 115 118 0z m-359 125l-110-67 110-67 0 47 178 0 0 39-178 0z"/>
<glyph glyph-name="final" unicode="&#115;" d="M405 137l0-60-363 0 0 364 363 0 0-62 42 0 0 103-447 0 0-446 447 0 0 101z m106 121l-114 71 0-49-187 0 0-42 187 0 0-50z"/>
</font>
</defs>
</svg>
