<svg xmlns="http://www.w3.org/2000/svg" width="53.872" height="94.231" viewBox="0 0 53.872 94.231">
  <g id="Group_2939" data-name="Group 2939" transform="translate(-761.802 -610.555)">
    <g id="ico" transform="translate(763.479 612.231)">
      <path id="union" d="M44.77,92.261,4.6,52.088a1,1,0,0,1-.256-.186L-1.382,46.18a1,1,0,0,1-.291-.767A1,1,0,0,1-1.38,44.7l5.719-5.72a1,1,0,0,1,.251-.183L44.769-1.384a1,1,0,0,1,1.415,0L51.9,4.337a1,1,0,0,1,0,1.415L12.217,45.44,51.9,85.127a1,1,0,0,1,0,1.415l-5.719,5.719a1,1,0,0,1-1.415,0Z" transform="translate(50.521 90.878) rotate(180)"/>
    </g>
  </g>
</svg>
