<svg xmlns="http://www.w3.org/2000/svg" width="86.009" height="150.079" viewBox="0 0 86.009 150.079">
  <g id="ico" transform="translate(-5.574 2.903)">
    <path id="union" d="M71.488,146.88,7.637,83.03a1,1,0,0,1-.332-.22L-2.608,72.9a1,1,0,0,1-.29-.779,1,1,0,0,1,.292-.745L7.3,61.462a1,1,0,0,1,.324-.217L71.486-2.613a1,1,0,0,1,1.415,0L82.814,7.3a1,1,0,0,1,0,1.415L19.393,72.137l63.419,63.419a1,1,0,0,1,0,1.415L72.9,146.88a1,1,0,0,1-1.414,0Z" transform="translate(88.682 144.27) rotate(180)" fill="#91f9b9"/>
  </g>
</svg>
