<svg xmlns="http://www.w3.org/2000/svg" width="85" height="85" viewBox="0 0 85 85">
  <g id="Group_1706" data-name="Group 1706" transform="translate(-799 -467)">
    <circle id="Ellipse_77" data-name="Ellipse 77" cx="42.5" cy="42.5" r="42.5" transform="translate(799 467)" fill="#fafafa"/>
    <g id="Group_1197" data-name="Group 1197" transform="translate(820.636 481.723)">
      <g id="Group_1186" data-name="Group 1186" transform="translate(0)">
        <path id="Path_1677" data-name="Path 1677" d="M16.788,2.053C20.457,1.043,24.6,0,28.063,0c3.534,0,6.832,2.154,6.832,5.654,0,4.072-2.221,7.539-6.428,9.861v.135a12.538,12.538,0,0,1,1.582-.135,8.842,8.842,0,0,1,9.121,8.919C39.169,41.127,15.88,45.67,11,46.006c-4.914.337-10.938.639-11.005-1.279-.168-3.433,7.438-2.558,10.8-3.3V5.923a3.41,3.41,0,0,1,.4-1.784C11.774,3.332,14.4,2.726,16.788,2.053Zm-.034,14.505c5.789-.269,12.217-4.813,12.217-8.818,0-1.447-.538-2.827-3.4-2.827a19.8,19.8,0,0,0-8.851,2.423l.034,9.221Zm0,22.986c5.452-.841,16.289-5.654,16.289-14.236,0-2.49-2.154-5.452-6.428-5.452a19.152,19.152,0,0,0-7.673,1.582c-1.447.606-2.221,1.245-2.221,1.986l.034,16.121Z" transform="translate(0.008)"/>
      </g>
      <g id="Group_1187" data-name="Group 1187" transform="translate(24.234 4.715)">
        <path id="Path_1678" data-name="Path 1678" d="M78.664,23.9s10.9,1.313,11.106,1.346.37.2.236.5-.5.337-.909.337-10.972.538-10.972.538L72,25.989l4.914-4.779L78.6,19.493l3.3-1.245s5.486-2.962,7.337-4.106c.5-.3.942-.034.5.337C86.775,17.07,76.611,24.508,76.442,24.642s-.236.471-.1.471,10.332.168,10.332.168S78.731,24.2,78.63,24.171C78.529,24.171,78.5,23.9,78.664,23.9Z" transform="translate(-72 -14.011)"/>
      </g>
      <g id="Group_1188" data-name="Group 1188" transform="translate(23.561 9.221)">
        <path id="Path_1679" data-name="Path 1679" d="M71.615,28.208a.808.808,0,1,1-.808-.808A.819.819,0,0,1,71.615,28.208Z" transform="translate(-70 -27.4)"/>
      </g>
      <g id="Group_1189" data-name="Group 1189" transform="translate(22.922 9.188)">
        <path id="Path_1680" data-name="Path 1680" d="M69.547,30.194a1.447,1.447,0,0,1,0-2.894v.4a1.043,1.043,0,1,0,0,2.087Z" transform="translate(-68.1 -27.3)"/>
      </g>
      <g id="Group_1190" data-name="Group 1190" transform="translate(13.936 45.232)">
        <path id="Path_1681" data-name="Path 1681" d="M42.814,145.3a.24.24,0,0,1-.2-.1l-1.178-1.649a.252.252,0,0,1-.034-.168v-8.717a.269.269,0,1,1,.538,0v8.649l1.111,1.582a.239.239,0,0,1-.067.37A.3.3,0,0,1,42.814,145.3Z" transform="translate(-41.4 -134.4)"/>
      </g>
      <g id="Group_1191" data-name="Group 1191" transform="translate(13.894 54.008)">
        <path id="Path_1682" data-name="Path 1682" d="M43.572,161.661h-.1l-2.019-.673a.266.266,0,0,1,.168-.5l2.019.673a.278.278,0,0,1,.168.337A.315.315,0,0,1,43.572,161.661Z" transform="translate(-41.275 -160.475)"/>
      </g>
      <g id="Group_1192" data-name="Group 1192" transform="translate(13.897 53.742)">
        <path id="Path_1683" data-name="Path 1683" d="M41.559,160.464a.286.286,0,0,1-.269-.236c-.034-.135.1-.269.236-.3l1.851-.236c.135-.034.269.1.3.236s-.1.269-.236.3l-1.851.236Z" transform="translate(-41.284 -159.684)"/>
      </g>
      <g id="Group_1193" data-name="Group 1193" transform="translate(17.604 44.492)">
        <path id="Path_1684" data-name="Path 1684" d="M54.117,142.566a.2.2,0,0,1-.135-.034l-1.548-.808a.225.225,0,0,1-.135-.236v-9.02a.269.269,0,0,1,.538,0v8.851l1.414.74a.271.271,0,0,1,.1.37A.341.341,0,0,1,54.117,142.566Z" transform="translate(-52.3 -132.2)"/>
      </g>
      <g id="Group_1194" data-name="Group 1194" transform="translate(17.599 53.506)">
        <path id="Path_1685" data-name="Path 1685" d="M54.847,159.764h0l-2.322-.236a.271.271,0,1,1,.067-.538l2.289.236a.252.252,0,0,1,.236.3A.286.286,0,0,1,54.847,159.764Z" transform="translate(-52.284 -158.984)"/>
      </g>
      <g id="Group_1195" data-name="Group 1195" transform="translate(17.598 52.899)">
        <path id="Path_1686" data-name="Path 1686" d="M52.556,158.331a.256.256,0,0,1-.269-.2.3.3,0,0,1,.2-.337l2.524-.606a.278.278,0,1,1,.135.538l-2.524.606Z" transform="translate(-52.281 -157.181)"/>
      </g>
      <g id="Group_1196" data-name="Group 1196" transform="translate(7.441 19.419)">
        <path id="Path_1687" data-name="Path 1687" d="M36.5,61.267a2.077,2.077,0,0,0,1.582-1.851A1.652,1.652,0,0,0,36.538,57.7s-4,.438-5.284,1.212a3,3,0,0,0-1.481,2.861c-.034,1.077,0,6.361,0,7.64,0,1.313-.538,4.981-3.2,6.529l-3.5,1.649c-.438.168-.976.471-.976.942a.83.83,0,0,0,.774.875s10.164,0,10.265-8.717V63.455c0-.639,0-1.245.606-1.447S36.5,61.267,36.5,61.267Z" transform="translate(-22.1 -57.7)" fill="#022ab0"/>
      </g>
    </g>
  </g>
</svg>
