<svg id="Group_1971" data-name="Group 1971" xmlns="http://www.w3.org/2000/svg" width="179.933" height="238.88" viewBox="0 0 179.933 238.88">
  <g id="Group_1197" data-name="Group 1197" transform="translate(0 0)">
    <g id="Group_1186" data-name="Group 1186" transform="translate(0)">
      <path id="Path_1677" data-name="Path 1677" d="M71.46,8.736C87.069,4.44,104.683,0,119.432,0c15.036,0,29.07,9.166,29.07,24.06,0,17.329-9.451,32.08-27.351,41.962v.573a53.344,53.344,0,0,1,6.73-.573c24.917,0,38.807,19.334,38.807,37.952,0,71.034-99.094,90.368-119.858,91.8C25.923,197.2.29,198.494,0,190.331c-.716-14.608,31.647-10.884,45.967-14.035V25.206c.143-2.864.286-5.442,1.718-7.59C50.123,14.178,61.293,11.6,71.46,8.736Zm-.143,61.725c24.63-1.146,51.982-20.48,51.982-37.522,0-6.158-2.291-12.03-14.463-12.03-10.6,0-28.783,4.44-37.661,10.311l.143,39.24Zm0,97.815c23.2-3.58,69.309-24.06,69.309-60.579,0-10.6-9.165-23.2-27.351-23.2a81.484,81.484,0,0,0-32.65,6.731c-6.158,2.578-9.451,5.3-9.451,8.45l.143,68.6Z" transform="translate(0.008)"/>
    </g>
    <g id="Group_1187" data-name="Group 1187" transform="translate(103.116 20.066)">
      <path id="Path_1678" data-name="Path 1678" d="M100.354,56.1s46.4,5.585,47.256,5.729,1.575.859,1,2.148-2.148,1.432-3.866,1.432S98.062,67.7,98.062,67.7L72,64.979,92.907,44.643l7.16-7.3,14.034-5.3s23.342-12.6,31.218-17.472c2.148-1.289,4.01-.143,2.148,1.432-12.6,11.027-55.848,42.678-56.564,43.25s-1,2-.43,2,43.962.716,43.962.716-33.8-4.583-34.225-4.726C99.781,57.246,99.638,56.1,100.354,56.1Z" transform="translate(-72 -14.011)"/>
    </g>
    <g id="Group_1188" data-name="Group 1188" transform="translate(100.252 39.24)">
      <path id="Path_1679" data-name="Path 1679" d="M76.874,30.837A3.437,3.437,0,1,1,73.437,27.4,3.485,3.485,0,0,1,76.874,30.837Z" transform="translate(-70 -27.4)"/>
    </g>
    <g id="Group_1189" data-name="Group 1189" transform="translate(97.531 39.097)">
      <path id="Path_1680" data-name="Path 1680" d="M74.258,39.616a6.158,6.158,0,0,1,0-12.316v1.719a4.44,4.44,0,0,0,0,8.879Z" transform="translate(-68.1 -27.3)"/>
    </g>
    <g id="Group_1190" data-name="Group 1190" transform="translate(59.296 192.479)">
      <path id="Path_1681" data-name="Path 1681" d="M47.414,180.8a1.021,1.021,0,0,1-.859-.43l-5.012-7.017a1.073,1.073,0,0,1-.143-.716V135.546a1.146,1.146,0,1,1,2.291,0v36.806l4.726,6.731a1.017,1.017,0,0,1-.286,1.575A1.291,1.291,0,0,1,47.414,180.8Z" transform="translate(-41.4 -134.4)"/>
    </g>
    <g id="Group_1191" data-name="Group 1191" transform="translate(59.117 229.821)">
      <path id="Path_1682" data-name="Path 1682" d="M51.049,165.524h-.43l-8.592-2.864a1.132,1.132,0,0,1,.716-2.148l8.592,2.864a1.182,1.182,0,0,1,.716,1.432A1.339,1.339,0,0,1,51.049,165.524Z" transform="translate(-41.275 -160.474)"/>
    </g>
    <g id="Group_1192" data-name="Group 1192" transform="translate(59.131 228.69)">
      <path id="Path_1683" data-name="Path 1683" d="M42.452,163a1.215,1.215,0,0,1-1.146-1c-.143-.573.43-1.146,1-1.289l7.876-1c.573-.143,1.146.43,1.289,1s-.43,1.146-1,1.289L42.6,163Z" transform="translate(-41.284 -159.684)"/>
    </g>
    <g id="Group_1193" data-name="Group 1193" transform="translate(74.905 189.328)">
      <path id="Path_1684" data-name="Path 1684" d="M60.033,176.31a.861.861,0,0,1-.573-.143l-6.587-3.437a.959.959,0,0,1-.573-1V133.346a1.146,1.146,0,0,1,2.291,0v37.665l6.014,3.151a1.152,1.152,0,0,1,.43,1.575A1.449,1.449,0,0,1,60.033,176.31Z" transform="translate(-52.3 -132.2)"/>
    </g>
    <g id="Group_1194" data-name="Group 1194" transform="translate(74.883 227.687)">
      <path id="Path_1685" data-name="Path 1685" d="M63.19,162.3h0l-9.881-1a1.155,1.155,0,0,1,.286-2.291l9.738,1a1.071,1.071,0,0,1,1,1.289A1.215,1.215,0,0,1,63.19,162.3Z" transform="translate(-52.284 -158.984)"/>
    </g>
    <g id="Group_1195" data-name="Group 1195" transform="translate(74.877 225.104)">
      <path id="Path_1686" data-name="Path 1686" d="M53.454,162.078a1.089,1.089,0,0,1-1.146-.859,1.27,1.27,0,0,1,.859-1.432l10.74-2.578a1.181,1.181,0,0,1,.573,2.291l-10.74,2.578Z" transform="translate(-52.281 -157.181)"/>
    </g>
    <g id="Group_1196" data-name="Group 1196" transform="translate(31.659 82.634)">
      <path id="Path_1687" data-name="Path 1687" d="M83.389,72.881c3.437-1.146,6.73-3.867,6.73-7.877s-3.007-7.3-6.587-7.3c0,0-17.041,1.862-22.482,5.156s-6.158,7.59-6.3,12.173,0,27.067,0,32.509c0,5.585-2.291,21.2-13.6,27.783l-14.893,7.018c-1.862.716-4.153,2-4.153,4.01a3.532,3.532,0,0,0,3.294,3.724s43.246,0,43.676-37.092V82.19c0-2.721,0-5.3,2.578-6.158S83.389,72.881,83.389,72.881Z" transform="translate(-22.1 -57.7)" fill="#24419b"/>
    </g>
  </g>
</svg>
