<svg id="books" xmlns="http://www.w3.org/2000/svg" width="64.085" height="67.855" viewBox="0 0 64.085 67.855">
  <path id="Path_4012" data-name="Path 4012" d="M45.625,380.891a6.067,6.067,0,1,0,0,12.133H95.278V380.891Zm0,0" transform="translate(-34.316 -330.412)" fill="#efedee"/>
  <path id="Path_4013" data-name="Path 4013" d="M44.241,386.957a6.067,6.067,0,0,1,6.067-6.067H45.625a6.067,6.067,0,1,0,0,12.133h4.682A6.066,6.066,0,0,1,44.241,386.957Zm0,0" transform="translate(-34.316 -330.412)" fill="#d9d7d8"/>
  <path id="Path_4014" data-name="Path 4014" d="M11.309,346.578H61.463a2.621,2.621,0,1,0,0-5.242H10.515A10.515,10.515,0,0,0,0,351.85v1.589a10.515,10.515,0,0,0,10.515,10.515H61.463a2.621,2.621,0,1,0,0-5.243H11.309a6.067,6.067,0,0,1,0-12.134Zm0,0" transform="translate(0 -296.099)" fill="#f26531"/>
  <path id="Path_4015" data-name="Path 4015" d="M85.414,210.223a6.067,6.067,0,0,0,0,12.134H124.52V210.223Zm0,0" transform="translate(-68.832 -182.362)" fill="#efedee"/>
  <path id="Path_4016" data-name="Path 4016" d="M84.03,216.289a6.067,6.067,0,0,1,6.066-6.067H85.414a6.067,6.067,0,0,0,0,12.134H90.1A6.067,6.067,0,0,1,84.03,216.289Zm0,0" transform="translate(-68.832 -182.362)" fill="#d9d7d8"/>
  <path id="Path_4017" data-name="Path 4017" d="M51.1,175.91H90.706a2.621,2.621,0,1,0,0-5.242H50.3a10.514,10.514,0,0,0-10.515,10.515v1.589A10.515,10.515,0,0,0,50.3,193.286h40.4a2.621,2.621,0,0,0,0-5.243H51.1a6.067,6.067,0,0,1,0-12.134Zm0,0" transform="translate(-34.516 -148.05)" fill="#00aa4f"/>
  <path id="Path_4018" data-name="Path 4018" d="M130.883,39.559a6.067,6.067,0,1,0,0,12.133h27.054V39.559Zm0,0" transform="translate(-108.275 -34.316)" fill="#efedee"/>
  <path id="Path_4019" data-name="Path 4019" d="M129.5,45.625a6.066,6.066,0,0,1,6.066-6.066h-4.682a6.067,6.067,0,1,0,0,12.133h4.682A6.066,6.066,0,0,1,129.5,45.625Zm0,0" transform="translate(-108.275 -34.316)" fill="#d9d7d8"/>
  <path id="Path_4020" data-name="Path 4020" d="M96.571,5.243h27.556a2.621,2.621,0,0,0,0-5.243H95.776A10.514,10.514,0,0,0,85.262,10.515V12.1A10.514,10.514,0,0,0,95.776,22.618h28.351a2.621,2.621,0,0,0,0-5.242H96.571a6.067,6.067,0,1,1,0-12.134Zm0,0" transform="translate(-73.962)" fill="#ed174f"/>
  <g id="Group_2985" data-name="Group 2985" transform="translate(5.243 10.285)">
    <path id="Path_4021" data-name="Path 4021" d="M157.938,77.605H124.9a6,6,0,0,0,0,2.048h33.033Zm0,0" transform="translate(-113.517 -77.605)" fill="#bab8b9"/>
    <path id="Path_4022" data-name="Path 4022" d="M124.52,248.273H79.435a6.036,6.036,0,0,0,0,2.048H124.52Zm0,0" transform="translate(-74.075 -225.655)" fill="#bab8b9"/>
    <path id="Path_4023" data-name="Path 4023" d="M95.278,418.941H39.647a6,6,0,0,0,0,2.048H95.278Zm0,0" transform="translate(-39.559 -373.705)" fill="#bab8b9"/>
  </g>
</svg>
