<svg xmlns="http://www.w3.org/2000/svg" width="63.083" height="63.304" viewBox="0 0 63.083 63.304">
  <g id="Group_3034" data-name="Group 3034" transform="translate(0 28.944) rotate(-42)">
    <path id="Path_1341" data-name="Path 1341" d="M57.133,78.019c.182,0,.182-.345.182-.345.182-.345,0-.69-.182-1.035l-6.541-20.7c-.182-.345-.363-.69-.727-.69L30.969,48a1.381,1.381,0,0,0-1.09.345h0L14.435,65.252a.784.784,0,0,0-.182,1.035l6.723,20.7h0l19.078,7.246a1.381,1.381,0,0,0,1.09-.345L57.133,78.019Zm-8.358-20.7,5.814,17.942-6-2.415L42.779,54.9ZM38.055,69.048,32.241,51.105l7.813,3.105,5.814,17.942ZM30.242,51.105l5.814,18.287L22.248,84.575,16.434,66.287ZM23.7,86.3,37.51,71.118l7.813,3.105-3.634,3.8a1.476,1.476,0,0,0,0,1.725,1.15,1.15,0,0,0,1.454,0L47.5,74.913l6.723,2.415L40.6,92.856Z" transform="translate(-14.134 -48)" fill="#fba58a"/>
  </g>
</svg>
