<svg xmlns="http://www.w3.org/2000/svg" width="61.802" height="61.91" viewBox="0 0 61.802 61.91">
  <g id="Group_3032" data-name="Group 3032" transform="matrix(0.719, -0.695, 0.695, 0.719, 0, 28.874)">
    <g id="Group_705" data-name="Group 705">
      <path id="Path_1345" data-name="Path 1345" d="M50.673,60.6l-.839-2.844,3.357-5.4a3.861,3.861,0,0,0-.5-4.55l-5.2-4.834.839-.853a.768.768,0,0,0,0-1.137L28.684,21.638a1.156,1.156,0,0,0-1.343,0L12.4,36.425a.768.768,0,0,0,0,1.137l2.014,1.991a4.141,4.141,0,0,0,.5,5.4,4.733,4.733,0,0,0,5.707.569L33.384,58.037h0a4.141,4.141,0,0,0,.5,5.4,4.733,4.733,0,0,0,5.707.569l3.189,3.128a1.156,1.156,0,0,0,1.343,0l6.043-5.972C50.673,61.45,50.673,60.881,50.673,60.6ZM16.43,43.819a2.375,2.375,0,0,1,0-3.7,2.609,2.609,0,0,1,3.861,0,2.639,2.639,0,0,1,0,3.7A2.61,2.61,0,0,1,16.43,43.819Zm18.464,8.815-5.707-5.687a1.156,1.156,0,0,0-1.343,0,.768.768,0,0,0,0,1.137l5.707,5.687-1.007.853L21.969,44.388a4.141,4.141,0,0,0-.5-5.4,4.733,4.733,0,0,0-5.707-.569l-1.343-1.422,3.189-3.128L35.9,51.781l-1.007.853ZM45.469,42.4l-8.393,8.247L18.78,32.729l9.232-9.1,18.3,17.915Zm4.364,5.4,1.679,1.422a1.953,1.953,0,0,1,.336,2.275l-3.021,4.834-3.861-3.7L49.833,47.8ZM35.4,62.587a2.8,2.8,0,0,1-.168-3.7h.336a2.984,2.984,0,0,1,3.693,0,2.639,2.639,0,0,1,0,3.7A3.229,3.229,0,0,1,35.4,62.587Zm11.246.284L45.469,61.45l.671-.569,1.175,1.137Zm1.846-1.991-1.846-1.706a1.156,1.156,0,0,0-1.343,0l-1.846,1.991a.768.768,0,0,0,0,1.137L45.3,64.009l-1.679,1.706-2.686-2.559a4.141,4.141,0,0,0-.5-5.4,4.733,4.733,0,0,0-5.707-.569l-1.007-.853L45.973,44.388l2.35,2.275-5.539,5.4a.768.768,0,0,0,0,1.137l5.036,5.119.671,2.559Z" transform="translate(-12.15 -21.425)" fill="#fba58a"/>
    </g>
  </g>
</svg>
