<svg xmlns="http://www.w3.org/2000/svg" width="77.088" height="77.192" viewBox="0 0 77.088 77.192">
  <g id="Group_3033" data-name="Group 3033" transform="matrix(0.719, -0.695, 0.695, 0.719, 0, 36.429)">
    <g id="Group_756" data-name="Group 756">
      <g id="Group_755" data-name="Group 755">
        <path id="Path_1382" data-name="Path 1382" d="M61.722,68.555,58.066,65.31l6.5-7.787a2.269,2.269,0,0,0-.406-3.244L33.7,32.217a2.219,2.219,0,0,0-2.031-.324,2.575,2.575,0,0,0-1.828.973L15.011,50.71a2.475,2.475,0,0,0,.2,3.244s.2,0,.2.324l2.031,1.3L13.387,59.47a2.471,2.471,0,0,0,0,3.569L40.8,87.7a2.653,2.653,0,0,0,3.656,0L61.722,71.8A2.108,2.108,0,0,0,61.722,68.555Zm-4.671-4.542L52.176,59.47l5.28,3.893ZM31.258,33.84a.6.6,0,0,1,.609-.324h.609L63.143,55.253a.661.661,0,0,1,.2.973l-1.625,1.947L29.837,35.462ZM18.87,54.279l-2.234-1.622a.661.661,0,0,1-.2-.973h0l8.936-10.706,4.468,3.244ZM31.461,42.924l-4.874-3.569,2.031-2.6L60.5,59.47l-1.219,1.622-.812.973L42.631,50.71l-8.124-7.462A2.63,2.63,0,0,0,31.461,42.924Zm11.779,43.8a.884.884,0,0,1-1.219,0L14.808,61.417a.843.843,0,0,1,0-1.3l17.263-15.9h0a.884.884,0,0,1,1.219,0L60.5,69.528a.843.843,0,0,1,0,1.3Z" transform="translate(-12.625 -31.759)" fill="#fba58a"/>
        <path id="Path_1383" data-name="Path 1383" d="M29.683,47.617h1.053a3.353,3.353,0,0,0,3.16,3.847c2.107.275,4.038-1.1,4.214-2.748a3.349,3.349,0,0,0-1.053-3.022,3.416,3.416,0,0,0-3.16-.824,3.353,3.353,0,0,0-3.16-3.847c-2.107-.275-4.038,1.1-4.214,2.748A3.353,3.353,0,0,0,29.683,47.617Zm6.5-.824a2.063,2.063,0,0,1,0,3.022,2.329,2.329,0,0,1-3.16,0,2.063,2.063,0,0,1,0-3.022A2.326,2.326,0,0,1,36.18,46.792ZM31.79,42.946a2.063,2.063,0,0,1,0,3.022,2.329,2.329,0,0,1-3.16,0,2.063,2.063,0,0,1,0-3.022A2.329,2.329,0,0,1,31.79,42.946Z" transform="translate(3.478 -10.647)" fill="#fba58a"/>
        <path id="Path_1384" data-name="Path 1384" d="M1.219,0,2.437.609l-1.219.812L0,.609Z" transform="translate(19.094 17.792) rotate(11)" fill="#fba58a"/>
        <path id="Path_1385" data-name="Path 1385" d="M1.219,0,8.733,4.265l-1.219.609L0,.609Z" transform="translate(20.518 21.29) rotate(11)" fill="#fba58a"/>
        <path id="Path_1386" data-name="Path 1386" d="M1.156.015,10.84,5.6l-1.149.533L.007.549Z" transform="translate(16.26 20.621) rotate(11)" fill="#fba58a"/>
        <path id="Path_1387" data-name="Path 1387" d="M38.825,57.809,20.255,39.74a.7.7,0,0,0-1.013,0L16.2,42.895a.776.776,0,0,0,0,1.147l18.57,18.069a.7.7,0,0,0,1.013,0l3.039-3.155C39.163,58.382,39.163,58.1,38.825,57.809ZM35.28,60.1,17.723,42.895l2.026-2.008L37.306,58.1Z" transform="translate(-4.503 -9.212)" fill="#fba58a"/>
      </g>
    </g>
  </g>
</svg>
