<svg xmlns="http://www.w3.org/2000/svg" width="46.385" height="42.574" viewBox="0 0 46.385 42.574">
  <g id="chat" transform="translate(0 -2.465)">
    <path id="Path_3952" data-name="Path 3952" d="M9.773,25.011h10.05a.773.773,0,0,0,0-1.546H9.773a.773.773,0,1,0,0,1.546Z" transform="translate(-2.042 -4.765)" fill="#fba58a"/>
    <path id="Path_3953" data-name="Path 3953" d="M29.873,29.465H9.773a.773.773,0,1,0,0,1.546h20.1a.773.773,0,0,0,0-1.546Z" transform="translate(-2.042 -6.127)" fill="#fba58a"/>
    <path id="Path_3954" data-name="Path 3954" d="M29.873,35.465H9.773a.773.773,0,0,0,0,1.546h20.1a.773.773,0,0,0,0-1.546Z" transform="translate(-2.042 -7.488)" fill="#fba58a"/>
    <path id="Path_3955" data-name="Path 3955" d="M41.8,2.519,15.407,2.465a4.589,4.589,0,0,0-4.584,4.584v3.961l-6.239.013A4.589,4.589,0,0,0,0,15.608V31.952a4.589,4.589,0,0,0,4.584,4.584H9.277v7.731a.773.773,0,0,0,1.345.52l7.5-8.253,12.853-.053A4.589,4.589,0,0,0,35.561,31.9V31.81l4.066,4.473a.773.773,0,0,0,1.345-.52V28.032H41.8a4.589,4.589,0,0,0,4.584-4.584V7.1A4.59,4.59,0,0,0,41.8,2.519ZM34.015,31.9a3.042,3.042,0,0,1-3.041,3.037l-13.2.054a.774.774,0,0,0-.569.253l-6.386,7.025v-6.5a.773.773,0,0,0-.773-.773H4.584a3.041,3.041,0,0,1-3.038-3.037V15.607a3.042,3.042,0,0,1,3.04-3.038l7.01-.015h0l19.379-.04a3.042,3.042,0,0,1,3.038,3.038V31.9Zm10.823-8.45A3.041,3.041,0,0,1,41.8,26.484H40.2a.773.773,0,0,0-.773.773v6.5L35.561,29.51V15.553a4.59,4.59,0,0,0-4.586-4.584l-18.606.038V7.049A3.041,3.041,0,0,1,15.406,4.01L41.8,4.064h0A3.042,3.042,0,0,1,44.839,7.1V23.447Z" transform="translate(0 0)" fill="#fba58a"/>
  </g>
</svg>
