<svg xmlns="http://www.w3.org/2000/svg" width="124.494" height="104.991" viewBox="0 0 124.494 104.991">
  <path id="Path_3984" data-name="Path 3984" d="M220.838,287.323a7.125,7.125,0,0,1-5.038-2.088l-45.063-45.066a7.123,7.123,0,0,1,0-10.077l25.559-25.562a7.133,7.133,0,0,1,10.079,0L220.838,219l34.58-34.578a7.123,7.123,0,0,1,10.077,0l25.562,25.562a7.128,7.128,0,0,1,0,10.077l-65.178,65.178A7.137,7.137,0,0,1,220.838,287.323Zm-34.987-52.192,34.987,34.987,55.1-55.1-15.482-15.482-34.578,34.578a7.127,7.127,0,0,1-10.079,0l-14.466-14.466Zm0,0" transform="translate(-168.648 -182.332)" fill="#fba58a"/>
</svg>
