<svg xmlns="http://www.w3.org/2000/svg" width="104" height="60" viewBox="0 0 104 60">
  <g id="Group_3087" data-name="Group 3087" transform="translate(-669 -4454)">
    <g id="Group_3086" data-name="Group 3086">
      <g id="Rectangle_1559" data-name="Rectangle 1559" transform="translate(677 4454)" fill="none" stroke="#8bffbc" stroke-width="2">
        <path d="M3,0H85a3,3,0,0,1,3,3V56a0,0,0,0,1,0,0H0a0,0,0,0,1,0,0V3A3,3,0,0,1,3,0Z" stroke="none"/>
        <path d="M3,1H85a2,2,0,0,1,2,2V54a1,1,0,0,1-1,1H2a1,1,0,0,1-1-1V3A2,2,0,0,1,3,1Z" fill="none"/>
      </g>
      <g id="Rectangle_1560" data-name="Rectangle 1560" transform="translate(677 4507)" fill="none" stroke="#8bffbc" stroke-width="2">
        <rect width="88" height="3" rx="1.5" stroke="none"/>
        <rect x="1" y="1" width="86" height="1" rx="0.5" fill="none"/>
      </g>
      <g id="Rectangle_1561" data-name="Rectangle 1561" transform="translate(669 4511)" fill="none" stroke="#8bffbc" stroke-width="2">
        <rect width="104" height="3" stroke="none"/>
        <rect x="1" y="1" width="102" height="1" fill="none"/>
      </g>
    </g>
  </g>
</svg>
