<svg xmlns="http://www.w3.org/2000/svg" xmlns:xlink="http://www.w3.org/1999/xlink" width="142.772" height="167.836" viewBox="0 0 142.772 167.836">
  <defs>
    <linearGradient id="linear-gradient" y1="0.5" x2="1" y2="0.5" gradientUnits="objectBoundingBox">
      <stop offset="0" stop-color="#fea88d"/>
      <stop offset="1" stop-color="#f1c1b2"/>
    </linearGradient>
  </defs>
  <path id="docs" d="M156.368,7.229V145.052a2.479,2.479,0,0,1-2.479,2.479H135.172v22.576a2.479,2.479,0,0,1-2.479,2.479H16.075a2.479,2.479,0,0,1-2.479-2.479V32.286a2.48,2.48,0,0,1,2.479-2.479H34.8V7.229A2.479,2.479,0,0,1,37.283,4.75H97.194a2.479,2.479,0,1,1,0,4.957H39.761v20.1h92.932a2.48,2.48,0,0,1,2.479,2.479v46.2a2.479,2.479,0,1,1-4.957,0V34.765H18.559V167.629H130.214V104.956a2.479,2.479,0,0,1,4.957,0v37.618h16.24V9.707H109.3a2.479,2.479,0,0,1,0-4.957H153.89a2.477,2.477,0,0,1,2.479,2.479ZM132.693,86.189a2.477,2.477,0,0,0-2.479,2.479v6.551a2.479,2.479,0,0,0,4.957,0V88.668a2.479,2.479,0,0,0-2.479-2.479ZM115.1,47.736H84.985a2.479,2.479,0,0,0,0,4.957H115.1a2.479,2.479,0,0,0,0-4.957Zm0,25.494H33.664a2.479,2.479,0,1,0,0,4.957H115.1a2.479,2.479,0,0,0,0-4.957Zm0,12.747H33.664a2.479,2.479,0,1,0,0,4.957H115.1a2.479,2.479,0,0,0,0-4.957Zm0,12.747H33.664a2.479,2.479,0,1,0,0,4.957H115.1a2.479,2.479,0,0,0,0-4.957Zm0,12.747H33.664a2.479,2.479,0,0,0,0,4.957H115.1a2.479,2.479,0,1,0,0-4.957Zm0,12.747H33.664a2.479,2.479,0,0,0,0,4.957H115.1a2.479,2.479,0,0,0,0-4.957Zm2.479,15.226a2.479,2.479,0,0,0-2.479-2.479H33.664a2.479,2.479,0,0,0,0,4.957H115.1a2.479,2.479,0,0,0,2.479-2.484ZM48.911,149.712a2.479,2.479,0,0,0,0,4.957H99.857a2.479,2.479,0,0,0,0-4.957Z" transform="translate(-13.596 -4.75)" fill="url(#linear-gradient)"/>
</svg>
