<svg xmlns="http://www.w3.org/2000/svg" width="85" height="85" viewBox="0 0 85 85">
  <g id="Group_3079" data-name="Group 3079" transform="translate(-1077 -947)">
    <g id="Group_1707" data-name="Group 1707" transform="translate(17 480)">
      <path id="Path_2537" data-name="Path 2537" d="M42.5,0A42.5,42.5,0,1,1,0,42.5,42.5,42.5,0,0,1,42.5,0Z" transform="translate(1060 467)" fill="#fafafa"/>
    </g>
    <g id="Group_2211" data-name="Group 2211" transform="translate(1016.6 1641.19)">
      <g id="Group_2024" data-name="Group 2024" transform="translate(75.4 -661.33)">
        <g id="Group_2022" data-name="Group 2022">
          <path id="Path_2278" data-name="Path 2278" d="M90.518-656.95a2.2,2.2,0,0,0,1.68-1.976c0-.988,1.779-2.174.889-2.174,0,0-6.719.889-8,1.68a3.18,3.18,0,0,0-1.581,2.964v8c0,1.383-.593,5.237-3.36,6.818l-3.755,1.779c-.494.2-.988.494-.988.988a.871.871,0,0,0,.791.889s10.672,0,10.771-9.19v-7.609c0-.692,0-1.285.593-1.482C88.246-656.357,90.518-656.95,90.518-656.95Z" transform="translate(-75.4 661.1)" fill="#25419a"/>
        </g>
        <g id="Group_2023" data-name="Group 2023" transform="translate(37.886 0.099)">
          <path id="Path_2279" data-name="Path 2279" d="M115.677-656.949a2.2,2.2,0,0,1-1.68-1.976c0-.988-.692-2.075.2-2.075,0,0,5.632.692,7.016,1.482a3.18,3.18,0,0,1,1.581,2.964v8c0,1.383.593,5.237,3.36,6.818l3.656,1.68c.494.2.988.494.988.988a.871.871,0,0,1-.791.889s-10.672,0-10.771-9.19v-7.609c0-.692,0-1.285-.593-1.482A12.8,12.8,0,0,1,115.677-656.949Z" transform="translate(-113.741 661)" fill="#25419a"/>
        </g>
      </g>
      <g id="Group_2025" data-name="Group 2025" transform="translate(96.348 -640.283)">
        <path id="Path_2280" data-name="Path 2280" d="M100.355-639.8a.425.425,0,0,0-.4.4v13.412l-2.767-.369c-.2,0-.494.1-.494.4,0,.2.1.494.4.494l1.319.17-1.517.522a.543.543,0,0,0-.3.494c.1.1.2.3.4.3h.1l2.2-.757L98.181-623.2c-.1.2-.1.494.1.593-.1.1,0,.1.1.1a.749.749,0,0,0,.4-.2l1.877-2.569a.363.363,0,0,0,.1-.3V-639.4A.425.425,0,0,0,100.355-639.8Z" transform="translate(-96.6 639.8)" fill="#010101"/>
        <path id="Path_2281" data-name="Path 2281" d="M109.35-624.579l-1.754-.439,1.853-.451a.378.378,0,0,0,.3-.494.377.377,0,0,0-.494-.3l-3.261.793V-639.1a.425.425,0,0,0-.4-.4.425.425,0,0,0-.4.4v14.031a.439.439,0,0,0,.129.314.249.249,0,0,0,.062.074l.006.007.007.006a.22.22,0,0,0,.023.021l2.045,1.851a.84.84,0,0,0,.494.3.75.75,0,0,0,.4-.2c0-.1,0-.3-.4-.593l-1.018-1.018,2.3.622a.425.425,0,0,0,.4-.4C109.745-624.283,109.548-624.48,109.35-624.579Z" transform="translate(-96.702 639.796)" fill="#010101"/>
      </g>
      <g id="Group_2026" data-name="Group 2026" transform="translate(89.036 -680.5)">
        <path id="Path_2282" data-name="Path 2282" d="M102.935-680.5l.1,17.095L89.2-656.785Z" transform="translate(-89.2 680.5)" fill="#828384"/>
        <path id="Path_2283" data-name="Path 2283" d="M103.034-648.674,89.2-656.579l13.834-6.621Z" transform="translate(-89.2 680.295)" fill="#262626"/>
        <path id="Path_2284" data-name="Path 2284" d="M103.034-645.8v11.265L89.2-654.2Z" transform="translate(-89.2 680.188)" fill="#828384"/>
        <path id="Path_2285" data-name="Path 2285" d="M103.1-680.5l.1,17.095,13.735,6.522Z" transform="translate(-89.365 680.5)" fill="#2f3030"/>
        <path id="Path_2286" data-name="Path 2286" d="M103.2-648.674l13.735-8L103.2-663.2Z" transform="translate(-89.366 680.295)" fill="#141414"/>
        <path id="Path_2287" data-name="Path 2287" d="M103.2-645.8v11.265L116.935-654.2Z" transform="translate(-89.366 680.188)" fill="#2f3030"/>
      </g>
    </g>
  </g>
</svg>
