<svg xmlns="http://www.w3.org/2000/svg" width="13.923" height="13.546" viewBox="0 0 13.923 13.546">
  <path id="Path_3616" data-name="Path 3616" d="M6.94,0A6.953,6.953,0,0,0,4.726,13.54c.341.043.468-.17.468-.341V12.007c-1.916.426-2.342-.937-2.342-.937a1.758,1.758,0,0,0-.766-1.022c-.639-.426.043-.426.043-.426a1.484,1.484,0,0,1,1.064.724,1.474,1.474,0,0,0,2,.6,1.483,1.483,0,0,1,.426-.937C4.088,9.836,2.47,9.24,2.47,6.557a2.64,2.64,0,0,1,.724-1.873A2.521,2.521,0,0,1,3.279,2.9s.6-.17,1.916.724A5.95,5.95,0,0,1,6.94,3.406a7.837,7.837,0,0,1,1.746.213C10.006,2.725,10.6,2.9,10.6,2.9a2.666,2.666,0,0,1,.085,1.831A2.754,2.754,0,0,1,11.411,6.6c0,2.682-1.618,3.236-3.151,3.406a1.626,1.626,0,0,1,.468,1.277V13.2c0,.17.128.383.468.341A6.953,6.953,0,0,0,6.94,0Z" fill="#1c3f94" fill-rule="evenodd"/>
</svg>
