<svg xmlns="http://www.w3.org/2000/svg" width="32.878" height="31.939" viewBox="0 0 32.878 31.939">
  <g id="Group_3085" data-name="Group 3085" transform="translate(-774.65 -3038.721)">
    <g id="Group_3084" data-name="Group 3084">
      <g id="Rounded_Rectangle_3_copy" data-name="Rounded Rectangle 3 copy" transform="translate(774.65 3038.721)" fill="none" stroke="#879dbb" stroke-width="1">
        <rect width="32.878" height="31.939" stroke="none"/>
        <rect x="0.5" y="0.5" width="31.878" height="30.939" fill="none"/>
      </g>
      <path id="Path_1912" data-name="Path 1912" d="M8.963,0A8.98,8.98,0,0,0,6.1,17.487c.44.055.6-.22.6-.44v-1.54c-2.475.55-3.024-1.21-3.024-1.21a2.271,2.271,0,0,0-.99-1.32c-.825-.55.055-.55.055-.55a1.916,1.916,0,0,1,1.375.935,1.9,1.9,0,0,0,2.585.77,1.915,1.915,0,0,1,.55-1.21c-1.98-.22-4.069-.99-4.069-4.454a3.409,3.409,0,0,1,.935-2.42,3.256,3.256,0,0,1,.11-2.31s.77-.22,2.475.935A7.684,7.684,0,0,1,8.963,4.4a10.121,10.121,0,0,1,2.255.275c1.7-1.155,2.475-.935,2.475-.935A3.443,3.443,0,0,1,13.8,6.1a3.557,3.557,0,0,1,.935,2.42c0,3.464-2.09,4.179-4.069,4.4a2.1,2.1,0,0,1,.6,1.65v2.475c0,.22.165.495.6.44A8.98,8.98,0,0,0,8.963,0Z" transform="translate(781.635 3046.112)" fill="#879dbb" fill-rule="evenodd"/>
    </g>
  </g>
</svg>
