<svg xmlns="http://www.w3.org/2000/svg" width="13.519" height="10.256" viewBox="0 0 13.519 10.256">
  <path id="Path_3617" data-name="Path 3617" d="M139.614,13.007a1.821,1.821,0,0,0-1.189-1.305,37.474,37.474,0,0,0-5.268-.3,35.869,35.869,0,0,0-5.2.28,1.92,1.92,0,0,0-1.305,1.329,19.935,19.935,0,0,0-.256,3.519,19.935,19.935,0,0,0,.256,3.519,2.011,2.011,0,0,0,1.305,1.329,35.869,35.869,0,0,0,5.2.28,35.869,35.869,0,0,0,5.2-.28,1.89,1.89,0,0,0,1.282-1.329,20.76,20.76,0,0,0,.28-3.519A21.656,21.656,0,0,0,139.614,13.007Zm-7.762,5.8V14.266l3.38,2.284Z" transform="translate(-126.398 -11.398)" fill="#1c3f94"/>
</svg>
