<svg xmlns="http://www.w3.org/2000/svg" width="11.799" height="16.386" viewBox="0 0 11.799 16.386">
  <g id="Group_2660" data-name="Group 2660" transform="translate(0 0)">
    <g id="g24_1_" transform="translate(5.936 9.504)">
      <g id="path26_1_">
        <path id="Path_470" data-name="Path 470" d="M-245.672-364.1a2.066,2.066,0,0,1,1.828,2.227,2.066,2.066,0,0,1-1.828,2.227,2.066,2.066,0,0,1-1.828-2.227,2.045,2.045,0,0,1,1.828-2.227" transform="translate(247.5 364.1)" fill="#1c3f94"/>
      </g>
    </g>
    <g id="g28_1_" transform="translate(5.736 9.304)">
      <g id="path30_1_" transform="translate(0 0)">
        <path id="Path_471" data-name="Path 471" d="M-246.073-359.914a2.244,2.244,0,0,1-2.027-2.393,2.221,2.221,0,0,1,2.027-2.393,2.244,2.244,0,0,1,2.027,2.393A2.221,2.221,0,0,1-246.073-359.914Zm0-4.42a1.88,1.88,0,0,0-1.662,2.027,1.857,1.857,0,0,0,1.662,2.027,1.88,1.88,0,0,0,1.662-2.027A1.857,1.857,0,0,0-246.073-364.334Z" transform="translate(248.1 364.7)" fill="#1c3f94"/>
      </g>
    </g>
    <g id="g32_1_" transform="translate(2.399 14.924)">
      <g id="path34_1_" transform="translate(0)">
        <path id="Path_472" data-name="Path 472" d="M-248.707-330.3a.648.648,0,0,0,.033-.266,1.167,1.167,0,0,0-1.263-1.03,1.167,1.167,0,0,0-1.263,1.03c0,.1.033.166.033.266Z" transform="translate(251.2 331.6)" fill="#1c3f94"/>
      </g>
    </g>
    <g id="g36_1_" transform="translate(2.233 14.758)">
      <g id="path38_1_" transform="translate(0)">
        <path id="Path_473" data-name="Path 473" d="M-249.041-330.472h-2.426a.221.221,0,0,1-.166-.133.971.971,0,0,1-.066-.3,1.342,1.342,0,0,1,1.429-1.2,1.353,1.353,0,0,1,1.462,1.2.971.971,0,0,1-.066.3A.17.17,0,0,1-249.041-330.472Zm-2.293-.366h2.16v-.066c0-.465-.5-.831-1.1-.831a.958.958,0,0,0-1.064.831Z" transform="translate(251.7 332.1)" fill="#1c3f94"/>
      </g>
    </g>
    <g id="g40_1_" transform="translate(6.834 14.924)">
      <g id="path42_1_">
        <path id="Path_474" data-name="Path 474" d="M-246.007-330.3a.648.648,0,0,0,.033-.266,1.167,1.167,0,0,0-1.263-1.03,1.167,1.167,0,0,0-1.263,1.03c0,.1.033.166.033.266Z" transform="translate(248.5 331.6)" fill="#1c3f94"/>
      </g>
    </g>
    <g id="g44_1_" transform="translate(6.668 14.758)">
      <g id="path46_1_">
        <path id="Path_475" data-name="Path 475" d="M-246.341-330.472h-2.426c-.066,0-.166-.066-.166-.133a.971.971,0,0,1-.066-.3,1.342,1.342,0,0,1,1.429-1.2,1.32,1.32,0,0,1,1.429,1.2.971.971,0,0,1-.066.3A.122.122,0,0,1-246.341-330.472Zm-2.293-.366h2.16v-.066a.979.979,0,0,0-1.064-.831.958.958,0,0,0-1.064.831C-248.668-330.87-248.668-330.837-248.634-330.837Z" transform="translate(249 332.1)" fill="#1c3f94"/>
      </g>
    </g>
    <g id="g48_1_" transform="translate(0.166 3.674)">
      <g id="path50_1_">
        <path id="Path_476" data-name="Path 476" d="M-249.74-391.77a1.121,1.121,0,0,1-1.13,1.13,1.121,1.121,0,0,1-1.13-1.13,1.121,1.121,0,0,1,1.13-1.13,1.164,1.164,0,0,1,1.13,1.13" transform="translate(252 392.9)" fill="#1c3f94"/>
      </g>
    </g>
    <g id="g52_1_" transform="translate(0 3.541)">
      <g id="path54_1_">
        <path id="Path_477" data-name="Path 477" d="M-251.2-390.708a1.3,1.3,0,0,1-1.3-1.3,1.3,1.3,0,0,1,1.3-1.3,1.3,1.3,0,0,1,1.3,1.3A1.277,1.277,0,0,1-251.2-390.708Zm0-2.26a.929.929,0,0,0-.931.931.929.929,0,0,0,.931.931.929.929,0,0,0,.931-.931A.908.908,0,0,0-251.2-392.968Z" transform="translate(252.5 393.3)" fill="#1c3f94"/>
      </g>
    </g>
    <path id="Subtraction_2" data-name="Subtraction 2" d="M5.873,13.347H4.643c-1.13-.582-1.927-2.72-1.895-5.084A10.464,10.464,0,0,1,2.878,6.6C1.1,6,0,4.808,0,3.489,0,1.565,2.356,0,5.252,0A6.74,6.74,0,0,1,8.99,1.04a1.295,1.295,0,0,1,2.2.925,1.319,1.319,0,0,1-.719,1.153,2.3,2.3,0,0,1,.029.37A2.657,2.657,0,0,1,9.667,5.4a5.089,5.089,0,0,1-2,1.194A10.554,10.554,0,0,1,7.8,8.263c0,2.409-.793,4.5-1.928,5.084Zm-2.355-8.5a.188.188,0,0,0-.133.316,2.535,2.535,0,0,0,1.895.6,2.6,2.6,0,0,0,1.894-.6.2.2,0,0,0,0-.266.2.2,0,0,0-.266,0A2.222,2.222,0,0,1,5.28,5.36,2.4,2.4,0,0,1,3.651,4.9.186.186,0,0,0,3.518,4.845ZM7.1,2.079a.765.765,0,0,0,0,1.53.775.775,0,0,0,.765-.765A.757.757,0,0,0,7.1,2.079Zm-3.6,0a.765.765,0,1,0,.765.766A.757.757,0,0,0,3.5,2.079Z" transform="translate(0.607 2.871)" fill="#1c3f94"/>
    <g id="g64_1_" transform="translate(5.721 0.178)">
      <g id="path66_1_">
        <path id="Path_480" data-name="Path 480" d="M-250.918-409.942h-.066a.189.189,0,0,1-.133-.233l.831-2.592a.223.223,0,0,1,.233-.133l2.26.532a.189.189,0,0,1,.133.233.189.189,0,0,1-.233.133l-2.094-.5-.764,2.459C-250.752-409.975-250.818-409.942-250.918-409.942Z" transform="translate(251.126 412.9)" fill="#1c3f94"/>
      </g>
    </g>
    <g id="g68_1_" transform="translate(2.18 9.504)">
      <g id="path70_1_">
        <path id="Path_481" data-name="Path 481" d="M-247.874-364.1a2.066,2.066,0,0,1,1.828,2.227,2.066,2.066,0,0,1-1.828,2.227,2.066,2.066,0,0,1-1.828-2.227,2,2,0,0,1,1.828-2.227" transform="translate(249.703 364.1)" fill="#1c3f94"/>
      </g>
    </g>
    <g id="g72_1_" transform="translate(1.981 9.304)">
      <g id="path74_1_" transform="translate(0 0)">
        <path id="Path_482" data-name="Path 482" d="M-248.273-359.914a2.244,2.244,0,0,1-2.027-2.393,2.221,2.221,0,0,1,2.027-2.393,2.244,2.244,0,0,1,2.027,2.393A2.244,2.244,0,0,1-248.273-359.914Zm0-4.42a1.88,1.88,0,0,0-1.662,2.027,1.857,1.857,0,0,0,1.662,2.027,1.88,1.88,0,0,0,1.662-2.027A1.88,1.88,0,0,0-248.273-364.334Z" transform="translate(250.3 364.7)" fill="#1c3f94"/>
      </g>
    </g>
    <g id="g76_1_" transform="translate(9.032 0.166)">
      <g id="path78_1_">
        <path id="Path_483" data-name="Path 483" d="M-243.705-411.6a.894.894,0,0,1-.9.9.894.894,0,0,1-.9-.9.894.894,0,0,1,.9-.9.894.894,0,0,1,.9.9" transform="translate(245.5 412.5)" fill="#1c3f94"/>
      </g>
    </g>
    <g id="g80_1_" transform="translate(8.866 0)">
      <g id="path82_1_">
        <path id="Path_484" data-name="Path 484" d="M-244.936-410.873A1.05,1.05,0,0,1-246-411.937,1.05,1.05,0,0,1-244.936-413a1.05,1.05,0,0,1,1.064,1.064A1.05,1.05,0,0,1-244.936-410.873Zm0-1.761a.682.682,0,0,0-.7.7.682.682,0,0,0,.7.7.682.682,0,0,0,.7-.7A.682.682,0,0,0-244.936-412.634Z" transform="translate(246 413)" fill="#1c3f94"/>
      </g>
    </g>
    <g id="g88_1_" transform="translate(2.616 5.683)">
      <g id="path90_1_" transform="translate(0 0)">
        <path id="Path_486" data-name="Path 486" d="M-246.487-348.75h-1.329l-.033-.033c-1.2-.626-2.027-2.77-2.027-5.21,0-3.034,1.2-5.408,2.725-5.408s2.725,2.374,2.725,5.408c0,2.44-.831,4.616-2.027,5.21Zm-1.23-.363h1.163c1.03-.561,1.795-2.6,1.795-4.88,0-2.737.741-4.257-3.4-4.265s-1.319,1.529-1.319,4.265C-249.511-351.75-248.78-349.706-247.716-349.113Z" transform="translate(250.417 359.4)" fill="#1c3f94"/>
      </g>
    </g>
    <g id="g100_1_" transform="translate(4.378 16.054)">
      <g id="path102_1_">
        <path id="Path_489" data-name="Path 489" d="M-241.509-327.868h-2.725a.157.157,0,0,1-.166-.166.157.157,0,0,1,.166-.166h2.725a.157.157,0,0,1,.166.166A.157.157,0,0,1-241.509-327.868Z" transform="translate(244.4 328.2)" fill="#1c3f94"/>
      </g>
    </g>
  </g>
</svg>
