<svg id="Group_1846" data-name="Group 1846" xmlns="http://www.w3.org/2000/svg" width="32.878" height="31.939" viewBox="0 0 32.878 31.939">
  <g id="Rounded_Rectangle_3_copy_3" data-name="Rounded Rectangle 3 copy 3" transform="translate(0 0)" fill="none" stroke="#879dbb" stroke-width="1">
    <rect width="32.878" height="31.939" stroke="none"/>
    <rect x="0.5" y="0.5" width="31.878" height="30.939" fill="none"/>
  </g>
  <g id="Group_844" data-name="Group 844" transform="translate(8.889 5.08)">
    <g id="g24_1_" transform="translate(7.666 12.274)">
      <g id="path26_1_">
        <path id="Path_470" data-name="Path 470" d="M-245.139-364.1a2.668,2.668,0,0,1,2.361,2.876,2.668,2.668,0,0,1-2.361,2.876,2.668,2.668,0,0,1-2.361-2.876,2.641,2.641,0,0,1,2.361-2.876" transform="translate(247.5 364.1)" fill="#879dbb"/>
      </g>
    </g>
    <g id="g28_1_" transform="translate(7.408 12.016)">
      <g id="path30_1_" transform="translate(0 0)">
        <path id="Path_471" data-name="Path 471" d="M-245.482-358.519a2.9,2.9,0,0,1-2.618-3.09,2.869,2.869,0,0,1,2.618-3.09,2.9,2.9,0,0,1,2.618,3.09A2.869,2.869,0,0,1-245.482-358.519Zm0-5.709a2.428,2.428,0,0,0-2.146,2.618,2.4,2.4,0,0,0,2.146,2.618,2.428,2.428,0,0,0,2.146-2.618A2.4,2.4,0,0,0-245.482-364.228Z" transform="translate(248.1 364.7)" fill="#879dbb"/>
      </g>
    </g>
    <g id="g32_1_" transform="translate(3.098 19.274)">
      <g id="path34_1_" transform="translate(0)">
        <path id="Path_472" data-name="Path 472" d="M-247.981-329.926a.837.837,0,0,0,.043-.343,1.507,1.507,0,0,0-1.631-1.331,1.507,1.507,0,0,0-1.631,1.331c0,.129.043.215.043.343Z" transform="translate(251.2 331.6)" fill="#879dbb"/>
      </g>
    </g>
    <g id="g36_1_" transform="translate(2.883 19.059)">
      <g id="path38_1_" transform="translate(0)">
        <path id="Path_473" data-name="Path 473" d="M-248.266-330H-251.4a.285.285,0,0,1-.215-.172,1.253,1.253,0,0,1-.086-.386,1.733,1.733,0,0,1,1.846-1.545,1.748,1.748,0,0,1,1.889,1.545,1.254,1.254,0,0,1-.086.386A.219.219,0,0,1-248.266-330Zm-2.962-.472h2.79v-.086c0-.6-.644-1.073-1.416-1.073a1.237,1.237,0,0,0-1.374,1.073Z" transform="translate(251.7 332.1)" fill="#879dbb"/>
      </g>
    </g>
    <g id="g40_1_" transform="translate(8.826 19.274)">
      <g id="path42_1_">
        <path id="Path_474" data-name="Path 474" d="M-245.281-329.926a.837.837,0,0,0,.043-.343,1.507,1.507,0,0,0-1.631-1.331,1.507,1.507,0,0,0-1.631,1.331c0,.129.043.215.043.343Z" transform="translate(248.5 331.6)" fill="#879dbb"/>
      </g>
    </g>
    <g id="g44_1_" transform="translate(8.612 19.059)">
      <g id="path46_1_">
        <path id="Path_475" data-name="Path 475" d="M-245.566-330H-248.7c-.086,0-.215-.086-.215-.172a1.254,1.254,0,0,1-.086-.386,1.733,1.733,0,0,1,1.846-1.545,1.705,1.705,0,0,1,1.846,1.545,1.254,1.254,0,0,1-.086.386A.157.157,0,0,1-245.566-330Zm-2.962-.472h2.79v-.086a1.264,1.264,0,0,0-1.374-1.073,1.237,1.237,0,0,0-1.374,1.073C-248.571-330.512-248.571-330.469-248.528-330.469Z" transform="translate(249 332.1)" fill="#879dbb"/>
      </g>
    </g>
    <g id="g48_1_" transform="translate(0.215 4.744)">
      <g id="path50_1_">
        <path id="Path_476" data-name="Path 476" d="M-249.081-391.441a1.447,1.447,0,0,1-1.459,1.459A1.447,1.447,0,0,1-252-391.441a1.447,1.447,0,0,1,1.459-1.459,1.5,1.5,0,0,1,1.459,1.459" transform="translate(252 392.9)" fill="#879dbb"/>
      </g>
    </g>
    <g id="g52_1_" transform="translate(0 4.573)">
      <g id="path54_1_">
        <path id="Path_477" data-name="Path 477" d="M-250.826-389.952a1.676,1.676,0,0,1-1.674-1.674,1.676,1.676,0,0,1,1.674-1.674,1.676,1.676,0,0,1,1.674,1.674A1.649,1.649,0,0,1-250.826-389.952Zm0-2.919a1.2,1.2,0,0,0-1.2,1.2,1.2,1.2,0,0,0,1.2,1.2,1.2,1.2,0,0,0,1.2-1.2A1.173,1.173,0,0,0-250.826-392.871Z" transform="translate(252.5 393.3)" fill="#879dbb"/>
      </g>
    </g>
    <path id="Subtraction_2" data-name="Subtraction 2" d="M7.584,17.238H6c-1.459-.751-2.488-3.513-2.447-6.566a13.514,13.514,0,0,1,.168-2.146C1.425,7.75,0,6.21,0,4.506,0,2.022,3.043,0,6.782,0A8.7,8.7,0,0,1,11.61,1.344a1.672,1.672,0,0,1,2.844,1.195,1.7,1.7,0,0,1-.928,1.489,2.977,2.977,0,0,1,.038.478,3.431,3.431,0,0,1-1.079,2.469A6.572,6.572,0,0,1,9.906,8.517a13.63,13.63,0,0,1,.168,2.155c0,3.111-1.024,5.811-2.49,6.566ZM4.543,6.257a.243.243,0,0,0-.172.408,3.273,3.273,0,0,0,2.447.773,3.359,3.359,0,0,0,2.446-.773.257.257,0,0,0,0-.343.258.258,0,0,0-.343,0,2.87,2.87,0,0,1-2.1.6,3.1,3.1,0,0,1-2.1-.6A.241.241,0,0,0,4.543,6.257ZM9.171,2.685a.988.988,0,0,0,0,1.976,1,1,0,0,0,.987-.987A.978.978,0,0,0,9.171,2.685Zm-4.646,0a.988.988,0,1,0,.987.989A.978.978,0,0,0,4.526,2.685Z" transform="translate(0.784 3.708)" fill="#879dbb"/>
    <g id="g64_1_" transform="translate(7.389 0.231)">
      <g id="path66_1_">
        <path id="Path_480" data-name="Path 480" d="M-250.857-409.08h-.086a.244.244,0,0,1-.172-.3l1.073-3.348a.287.287,0,0,1,.3-.172l2.919.687a.244.244,0,0,1,.172.3.244.244,0,0,1-.3.172l-2.7-.644-.987,3.176C-250.643-409.123-250.729-409.08-250.857-409.08Z" transform="translate(251.126 412.9)" fill="#879dbb"/>
      </g>
    </g>
    <g id="g68_1_" transform="translate(2.815 12.274)">
      <g id="path70_1_">
        <path id="Path_481" data-name="Path 481" d="M-247.341-364.1a2.668,2.668,0,0,1,2.361,2.876,2.668,2.668,0,0,1-2.361,2.876,2.668,2.668,0,0,1-2.361-2.876,2.585,2.585,0,0,1,2.361-2.876" transform="translate(249.703 364.1)" fill="#879dbb"/>
      </g>
    </g>
    <g id="g72_1_" transform="translate(2.558 12.016)">
      <g id="path74_1_" transform="translate(0 0)">
        <path id="Path_482" data-name="Path 482" d="M-247.682-358.519a2.9,2.9,0,0,1-2.618-3.09,2.869,2.869,0,0,1,2.618-3.09,2.9,2.9,0,0,1,2.618,3.09A2.9,2.9,0,0,1-247.682-358.519Zm0-5.709a2.428,2.428,0,0,0-2.146,2.618,2.4,2.4,0,0,0,2.146,2.618,2.428,2.428,0,0,0,2.146-2.618A2.428,2.428,0,0,0-247.682-364.228Z" transform="translate(250.3 364.7)" fill="#879dbb"/>
      </g>
    </g>
    <g id="g76_1_" transform="translate(11.664 0.215)">
      <g id="path78_1_">
        <path id="Path_483" data-name="Path 483" d="M-243.182-411.341a1.154,1.154,0,0,1-1.159,1.159,1.154,1.154,0,0,1-1.159-1.159,1.154,1.154,0,0,1,1.159-1.159,1.154,1.154,0,0,1,1.159,1.159" transform="translate(245.5 412.5)" fill="#879dbb"/>
      </g>
    </g>
    <g id="g80_1_" transform="translate(11.45 0)">
      <g id="path82_1_">
        <path id="Path_484" data-name="Path 484" d="M-244.626-410.253A1.356,1.356,0,0,1-246-411.627,1.356,1.356,0,0,1-244.626-413a1.356,1.356,0,0,1,1.374,1.374A1.356,1.356,0,0,1-244.626-410.253Zm0-2.275a.88.88,0,0,0-.9.9.88.88,0,0,0,.9.9.88.88,0,0,0,.9-.9A.88.88,0,0,0-244.626-412.528Z" transform="translate(246 413)" fill="#879dbb"/>
      </g>
    </g>
    <g id="g88_1_" transform="translate(3.378 7.34)">
      <g id="path90_1_" transform="translate(0 0)">
        <path id="Path_486" data-name="Path 486" d="M-245.341-345.646h-1.717l-.043-.043c-1.545-.809-2.618-3.577-2.618-6.728,0-3.918,1.545-6.984,3.52-6.984s3.52,3.066,3.52,6.984c0,3.151-1.073,5.962-2.618,6.728Zm-1.588-.468h1.5c1.331-.724,2.318-3.364,2.318-6.3,0-3.534.957-5.5-4.391-5.508s-1.7,1.974-1.7,5.508C-249.247-349.521-248.3-346.881-246.929-346.114Z" transform="translate(250.417 359.4)" fill="#879dbb"/>
      </g>
    </g>
    <g id="g100_1_" transform="translate(5.653 20.733)">
      <g id="path102_1_">
        <path id="Path_489" data-name="Path 489" d="M-240.666-327.771h-3.52a.2.2,0,0,1-.215-.215.2.2,0,0,1,.215-.215h3.52a.2.2,0,0,1,.215.215A.2.2,0,0,1-240.666-327.771Z" transform="translate(244.4 328.2)" fill="#879dbb"/>
      </g>
    </g>
  </g>
</svg>
