<svg id="Group_1848" data-name="Group 1848" xmlns="http://www.w3.org/2000/svg" width="32.878" height="31.939" viewBox="0 0 32.878 31.939">
  <g id="Group_845" data-name="Group 845" transform="translate(0 0)">
    <g id="Rounded_Rectangle_3_copy" data-name="Rounded Rectangle 3 copy" fill="none" stroke="#879dbb" stroke-width="1">
      <rect width="32.878" height="31.939" stroke="none"/>
      <rect x="0.5" y="0.5" width="31.878" height="30.939" fill="none"/>
    </g>
  </g>
  <path id="Shape_1_" d="M2.049,2.8a.671.671,0,0,0-.225-.568L.225.291V0H5.248L9.121,8.512,12.531,0h4.785V.291L15.928,1.613A.43.43,0,0,0,15.769,2v9.742a.4.4,0,0,0,.159.383l1.348,1.322v.291H10.5v-.291l1.4-1.348c.132-.132.132-.172.132-.383V3.833L8.142,13.707H7.614L3.093,3.833v6.622a.885.885,0,0,0,.251.753L5.155,13.43v.291H0V13.43l1.824-2.207a.889.889,0,0,0,.238-.753V2.8Z" transform="translate(8.077 8.811)" fill="#879dbb"/>
</svg>
