<svg xmlns="http://www.w3.org/2000/svg" width="1104.348" height="1064.181" viewBox="0 0 1104.348 1064.181">
  <g id="Group_3076" data-name="Group 3076" transform="translate(-169.332 -375.954)">
    <g id="Group_3075" data-name="Group 3075">
      <path id="Path_4027" data-name="Path 4027" d="M886.7,335.221l9.347-5.352V311.4l-9.347,5.352Z" transform="translate(-60.791 268.774)" fill="none" stroke="#8bc4ff" stroke-miterlimit="10" stroke-width="4.764"/>
      <g id="Group_2990" data-name="Group 2990" transform="translate(710.724 468.306)">
        <path id="Path_4028" data-name="Path 4028" d="M915.421,292.281V211.923l-1.809-1.055L831.068,163l-82.845,47.868-1.809,1.055v80.358L733.9,299.517l97.243,56.16,96.791-56.16ZM832.877,261.9l77.342-44.928,1.583-.9v82.393l-78.925,45.832Zm-81.111-48.923,79.3-45.832,78.925,45.832-78.925,45.832-54.426-31.434Zm23.519,17.715L829.334,261.9v82.393l-79.3-45.832v-4.146l.151-.075-.151-.3V216.145Zm55.783,120.913-90.006-52.014,5.352-3.091v4.071l82.845,47.868v2.111l1.809-1.055,1.809,1.055V348.44l82.544-47.868V296.5l5.352,3.091Z" transform="translate(-733.9 -163)" fill="#8bc4ff"/>
      </g>
      <rect id="Rectangle_1572" data-name="Rectangle 1572" width="156.494" height="28.495" transform="translate(734.997 434.686)" fill="none"/>
      <text id="New_HUB" data-name="New HUB" transform="translate(764.219 431.034)" font-size="20" font-family="TimesNewRomanPSMT, Times New Roman"><tspan x="0" y="0">New HUB</tspan></text>
      <path id="Path_4039" data-name="Path 4039" d="M221.134,1285.6H76.159L49.7,1314.628v38.294H202.6l18.535-36.108Zm-143.014,3.543H216.083L200.714,1314.4H54.751ZM53.243,1349.3v-31.133H199.885V1349.3Zm164.272-33.7-14.087,30V1316.89l14.087-23.374Z" transform="translate(145.259 31.656)" fill="#fba98f"/>
      <path id="Path_4096" data-name="Path 4096" d="M171.134,1285.6H76.159L49.7,1314.628v38.294H152.6l18.535-36.108Zm-93.014,3.543h87.964L150.714,1314.4H54.751ZM53.243,1349.3v-31.133h96.642V1349.3Zm114.272-33.7-14.087,30V1316.89l14.087-23.374Z" transform="translate(564.259 31.656)" fill="#fba98f"/>
      <path id="Path_4097" data-name="Path 4097" d="M171.134,1285.6H76.159L49.7,1314.628v38.294H152.6l18.535-36.108Zm-93.014,3.543h87.964L150.714,1314.4H54.751ZM53.243,1349.3v-31.133h96.642V1349.3Zm114.272-33.7-14.087,30V1316.89l14.087-23.374Z" transform="translate(797.259 31.656)" fill="#fba98f"/>
      <path id="Path_4100" data-name="Path 4100" d="M171.134,1285.6H76.159L49.7,1314.628v38.294H152.6l18.535-36.108Zm-93.014,3.543h87.964L150.714,1314.4H54.751ZM53.243,1349.3v-31.133h96.642V1349.3Zm114.272-33.7-14.087,30V1316.89l14.087-23.374Z" transform="translate(693.259 -338.344)" fill="#86feb9"/>
      <path id="Path_4101" data-name="Path 4101" d="M171.134,1285.6H76.159L49.7,1314.628v38.294H152.6l18.535-36.108Zm-93.014,3.543h87.964L150.714,1314.4H54.751ZM53.243,1349.3v-31.133h96.642V1349.3Zm114.272-33.7-14.087,30V1316.89l14.087-23.374Z" transform="translate(1006.259 -337.344)" fill="#86feb9"/>
      <path id="Path_4095" data-name="Path 4095" d="M221.134,1285.6H42.159L15.7,1314.628v38.294H202.6l18.535-36.108Zm-177.014,3.543H216.083L200.714,1314.4H20.751ZM19.243,1349.3v-31.133H199.885V1349.3Zm198.272-33.7-14.087,30V1316.89l14.087-23.374Z" transform="translate(372.259 29.656)" fill="#fba98f"/>
      <g id="Group_3002" data-name="Group 3002" transform="translate(169.332 1111.694)">
        <g id="Group_3001" data-name="Group 3001">
          <g id="Group_3000" data-name="Group 3000">
            <line id="Line_51" data-name="Line 51" x1="3.844" transform="translate(1100.503)" fill="none" stroke="#848484" stroke-miterlimit="10" stroke-width="2"/>
            <line id="Line_52" data-name="Line 52" x1="1085.201" transform="translate(7.614)" fill="none" stroke="#848484" stroke-miterlimit="10" stroke-width="2" stroke-dasharray="10.133 10.133"/>
            <line id="Line_53" data-name="Line 53" x1="3.844" fill="none" stroke="#848484" stroke-miterlimit="10" stroke-width="2"/>
          </g>
        </g>
      </g>
      <g id="Group_3030" data-name="Group 3030" transform="translate(169.332 828.694)">
        <g id="Group_3001-2" data-name="Group 3001">
          <g id="Group_3000-2" data-name="Group 3000">
            <line id="Line_51-2" data-name="Line 51" x1="3.844" transform="translate(1100.503)" fill="none" stroke="#848484" stroke-miterlimit="10" stroke-width="2"/>
            <line id="Line_52-2" data-name="Line 52" x1="1085.201" transform="translate(7.614)" fill="none" stroke="#848484" stroke-miterlimit="10" stroke-width="2" stroke-dasharray="10.133 10.133"/>
            <line id="Line_53-2" data-name="Line 53" x1="3.844" fill="none" stroke="#848484" stroke-miterlimit="10" stroke-width="2"/>
          </g>
        </g>
      </g>
      <path id="SVGID_x5F_1_x5F_" d="M168.9,1256.94V1199.8H375.071v57.14" transform="translate(115.914 50.07)" fill="none"/>
      <path id="Path_4048" data-name="Path 4048" d="M687.8,1198.4v68.2h2.035v-66.16H924.971v66.16h2.035v-68.2Z" transform="translate(-19.458 50.415)" fill="#4f4f4f"/>
      <path id="Path_4049" data-name="Path 4049" d="M312.224,602.786,302.5,585.9l-9.8,16.886h8.744V1048.6h2.035V602.786Z" transform="translate(85.438 201.198)" fill="#4f4f4f"/>
      <path id="Path_4074" data-name="Path 4074" d="M913.9,321.621l9.347-5.352V297.8l-9.347,5.352Z" transform="translate(-67.487 272.122)" fill="none" stroke="#8bc4ff" stroke-miterlimit="10" stroke-width="4.764"/>
      <path id="Path_4075" data-name="Path 4075" d="M941.2,308.021l9.272-5.352V284.2l-9.272,5.352Z" transform="translate(-74.208 275.47)" fill="none" stroke="#8bc4ff" stroke-miterlimit="10" stroke-width="4.764"/>
      <path id="Path_4076" data-name="Path 4076" d="M838.172,335.221l-9.272-5.352V311.4l9.272,5.352Z" transform="translate(-46.562 268.774)" fill="none" stroke="#8bc4ff" stroke-miterlimit="10" stroke-width="4.764"/>
      <path id="Path_4077" data-name="Path 4077" d="M810.972,321.621l-9.272-5.352V297.8l9.272,5.352Z" transform="translate(-39.866 272.122)" fill="none" stroke="#8bc4ff" stroke-miterlimit="10" stroke-width="4.764"/>
      <path id="Path_4078" data-name="Path 4078" d="M783.747,308.021l-9.347-5.352V284.2l9.347,5.352Z" transform="translate(-33.146 275.47)" fill="none" stroke="#8bc4ff" stroke-miterlimit="10" stroke-width="4.764"/>
      <path id="Path_4079" data-name="Path 4079" d="M552.642,1378.5v53.521H136.08v-36.485h8.669l-9.724-16.886-9.724,16.886h8.669v38.52H554.678V1378.5Z" transform="translate(126.648 6.078)" fill="#4f4f4f"/>
      <path id="Path_4080" data-name="Path 4080" d="M595.44,1378.628v39.726H391.38v-23.369h8.744l-9.8-16.886-9.724,16.886h8.744v25.4H597.55v-41.762Z" transform="translate(63.799 6.177)" fill="#4f4f4f"/>
      <path id="Path_4081" data-name="Path 4081" d="M870.249,466.686,860.524,449.8,850.8,466.686h8.669V712.432h2.111V466.686Z" transform="translate(-51.954 234.703)" fill="#4f4f4f"/>
      <path id="Path_4082" data-name="Path 4082" d="M870.249,918.686,860.524,901.8,850.8,918.686h8.669v208.281h2.111V918.686Z" transform="translate(-51.954 123.431)" fill="#4f4f4f"/>
      <path id="Path_4083" data-name="Path 4083" d="M1119.273,465.456,964.88,398.441l3.769-8.141L949.2,391.958l11.157,15.981,3.618-7.689,154.469,67.09Z" transform="translate(-76.177 249.35)" fill="#4f4f4f"/>
      <path id="Path_4084" data-name="Path 4084" d="M1278.324,1171.161l-9.8-16.961-9.724,16.961h8.669v83.8h2.111v-83.8Z" transform="translate(-159.394 60.296)" fill="#4f4f4f"/>
      <path id="Path_4085" data-name="Path 4085" d="M1278.324,918.986l-9.8-16.886-9.724,16.886h8.669v94.6h2.111v-94.6Z" transform="translate(-162.394 122.357)" fill="#4f4f4f"/>
      <path id="Path_4086" data-name="Path 4086" d="M1278.324,585.586l-9.8-16.886-9.724,16.886h8.669V741.7h2.111V585.586Z" transform="translate(-152.394 205.432)" fill="#4f4f4f"/>
      <path id="Path_4087" data-name="Path 4087" d="M1210.45,1395.586l-9.724-16.886-9.8,16.886h8.744V1418.5H995.535v-39.726H993.5v41.762h208.206v-24.952Z" transform="translate(-87.083 6.029)" fill="#4f4f4f"/>
      <text id="Monet_D" data-name="Monet D" transform="translate(796.636 999.816)" font-size="17" font-family="TimesNewRomanPSMT, Times New Roman"><tspan x="-30.456" y="0">Monet D</tspan></text>
      <text id="Monet_wallet" data-name="Monet wallet" transform="translate(1104.471 755.038)" font-size="17" font-family="TimesNewRomanPSMT, Times New Roman"><tspan x="-45.086" y="0">Monet wallet</tspan></text>
      <text id="Monet_CLI" data-name="Monet CLI" transform="translate(1108.822 1002.57)" font-size="17" font-family="TimesNewRomanPSMT, Times New Roman"><tspan x="-38.009" y="0">Monet CLI</tspan></text>
      <text id="EVM_Lite_CLI" data-name="EVM Lite CLI" transform="translate(1105.132 1189.57)" font-size="17" font-family="TimesNewRomanPSMT, Times New Roman"><tspan x="-50.519" y="0">EVM Lite CLI</tspan></text>
      <text id="Java_Script_Library" data-name="Java Script Library" transform="translate(1106.67 1368.258)" font-size="17" font-family="TimesNewRomanPSMT, Times New Roman"><tspan x="-65.145" y="0">Java Script Library</tspan></text>
      <text id="EVM_Lite" data-name="EVM Lite" transform="translate(900.381 1371.812)" font-size="17" font-family="TimesNewRomanPSMT, Times New Roman"><tspan x="-34.701" y="0">EVM Lite</tspan></text>
      <text id="Babble" transform="translate(667.718 1371.812)" font-size="17" font-family="TimesNewRomanPSMT, Times New Roman"><tspan x="-24.076" y="0">Babble</tspan></text>
      <text id="Babble_Android_Library" data-name="Babble Android Library" transform="translate(482.029 1368.55)" font-size="17" font-family="TimesNewRomanPSMT, Times New Roman"><tspan x="-81.676" y="0">Babble Android Library</tspan></text>
      <text id="Babble_iOS_Library" data-name="Babble iOS Library" transform="translate(272.338 1370.55)" font-size="16" font-family="TimesNewRomanPSMT, Times New Roman"><tspan x="-63.098" y="0">Babble iOS Library</tspan></text>
      <path id="Path_4088" data-name="Path 4088" d="M168.8,1198.4l-.367,68.471h2.035l.367-66.436H374.971v65.16h2.035v-67.2Z" transform="translate(115.939 50.415)" fill="#4f4f4f"/>
      <path id="Path_4098" data-name="Path 4098" d="M221.134,1285.6H42.159L15.7,1314.628v38.294H202.6l18.535-36.108Zm-177.014,3.543H216.083L200.714,1314.4H20.751ZM19.243,1349.3v-31.133H199.885V1349.3Zm198.272-33.7-14.087,30V1316.89l14.087-23.374Z" transform="translate(990.259 29.656)" fill="#fba98f"/>
      <path id="Path_4099" data-name="Path 4099" d="M221.134,1285.6H76.159L49.7,1314.628v38.294H202.6l18.535-36.108Zm-143.014,3.543H216.083L200.714,1314.4H54.751ZM53.243,1349.3v-31.133H199.885V1349.3Zm164.272-33.7-14.087,30V1316.89l14.087-23.374Z" transform="translate(974.259 -149.344)" fill="#fba98f"/>
      <path id="Path_4102" data-name="Path 4102" d="M221.134,1285.6H76.159L49.7,1314.628v38.294H202.6l18.535-36.108Zm-143.014,3.543H216.083L200.714,1314.4H54.751ZM53.243,1349.3v-31.133H199.885V1349.3Zm164.272-33.7-14.087,30V1316.89l14.087-23.374Z" transform="translate(974.259 -583.344)" fill="#8bc4ff"/>
      <g id="Path_4103" data-name="Path 4103" transform="translate(723.388 421.034)" fill="none" stroke-dasharray="5 6">
        <path d="M0,0,86.055,42.2l-1.5,104.953L0,98.62Z" stroke="none"/>
        <path d="M 9.876258850097656 4.843505859375 L 12.18989562988281 5.978164672851562 C 12.19236755371094 5.9793701171875 12.19483947753906 5.980575561523438 12.19730377197266 5.981781005859375 L 12.20058441162109 5.9833984375 C 13.29569244384766 6.520462036132812 14.36545562744141 7.04510498046875 14.36545562744141 7.04510498046875 L 12.82434844970703 10.18753051757812 L 8.335128784179688 7.985946655273438 L 9.876258850097656 4.843490600585938 Z M 19.75252532958984 9.68701171875 C 19.75252532958984 9.68701171875 21.15216064453125 10.37342834472656 22.38835906982422 10.97967529296875 L 22.39056396484375 10.98075866699219 C 22.39461517333984 10.98274230957031 22.39867401123047 10.9847412109375 22.4027214050293 10.98672485351562 L 22.40295028686523 10.98683166503906 C 22.40497589111328 10.98782348632812 22.40674209594727 10.98869323730469 22.40876770019531 10.98968505859375 L 22.41818618774414 10.99430847167969 C 22.41886138916016 10.99464416503906 22.41974639892578 10.99507141113281 22.4204216003418 10.99540710449219 L 22.43001174926758 11.00010681152344 C 22.43122482299805 11.00070190429688 22.43246841430664 11.00131225585938 22.43367767333984 11.00190734863281 L 22.4375114440918 11.0037841796875 C 22.43805313110352 11.00404357910156 22.43880844116211 11.00442504882812 22.43934631347656 11.00468444824219 L 22.44311904907227 11.00653076171875 C 22.44675445556641 11.00831604003906 22.45072555541992 11.01026916503906 22.4543571472168 11.01203918457031 L 22.45463562011719 11.01219177246094 C 22.4579963684082 11.01383972167969 22.46122360229492 11.01541137695312 22.46458053588867 11.01705932617188 L 22.47584533691406 11.0225830078125 C 22.4769172668457 11.02311706542969 22.47795104980469 11.02362060546875 22.47902679443359 11.02413940429688 L 22.48064422607422 11.02493286132812 C 22.4842643737793 11.02671813964844 22.48786163330078 11.02847290039062 22.49148178100586 11.03025817871094 L 22.49441146850586 11.03169250488281 C 22.50231552124023 11.03556823730469 22.51016616821289 11.03941345214844 22.51805114746094 11.04328918457031 L 22.5196418762207 11.0440673828125 C 22.53046798706055 11.04937744140625 22.54125213623047 11.05465698242188 22.55204010009766 11.05995178222656 L 22.56129837036133 11.06449890136719 C 22.56422424316406 11.06593322753906 22.56707382202148 11.06732177734375 22.56999969482422 11.06875610351562 L 22.57027435302734 11.06889343261719 C 22.57851791381836 11.07293701171875 22.5864372253418 11.07682800292969 22.59465789794922 11.08085632324219 L 22.59965515136719 11.08329772949219 C 22.6023063659668 11.08460998535156 22.60477447509766 11.0858154296875 22.607421875 11.08711242675781 L 22.62778472900391 11.09710693359375 C 22.62963485717773 11.09800720214844 22.63131332397461 11.09883117675781 22.63316345214844 11.0997314453125 L 22.63383483886719 11.10006713867188 C 22.63581466674805 11.10104370117188 22.63748168945312 11.10185241699219 22.63945770263672 11.10282897949219 L 22.65185546875 11.10890197753906 C 22.6536979675293 11.10980224609375 22.65547943115234 11.11068725585938 22.65732192993164 11.11158752441406 L 22.66109085083008 11.11343383789062 C 22.66345977783203 11.11459350585938 22.66574478149414 11.11572265625 22.66810989379883 11.11688232421875 L 22.68707275390625 11.12617492675781 C 22.68720626831055 11.12623596191406 22.68734741210938 11.12631225585938 22.68748092651367 11.12637329101562 L 22.70087051391602 11.13294982910156 C 22.70204925537109 11.13351440429688 22.70298004150391 11.13397216796875 22.70415496826172 11.13455200195312 L 22.70844650268555 11.13665771484375 C 22.71014785766602 11.13749694824219 22.71207809448242 11.13844299316406 22.71377563476562 11.13926696777344 L 22.73044204711914 11.14744567871094 C 22.73083114624023 11.14762878417969 22.73118591308594 11.14781188964844 22.73157501220703 11.14799499511719 L 22.74044036865234 11.15234375 C 22.74200057983398 11.15310668945312 22.7432975769043 11.15374755859375 22.74485778808594 11.15451049804688 L 22.74992370605469 11.15699768066406 C 22.7513542175293 11.15769958496094 22.75272750854492 11.15837097167969 22.75415420532227 11.15907287597656 L 22.75938034057617 11.16163635253906 C 22.76106643676758 11.16246032714844 22.76283645629883 11.163330078125 22.76452255249023 11.16415405273438 L 22.76685333251953 11.16529846191406 C 22.76789093017578 11.16581726074219 22.76875305175781 11.16622924804688 22.7697868347168 11.166748046875 L 24.24171829223633 11.88861083984375 L 22.70061111450195 15.03106689453125 L 18.21139526367188 12.82945251464844 L 19.75252532958984 9.68701171875 Z M 29.62876129150391 14.530517578125 C 29.62876129150391 14.530517578125 29.81939315795898 14.62400817871094 30.12220764160156 14.77250671386719 L 30.12438201904297 14.77357482910156 C 30.14144897460938 14.78195190429688 30.15890884399414 14.79051208496094 30.17667007446289 14.79922485351562 L 30.18545150756836 14.80352783203125 C 30.1859245300293 14.80375671386719 30.18636703491211 14.80397033691406 30.18683624267578 14.80419921875 L 34.11797332763672 16.73211669921875 L 32.57686996459961 19.87455749511719 L 28.08765411376953 17.6729736328125 L 29.62876129150391 14.530517578125 Z M 39.50502014160156 19.3740234375 L 43.66202545166016 21.41269683837891 C 43.66217803955078 21.41277313232422 43.66241455078125 21.41289520263672 43.66256713867188 21.4129638671875 L 43.68774032592773 21.42530822753906 C 43.68891525268555 21.42588806152344 43.68993759155273 21.4263916015625 43.69110870361328 21.42696380615234 L 43.70755004882812 21.43502807617188 C 43.70897674560547 21.43572998046875 43.71038055419922 21.43641662597656 43.71179962158203 21.43711090087891 L 43.71613693237305 21.43923950195312 C 43.71740341186523 21.43985748291016 43.71868896484375 21.44049072265625 43.71995162963867 21.44110870361328 L 43.72037124633789 21.44131469726562 C 43.72226333618164 21.44224548339844 43.72415542602539 21.44316864013672 43.72602844238281 21.444091796875 L 43.72793579101562 21.44502258300781 C 43.7319450378418 21.44699096679688 43.73587799072266 21.44892120361328 43.73981094360352 21.45085144042969 L 43.74032211303711 21.45109558105469 C 43.74235534667969 21.45209503173828 43.74447250366211 21.45313262939453 43.74648284912109 21.45411682128906 L 43.74649047851562 21.45412445068359 C 43.74816513061523 21.45494079589844 43.74985504150391 21.45577239990234 43.75151824951172 21.45658874511719 L 43.75679016113281 21.45917510986328 C 43.75725173950195 21.45940399169922 43.75773239135742 21.45963287353516 43.7581901550293 21.45986175537109 L 43.75997161865234 21.46073150634766 C 43.76160430908203 21.46153259277344 43.76327896118164 21.46235656738281 43.76489639282227 21.46315002441406 L 43.76593399047852 21.46366119384766 C 43.76767730712891 21.46451568603516 43.76949310302734 21.46540069580078 43.77121734619141 21.46624755859375 L 43.77216720581055 21.46671295166016 C 43.77273941040039 21.46699523925781 43.77327346801758 21.46725463867188 43.77384567260742 21.46753692626953 L 43.77921676635742 21.47017669677734 C 43.78242492675781 21.47174835205078 43.78559494018555 21.47330474853516 43.78874206542969 21.47484588623047 L 43.79080200195312 21.47585296630859 C 43.79227828979492 21.47657775878906 43.79379653930664 21.47732543945312 43.79525756835938 21.47804260253906 L 43.79631423950195 21.47855377197266 C 43.79703903198242 21.47891235351562 43.79764938354492 21.47920989990234 43.79837417602539 21.47956848144531 L 43.79874420166016 21.47975158691406 C 43.79910278320312 21.47992706298828 43.79959106445312 21.48016357421875 43.79994964599609 21.48033905029297 L 43.80447387695312 21.48255920410156 C 43.80536651611328 21.48299407958984 43.80613708496094 21.48337554931641 43.80702590942383 21.48381042480469 L 43.80708694458008 21.48384094238281 C 43.81270599365234 21.48659515380859 43.8182487487793 21.48931121826172 43.82363510131836 21.49195861816406 L 43.8238639831543 21.49207305908203 C 43.93260955810547 21.54540252685547 43.99423980712891 21.57562255859375 43.99423980712891 21.57562255859375 L 42.45310974121094 24.71806335449219 L 37.96391296386719 22.51647186279297 L 39.50502395629883 19.37401580810547 Z M 49.38128280639648 24.21753692626953 C 49.38128280639648 24.21753692626953 53.87047958374023 26.41912841796875 53.87047958374023 26.41912841796875 L 52.32937240600586 29.56158447265625 L 47.84017562866211 27.35997009277344 L 49.38128280639648 24.21753692626953 Z M 59.25754165649414 29.06104278564453 L 60.95767211914062 29.89482116699219 C 60.95833587646484 29.89514923095703 60.95897674560547 29.89546203613281 60.95964050292969 29.89579010009766 L 60.96182250976562 29.89685821533203 C 60.96302795410156 29.89744567871094 60.96429443359375 29.8980712890625 60.96549224853516 29.89865875244141 L 60.98832702636719 29.90985870361328 C 62.25261306762695 30.52989196777344 63.74674224853516 31.26264953613281 63.74674224853516 31.26264953613281 L 62.20563125610352 34.40508270263672 L 57.71641540527344 32.2034912109375 L 59.25754547119141 29.06103515625 Z M 69.13378143310547 33.90455627441406 C 69.13378143310547 33.90455627441406 73.62300109863281 36.10614776611328 73.62300109863281 36.10614776611328 L 72.08189392089844 39.24858093261719 L 67.59267425537109 37.0469970703125 L 69.13378143310547 33.90455627441406 Z M 79.01004791259766 38.74806213378906 C 79.01004791259766 38.74806213378906 79.63966369628906 39.05683898925781 80.42716979980469 39.44303894042969 L 80.44445037841797 39.45151519775391 C 80.44715118408203 39.45284271240234 80.44990539550781 39.45419311523438 80.45261383056641 39.45552062988281 L 80.45784759521484 39.45808410644531 C 80.45823669433594 39.45827484130859 80.45880126953125 39.45855712890625 80.45919036865234 39.45874786376953 L 83.49925994873047 40.94965362548828 L 81.9581298828125 44.09210205078125 L 77.46893310546875 41.89049530029297 L 79.01004791259766 38.74806213378906 Z M 82.51043701171875 45.30599212646484 L 86.01006317138672 45.35605621337891 C 86.01006317138672 45.35605621337891 85.93854522705078 50.35556030273438 85.93854522705078 50.35556030273438 L 82.43891143798828 50.30549621582031 L 82.51043701171875 45.30599212646484 Z M 82.35308837890625 56.30486297607422 L 85.85271453857422 56.35492706298828 C 85.85271453857422 56.35492706298828 85.78119659423828 61.35443115234375 85.78119659423828 61.35443115234375 L 82.28154754638672 61.30436706542969 L 82.35308837890625 56.30486297607422 Z M 82.19571685791016 67.30375671386719 L 85.69537353515625 67.35382080078125 L 85.62384796142578 72.35330200195312 L 82.12419891357422 72.30323028564453 L 82.19571685791016 67.30375671386719 Z M 82.03836822509766 78.30262756347656 L 85.53802490234375 78.35269165039062 L 85.46649932861328 83.3521728515625 L 81.96685028076172 83.30210876464844 L 82.03836822509766 78.30262756347656 Z M 81.88101959228516 89.30149841308594 L 85.38067626953125 89.3515625 L 85.30915069580078 94.35105895996094 L 81.80950164794922 94.30099487304688 L 81.88101959228516 89.30149841308594 Z M 81.72367858886719 100.3003692626953 L 85.22332763671875 100.3504333496094 L 85.15180206298828 105.3499298095703 L 81.65215301513672 105.2998657226562 L 81.72367858886719 100.3003692626953 Z M 81.56632995605469 111.2992553710938 L 85.06597900390625 111.3493194580078 L 84.99444580078125 116.3488006591797 L 81.49480438232422 116.2987365722656 L 81.56632995605469 111.2992553710938 Z M 81.40898132324219 122.2981262207031 L 84.90863037109375 122.3481903076172 L 84.83709716796875 127.3476715087891 L 81.33745574951172 127.297607421875 L 81.40898132324219 122.2981262207031 Z M 81.25163269042969 133.2969970703125 L 84.75125885009766 133.3470611572266 C 84.75125885009766 133.3470611572266 84.67974090576172 138.3465576171875 84.67974090576172 138.3465576171875 L 81.18010711669922 138.2964782714844 L 81.25163269042969 133.2969970703125 Z M 84.39734649658203 143.0308380126953 L 84.61098480224609 143.1534729003906 L 84.55371856689453 147.15625 L 84.55371856689453 147.15625 C 84.55371856689453 147.15625 84.55371856689453 147.15625 84.55371856689453 147.15625 L 84.55371856689453 147.15625 L 84.55371856689453 147.15625 L 84.55371856689453 147.15625 C 84.55371856689453 147.15625 84.55371856689453 147.15625 84.55371856689453 147.15625 L 84.55371856689453 147.15625 L 81.08187103271484 145.1633148193359 L 81.09428405761719 144.2958679199219 L 83.65019989013672 144.3324279785156 L 84.39734649658203 143.0308380126953 Z M 74.85736846923828 137.5546417236328 L 79.19371795654297 140.0438232421875 L 77.45130920410156 143.0792846679688 C 77.45130920410156 143.0792846679688 73.11493682861328 140.590087890625 73.11493682861328 140.590087890625 L 74.85736846923828 137.5546417236328 Z M 65.31739044189453 132.0784301757812 L 69.65373992919922 134.567626953125 L 67.91133117675781 137.6030578613281 C 67.91133117675781 137.6030578613281 66.67858123779297 136.8954315185547 65.52759552001953 136.2347412109375 L 65.52680206298828 136.2342834472656 C 65.52455902099609 136.2330017089844 65.52236175537109 136.2317352294922 65.52011871337891 136.2304534912109 L 63.57495880126953 135.1138763427734 L 65.31739044189453 132.0784301757812 Z M 55.77741241455078 126.6022338867188 L 60.11378479003906 129.0914001464844 L 58.3713493347168 132.1268615722656 C 58.3713493347168 132.1268615722656 58.3713493347168 132.1268615722656 58.3713493347168 132.1268615722656 L 58.37130737304688 132.1268463134766 C 58.37129974365234 132.1268310546875 58.37129211425781 132.1268310546875 58.37128067016602 132.1268310546875 L 58.37125778198242 132.1268157958984 C 58.34861755371094 132.1138153076172 54.03499984741211 129.6376647949219 54.03499984741211 129.6376647949219 L 55.77741241455078 126.6022338867188 Z M 46.23743438720703 121.1260147094727 L 50.57380676269531 123.6152114868164 L 48.83137130737305 126.6506500244141 C 48.83137130737305 126.6506500244141 44.49502182006836 124.1614685058594 44.49502182006836 124.1614685058594 L 46.23743438720703 121.1260147094727 Z M 36.69745635986328 115.6498184204102 L 41.03382873535156 118.1389923095703 L 39.2913932800293 121.1744537353516 L 39.29126358032227 121.1743774414062 C 39.29125213623047 121.1743698120117 39.29123687744141 121.1743621826172 39.29122543334961 121.1743545532227 L 39.29117202758789 121.1743240356445 C 39.29104995727539 121.1742553710938 39.29087829589844 121.1741561889648 39.2906494140625 121.1740264892578 L 39.29054641723633 121.1739654541016 C 39.2900390625 121.1736755371094 39.28931045532227 121.1732559204102 39.28834915161133 121.1726989746094 L 39.28810501098633 121.1725616455078 C 39.28607559204102 121.1714019775391 39.28310775756836 121.1696929931641 39.27924346923828 121.16748046875 L 39.27871704101562 121.1671752929688 C 39.27051544189453 121.162467956543 39.25845718383789 121.1555480957031 39.24273300170898 121.1465148925781 L 39.2426643371582 121.1464767456055 C 38.76625823974609 120.8730087280273 34.95504379272461 118.6852569580078 34.95504379272461 118.6852569580078 L 36.69745635986328 115.6498184204102 Z M 27.15747833251953 110.1735992431641 L 31.49384689331055 112.6627960205078 L 29.75141525268555 115.6982345581055 C 29.75141525268555 115.6982345581055 25.41506576538086 113.2090606689453 25.41506576538086 113.2090606689453 L 27.15747833251953 110.1735992431641 Z M 17.61750030517578 104.6974029541016 L 21.95387268066406 107.1865844726562 L 20.21143341064453 110.222038269043 L 20.20730590820312 110.2196655273438 C 20.20711517333984 110.2195587158203 20.2069091796875 110.2194366455078 20.20670318603516 110.2193145751953 L 20.20635223388672 110.2191162109375 C 20.20629119873047 110.2190856933594 20.20621490478516 110.2190399169922 20.20614624023438 110.2190017700195 L 20.20594024658203 110.2188873291016 C 20.20584869384766 110.2188339233398 20.20578765869141 110.2187957763672 20.20569610595703 110.2187423706055 L 20.20298004150391 110.2171783447266 C 20.20287322998047 110.2171173095703 20.20278167724609 110.2170715332031 20.20267486572266 110.2170104980469 L 20.20240783691406 110.2168579101562 C 20.20233917236328 110.2168121337891 20.20223236083984 110.2167510986328 20.20216369628906 110.2167205810547 L 20.20159149169922 110.2163848876953 C 20.20133209228516 110.2162322998047 20.20107269287109 110.2160873413086 20.2008056640625 110.215934753418 L 20.19364929199219 110.2118301391602 C 20.19354248046875 110.2117614746094 20.19347381591797 110.2117309570312 20.193359375 110.2116622924805 L 20.19162750244141 110.2106704711914 C 20.19158935546875 110.2106475830078 20.19155120849609 110.2106246948242 20.19151306152344 110.2106018066406 L 20.19107055664062 110.2103500366211 C 20.19082641601562 110.210205078125 20.19059753417969 110.210075378418 20.19035339355469 110.2099304199219 L 20.18998718261719 110.2097244262695 C 20.18950653076172 110.2094421386719 20.18901062011719 110.2091674804688 20.18851470947266 110.2088775634766 L 20.18759155273438 110.2083435058594 C 20.18712615966797 110.2080841064453 20.18663787841797 110.2078018188477 20.1861572265625 110.2075271606445 L 20.18550109863281 110.2071533203125 C 20.18545532226562 110.2071228027344 20.18539428710938 110.2070922851562 20.18534851074219 110.2070617675781 L 20.18106842041016 110.2046051025391 C 20.18054962158203 110.2043075561523 20.18002319335938 110.2040100097656 20.17948913574219 110.2037048339844 L 20.1787109375 110.2032470703125 C 20.17842864990234 110.2030944824219 20.17818450927734 110.2029495239258 20.17790222167969 110.2027893066406 L 20.17769622802734 110.2026672363281 C 20.17730712890625 110.2024459838867 20.17695617675781 110.2022476196289 20.17655944824219 110.202018737793 L 20.17650604248047 110.2019882202148 C 20.17574310302734 110.201545715332 20.17501068115234 110.2011260986328 20.17421722412109 110.2006683349609 L 20.17366790771484 110.2003631591797 C 20.17290496826172 110.1999206542969 20.17214202880859 110.1994781494141 20.17134857177734 110.1990280151367 L 20.17120361328125 110.1989440917969 C 20.17041015625 110.198486328125 20.16960144042969 110.1980285644531 20.16878509521484 110.1975555419922 L 20.168212890625 110.1972198486328 C 20.16744995117188 110.1967926025391 20.16668701171875 110.1963500976562 20.16590118408203 110.1958999633789 L 20.16525268554688 110.1955261230469 C 20.16507720947266 110.195426940918 20.16489410400391 110.1953201293945 20.16471099853516 110.1952209472656 L 20.16110992431641 110.1931457519531 C 20.16069793701172 110.1929168701172 20.16030883789062 110.1926879882812 20.15989685058594 110.1924591064453 L 20.15956878662109 110.1922607421875 C 20.15867614746094 110.1917572021484 20.15772247314453 110.1912078857422 20.15680694580078 110.1906814575195 L 20.15626525878906 110.1903686523438 C 20.15431976318359 110.1892547607422 20.15223693847656 110.1880569458008 20.15019226074219 110.1868896484375 L 20.15011596679688 110.1868362426758 C 20.145751953125 110.1843338012695 20.14118194580078 110.1817092895508 20.13638305664062 110.178955078125 L 20.13591766357422 110.1786880493164 C 19.55934906005859 109.8477172851562 15.87509155273438 107.7328414916992 15.87509155273438 107.7328414916992 L 17.61750030517578 104.6974029541016 Z M 8.077522277832031 99.22119140625 L 12.41389465332031 101.7103881835938 L 10.67145538330078 104.7458190917969 C 10.67145538330078 104.7458190917969 6.335105895996094 102.2566452026367 6.335105895996094 102.2566452026367 L 8.077522277832031 99.22119140625 Z M 0 94.92477416992188 L 3.5 94.92477416992188 L 3.5 98.62012481689453 L 1.504310607910156 98.62012481689453 L 1.504310607910156 98.62012481689453 L 3.5 98.62012481689453 L 1.504310607910156 98.62012481689453 L 1.131477355957031 99.26962280273438 L 0.8297805786132812 99.09644317626953 C 0.8297805786132812 99.09644317626953 0.8297348022460938 99.09642028808594 0.8297348022460938 99.09642028808594 L 0.7564620971679688 99.05435180664062 C 0.7563323974609375 99.05427551269531 0.7562255859375 99.05421447753906 0.7560958862304688 99.05413818359375 L 0.7437667846679688 99.04706573486328 C 0.7436981201171875 99.04702758789062 0.7436599731445312 99.04700469970703 0.7435989379882812 99.04696655273438 L 0.7408599853515625 99.04539489746094 C 0.7405624389648438 99.04522705078125 0.7403030395507812 99.04507446289062 0.7400054931640625 99.04490661621094 L 0.7374267578125 99.04342651367188 C 0.737396240234375 99.04341125488281 0.7373199462890625 99.04336547851562 0.7372894287109375 99.04335021972656 L 0.7184295654296875 99.03251647949219 C 0.718292236328125 99.03244018554688 0.7181320190429688 99.0323486328125 0.7179946899414062 99.03227233886719 L 0.7136764526367188 99.02979278564453 C 0.7128753662109375 99.02932739257812 0.7120590209960938 99.02886962890625 0.7112503051757812 99.02840423583984 L 0.7085647583007812 99.02685546875 C 0.70849609375 99.02682495117188 0.7084121704101562 99.02677154541016 0.708343505859375 99.0267333984375 L 0.7064971923828125 99.02567291259766 C 0.7059555053710938 99.02536010742188 0.705413818359375 99.02505493164062 0.7048721313476562 99.02474212646484 L 0.7025604248046875 99.02341461181641 C 0.7021942138671875 99.02320098876953 0.7018890380859375 99.02302551269531 0.7015151977539062 99.02281188964844 L 0.6900711059570312 99.01625061035156 C 0.6894302368164062 99.01587677001953 0.6887664794921875 99.01549530029297 0.6881256103515625 99.01512145996094 L 0.6859893798828125 99.01390075683594 C 0.6859512329101562 99.01387786865234 0.6859283447265625 99.01386260986328 0.6858901977539062 99.01383972167969 L 0.6336822509765625 98.98387145996094 C 0.6336135864257812 98.98384094238281 0.6335678100585938 98.98381042480469 0.6334991455078125 98.9837646484375 L 0.60736083984375 98.96876525878906 C 0.6072616577148438 98.96870422363281 0.6071624755859375 98.96865081787109 0.6070556640625 98.96858978271484 L 0.5248794555664062 98.92141723632812 C 0.523468017578125 98.92060852050781 0.5220184326171875 98.91977691650391 0.5206069946289062 98.91896820068359 L 0.51861572265625 98.91782379150391 C 0.5176162719726562 98.91725158691406 0.5166244506835938 98.91667938232422 0.515625 98.91610717773438 L 0.5113067626953125 98.91362762451172 C 0.509796142578125 98.91275787353516 0.50830078125 98.91190338134766 0.5067901611328125 98.91103363037109 L 0.5052261352539062 98.91014099121094 C 0.504608154296875 98.90978240966797 0.5039825439453125 98.909423828125 0.5033645629882812 98.90907287597656 L 0.502532958984375 98.90859222412109 C 0.5018844604492188 98.90821838378906 0.5012741088867188 98.90786743164062 0.5006179809570312 98.90749359130859 L 0.49847412109375 98.90626525878906 C 0.4966888427734375 98.90523529052734 0.4948883056640625 98.90420532226562 0.4931106567382812 98.90318298339844 L 0.492889404296875 98.90306091308594 C 0.4910354614257812 98.90199279785156 0.4892196655273438 98.90094757080078 0.48736572265625 98.89988708496094 L 0.4855194091796875 98.89882659912109 C 0.481689453125 98.89662933349609 0.4778671264648438 98.89443206787109 0.4740447998046875 98.89224243164062 L 0.47265625 98.89144134521484 C 0.470947265625 98.89045715332031 0.46923828125 98.88948059082031 0.467529296875 98.88850402832031 L 0.4659500122070312 98.88758850097656 C 0.4652328491210938 98.88718414306641 0.4645309448242188 98.88677978515625 0.4638137817382812 98.88636779785156 L 0.4580307006835938 98.88304138183594 C 0.4567031860351562 98.88227844238281 0.4554367065429688 98.88156127929688 0.4541168212890625 98.88079833984375 L 0.4525604248046875 98.87990570068359 C 0.4507980346679688 98.87889099121094 0.4490432739257812 98.87788391113281 0.4472808837890625 98.87687683105469 L 0.4470977783203125 98.87677001953125 C 0.4430007934570312 98.87442016601562 0.4389114379882812 98.8720703125 0.4348373413085938 98.86973571777344 L 0.433502197265625 98.86897277832031 C 0.4255218505859375 98.8643798828125 0.4175796508789062 98.85982513427734 0.4096755981445312 98.85528564453125 L 0.4072189331054688 98.8538818359375 C 0.3993911743164062 98.84938049316406 0.3915634155273438 98.84489440917969 0.3838348388671875 98.8404541015625 L 0.3817672729492188 98.83926391601562 C 0.3800888061523438 98.83830261230469 0.3784561157226562 98.83737182617188 0.3767852783203125 98.83641052246094 L 0.3767547607421875 98.83639526367188 C 0.3750228881835938 98.83539581298828 0.3732986450195312 98.83441162109375 0.3715667724609375 98.83341217041016 L 0.36962890625 98.83230590820312 C 0.3689804077148438 98.83192443847656 0.3683242797851562 98.83155059814453 0.3676681518554688 98.8311767578125 L 0.3670272827148438 98.830810546875 C 0.3662796020507812 98.83038330078125 0.3656005859375 98.82998657226562 0.3648529052734375 98.82955932617188 L 0.3632049560546875 98.82861328125 C 0.3628463745117188 98.82840728759766 0.36248779296875 98.82820129394531 0.3621292114257812 98.8280029296875 L 0.3597335815429688 98.82662200927734 C 0.3596649169921875 98.82658386230469 0.3595809936523438 98.8265380859375 0.3595123291015625 98.82649230957031 L 0.3534469604492188 98.82301330566406 C 0.3533782958984375 98.82297515869141 0.3532867431640625 98.82292175292969 0.3532257080078125 98.82288360595703 L 0.3510208129882812 98.82162475585938 C 0.3493804931640625 98.8206787109375 0.3477554321289062 98.81974792480469 0.3461151123046875 98.81880187988281 L 0.3453369140625 98.818359375 C 0.341522216796875 98.816162109375 0.33770751953125 98.81398010253906 0.33392333984375 98.81180572509766 L 0.3327484130859375 98.81112670898438 C 0.3248977661132812 98.80662536621094 0.3171844482421875 98.80220031738281 0.3094863891601562 98.79777526855469 L 0.3088836669921875 98.79743194580078 C 0.2932205200195312 98.78843688964844 0.277862548828125 98.77962493896484 0.2629241943359375 98.77104949951172 L 0.2617568969726562 98.77037811279297 C 0.2469635009765625 98.76188659667969 0.232513427734375 98.75359344482422 0.2185745239257812 98.74559020996094 L 0.21783447265625 98.74516296386719 C 0.2038803100585938 98.73715209960938 0.190399169921875 98.72941589355469 0.1774368286132812 98.72197723388672 L 0.1758880615234375 98.72108459472656 C 0.1233139038085938 98.69091033935547 0.0794677734375 98.66574096679688 0.04871368408203125 98.64808654785156 L 0.04851531982421875 98.64797210693359 C 0.01763153076171875 98.6302490234375 0 98.62012481689453 0 98.62012481689453 L 0 98.62012481689453 L 0 98.62012481689453 L 0 98.62012481689453 L 0 98.62012481689453 L 0 98.62012481689453 L 0 98.62012481689453 L 0 98.62012481689453 L 0 98.62012481689453 L 0 98.62012481689453 L 0 98.62012481689453 L 0 98.62012481689453 L 0 98.62012481689453 L 0 98.62012481689453 L 0 94.92477416992188 Z M 0 83.92477416992188 L 3.5 83.92477416992188 L 3.5 88.92477416992188 L 0 88.92477416992188 L 0 83.92477416992188 Z M 0 72.92477416992188 L 3.5 72.92477416992188 L 3.5 77.92477416992188 L 0 77.92477416992188 L 0 72.92477416992188 Z M 0 61.92477416992188 L 3.5 61.92477416992188 L 3.5 66.92477416992188 L 0 66.92477416992188 L 0 61.92477416992188 Z M 0 50.92477416992188 L 3.5 50.92477416992188 L 3.5 55.92477416992188 L 0 55.92477416992188 L 0 50.92477416992188 Z M 0 39.92477416992188 L 3.5 39.92477416992188 L 3.5 44.92477416992188 L 0 44.92477416992188 L 0 39.92477416992188 Z M 0 28.92477416992188 L 3.5 28.92477416992188 L 3.5 33.92477416992188 L 0 33.92477416992188 L 0 28.92477416992188 Z M 0 17.92477416992188 L 3.5 17.92477416992188 L 3.5 22.92477416992188 L 0 22.92477416992188 L 0 17.92477416992188 Z M 0 6.924774169921875 L 3.5 6.924774169921875 L 3.5 11.92477416992188 L 0 11.92477416992188 L 0 6.924774169921875 Z M 0 0 L 4.489212036132812 2.20159912109375 L 2.948089599609375 5.344039916992188 L 0 3.898223876953125 L 0 0 Z" stroke="none" fill="#8bc4ff"/>
      </g>
      <g id="Path_4104" data-name="Path 4104" transform="translate(803.653 420.177)" fill="none" stroke-dasharray="5 6">
        <path d="M1.953,45.909,88.575.857,87,100.409,1.953,149.475Z" stroke="none"/>
        <path d="M 84.90139770507812 11.80052185058594 L 88.40096282958984 11.85603332519531 L 88.34091186523438 15.64064025878906 C 88.34090423583984 15.64129638671875 88.34088897705078 15.64215087890625 88.34088134765625 15.642822265625 L 88.3408203125 15.64668273925781 C 88.34069061279297 15.65464782714844 88.34056091308594 15.66261291503906 88.34043884277344 15.6705322265625 L 88.34043121337891 15.6708984375 C 88.34031677246094 15.67828369140625 88.34019470214844 15.68585205078125 88.34008026123047 15.69319152832031 L 88.33995056152344 15.70109558105469 C 88.329345703125 16.36976623535156 88.32164001464844 16.85540771484375 88.32164001464844 16.85540771484375 L 84.82207489013672 16.79991149902344 L 84.90139770507812 11.80052185058594 Z M 84.72689819335938 22.79914855957031 L 88.22646331787109 22.85466766357422 C 88.22646331787109 22.85466766357422 88.22267150878906 23.09368896484375 88.21675109863281 23.46712493896484 L 88.21672821044922 23.46833038330078 C 88.21662902832031 23.47459411621094 88.21652984619141 23.48094177246094 88.2164306640625 23.48728179931641 L 88.21640777587891 23.48845672607422 C 88.21620178222656 23.50177001953125 88.21598815917969 23.51519775390625 88.21576690673828 23.52883911132812 L 88.21576690673828 23.52900695800781 C 88.21566772460938 23.53528594970703 88.21556854248047 23.54137420654297 88.21546936035156 23.54772186279297 L 88.21540069580078 23.55192565917969 C 88.21535491943359 23.55477142333984 88.21531677246094 23.55744171142578 88.21527099609375 23.560302734375 L 88.21527099609375 23.56044006347656 C 88.21524047851562 23.56209564208984 88.21521759033203 23.56362915039062 88.21519470214844 23.56528472900391 L 88.21517181396484 23.56643676757812 C 88.21515655517578 23.56732177734375 88.21514892578125 23.56800842285156 88.21513366699219 23.56889343261719 L 88.21488952636719 23.584228515625 C 88.21488952636719 23.58434295654297 88.21488952636719 23.58435821533203 88.21488952636719 23.58446502685547 L 88.14715576171875 27.85403442382812 L 84.64759826660156 27.79851531982422 L 84.72689819335938 22.79914855957031 Z M 84.55242156982422 33.79775238037109 L 88.05198669433594 33.85327911376953 L 87.998046875 37.25247192382812 C 87.99803924560547 37.25333404541016 87.99802398681641 37.25402069091797 87.99800872802734 37.25487518310547 L 87.99763488769531 37.27857208251953 C 87.99760437011719 37.28057861328125 87.99757385253906 37.28244018554688 87.99754333496094 37.28443908691406 L 87.99753570556641 37.28511047363281 C 87.99751281738281 37.28653717041016 87.99748992919922 37.28766632080078 87.99746704101562 37.28909301757812 L 87.99730682373047 37.29935455322266 C 87.98357391357422 38.16471099853516 87.97265625 38.85264587402344 87.97265625 38.85264587402344 L 84.47309875488281 38.79712677001953 L 84.55242156982422 33.79775238037109 Z M 84.37792205810547 44.79636383056641 L 87.87748718261719 44.85188293457031 C 87.87748718261719 44.85188293457031 87.86725616455078 45.49684906005859 87.85414123535156 46.32350921630859 L 87.85408782958984 46.32681274414062 C 87.85404205322266 46.32976531982422 87.85399627685547 46.33285522460938 87.85394287109375 46.33580780029297 L 87.85386657714844 46.34071350097656 C 87.85382080078125 46.34395599365234 87.85376739501953 46.34722137451172 87.85371398925781 46.3504638671875 L 87.85366821289062 46.3531494140625 C 87.85361480712891 46.35696411132812 87.85355377197266 46.36064910888672 87.85349273681641 46.36447143554688 L 87.85346221923828 46.36622619628906 C 87.85340881347656 46.36975860595703 87.85335540771484 46.37326812744141 87.85329437255859 46.37681579589844 L 87.85321807861328 46.38193511962891 C 87.85319519042969 46.38307189941406 87.85317993164062 46.38427734375 87.85315704345703 46.38541412353516 L 87.85314178466797 46.38631439208984 C 87.85312652587891 46.38759613037109 87.85310363769531 46.3887939453125 87.85308837890625 46.39007568359375 L 87.85301971435547 46.39431762695312 C 87.85299682617188 46.39545440673828 87.85298156738281 46.39653015136719 87.85296630859375 46.39766693115234 L 87.79817199707031 49.85125732421875 L 84.29861450195312 49.79575347900391 L 84.37792205810547 44.79636383056641 Z M 84.20344543457031 55.79499053955078 L 87.70301055908203 55.85051727294922 L 87.65489196777344 58.88296508789062 C 87.65483093261719 58.88685607910156 87.65476226806641 58.89093780517578 87.65470123291016 58.89482116699219 L 87.65444946289062 58.91057586669922 C 87.65434265136719 58.91743469238281 87.65423583984375 58.92439270019531 87.65412902832031 58.93124389648438 L 87.65412139892578 58.93134307861328 C 87.63780212402344 59.96015167236328 87.62368011474609 60.84988403320312 87.62368011474609 60.84988403320312 L 84.12411499023438 60.79436492919922 L 84.20344543457031 55.79499053955078 Z M 84.02894592285156 66.79360198974609 L 87.52851104736328 66.84912109375 C 87.52851104736328 66.84912109375 87.51336669921875 67.80381011962891 87.49631500244141 68.87868499755859 L 87.49620056152344 68.88587188720703 C 87.49613952636719 68.88947296142578 87.49608612060547 68.89289093017578 87.49603271484375 68.89649963378906 L 87.49600219726562 68.89808654785156 C 87.49594116210938 68.90229797363281 87.49588012695312 68.90619659423828 87.49581146240234 68.91041564941406 L 87.49575805664062 68.91353607177734 C 87.49564361572266 68.92076110839844 87.49552917480469 68.92817687988281 87.49541473388672 68.93540954589844 L 87.49530792236328 68.94222259521484 C 87.49527740478516 68.94387817382812 87.49525451660156 68.94547271728516 87.49522399902344 68.94713592529297 L 87.49520874023438 68.9482421875 C 87.49518585205078 68.94974517822266 87.49516296386719 68.95126342773438 87.49514007568359 68.95277404785156 L 87.49507141113281 68.956787109375 C 87.49505615234375 68.95783996582031 87.49504089355469 68.95881652832031 87.49502563476562 68.95987701416016 L 87.49494171142578 68.96511840820312 C 87.49493408203125 68.96542358398438 87.49493408203125 68.96572875976562 87.49492645263672 68.96602630615234 L 87.4947509765625 68.97696685791016 C 87.49473571777344 68.97832489013672 87.49471282958984 68.97964477539062 87.49468994140625 68.98100280761719 L 87.44919586181641 71.84849548339844 L 83.94963836669922 71.79296875 L 84.02894592285156 66.79360198974609 Z M 83.85446166992188 77.79221343994141 L 87.35402679443359 77.84773254394531 L 87.31430816650391 80.35094451904297 C 87.31427764892578 80.35292816162109 87.31424713134766 80.35514068603516 87.314208984375 80.35712432861328 L 87.31338500976562 80.40926361083984 C 87.29388427734375 81.63817596435547 87.27470397949219 82.84709930419922 87.27470397949219 82.84709930419922 L 83.77516174316406 82.79160308837891 L 83.85446166992188 77.79221343994141 Z M 83.67996215820312 88.79084014892578 L 87.17952728271484 88.84635925292969 C 87.17952728271484 88.84635925292969 87.15860748291016 90.16526794433594 87.13825988769531 91.44818115234375 L 87.13822937011719 91.44979858398438 C 87.13816833496094 91.45361328125 87.13810729980469 91.45768737792969 87.13804626464844 91.46150207519531 L 87.13791656494141 91.46954345703125 C 87.13787841796875 91.47198486328125 87.13784027099609 91.47425842285156 87.13780212402344 91.47669982910156 L 87.13775634765625 91.47956848144531 C 87.13761901855469 91.48825073242188 87.13748168945312 91.49720001220703 87.13734436035156 91.50587463378906 L 87.13729858398438 91.50882720947266 C 87.13727569580078 91.5098876953125 87.13726043701172 91.51100158691406 87.13724517822266 91.51206207275391 L 87.13716125488281 91.51737213134766 C 87.13715362548828 91.51767730712891 87.13714599609375 91.51824951171875 87.13713836669922 91.5185546875 L 87.13703918457031 91.52511596679688 C 87.13703918457031 91.52511596679688 87.13703155517578 91.52555084228516 87.13703155517578 91.52555084228516 L 87.13692474365234 91.53215789794922 C 87.13691711425781 91.53246307373047 87.13691711425781 91.53289794921875 87.13690948486328 91.533203125 L 87.13681793212891 91.53868103027344 C 87.13680267333984 91.53974914550781 87.13678741455078 91.54069519042969 87.13677215576172 91.54176330566406 L 87.13670349121094 91.546142578125 C 87.13669586181641 91.5467529296875 87.13668060302734 91.54751586914062 87.13667297363281 91.54812622070312 L 87.13660430908203 91.5523681640625 C 87.13656616210938 91.5548095703125 87.13652801513672 91.55702209472656 87.13648986816406 91.5594482421875 L 87.1002197265625 93.84573364257812 L 83.60066223144531 93.79020690917969 L 83.67996215820312 88.79084014892578 Z M 85.24700927734375 97.3775634765625 L 86.66749572753906 99.83961486816406 L 87.00505065917969 99.844970703125 L 86.99640655517578 100.3895263671875 C 86.99640655517578 100.3896484375 86.99639892578125 100.3897705078125 86.99639892578125 100.389892578125 L 86.99638366699219 100.3907928466797 C 86.99637603759766 100.391471862793 86.99636840820312 100.3921508789062 86.99635314941406 100.3927917480469 L 86.99635314941406 100.3931274414062 C 86.996337890625 100.3937530517578 86.99633026123047 100.3943481445312 86.99632263183594 100.3949279785156 L 86.99631500244141 100.3954772949219 C 86.99626922607422 100.398323059082 86.99623107910156 100.4007720947266 86.99619293212891 100.4027557373047 L 86.99619293212891 100.4028930664062 C 86.99613189697266 100.406982421875 86.99609375 100.4091644287109 86.99609375 100.4091644287109 L 86.99609375 100.4091644287109 C 86.99609375 100.4091644287109 83.15396118164062 102.625862121582 83.15396118164062 102.625862121582 L 81.40487670898438 99.59425354003906 L 85.24700927734375 97.3775634765625 Z M 76.20783233642578 102.5926895141602 L 77.95690155029297 105.6242980957031 C 77.95690155029297 105.6242980957031 76.75258636474609 106.3191299438477 75.61406707763672 106.9759979248047 L 75.61395263671875 106.9760589599609 C 75.60802459716797 106.9794769287109 75.60205078125 106.9829254150391 75.59613037109375 106.9863433837891 L 75.59284973144531 106.9882354736328 C 75.59245300292969 106.9884643554688 75.59183502197266 106.9888229370117 75.59143829345703 106.9890518188477 L 75.58660125732422 106.9918441772461 C 75.57936096191406 106.9960174560547 75.57218933105469 107.0001525878906 75.56495666503906 107.0043334960938 L 75.56126403808594 107.006462097168 C 75.55823516845703 107.0082092285156 75.55519104003906 107.0099639892578 75.55216217041016 107.0117111206055 L 75.54875183105469 107.0136795043945 C 75.54769897460938 107.0142822265625 75.54693603515625 107.0147247314453 75.54588317871094 107.0153350830078 L 75.53614044189453 107.0209579467773 C 75.53324890136719 107.0226287841797 75.53052520751953 107.0242004394531 75.52763366699219 107.0258636474609 L 75.52259826660156 107.0287628173828 C 75.52246856689453 107.0288391113281 75.52238464355469 107.0288925170898 75.52225494384766 107.0289688110352 L 73.62602233886719 108.1229858398438 L 71.87694549560547 105.0913619995117 L 76.20783233642578 102.5926895141602 Z M 66.67987823486328 108.0897979736328 L 68.42896270751953 111.1214294433594 L 66.58300018310547 112.1864471435547 C 66.58300018310547 112.1864471435547 66.58277893066406 112.1865692138672 66.58277893066406 112.1865692138672 L 66.57832336425781 112.1891403198242 C 66.57688140869141 112.1899719238281 66.57514953613281 112.1909713745117 66.57370758056641 112.1918029785156 L 66.57313537597656 112.192138671875 C 66.57182312011719 112.1928863525391 66.57053375244141 112.1936340332031 66.56922912597656 112.1943893432617 L 66.56470489501953 112.1969985961914 C 66.56352996826172 112.1976776123047 66.56246185302734 112.1982879638672 66.56128692626953 112.198974609375 L 66.56071472167969 112.1992950439453 C 65.38856506347656 112.8755645751953 64.09807586669922 113.6201019287109 64.09807586669922 113.6201019287109 L 62.34900665283203 110.588493347168 L 66.67987823486328 108.0897979736328 Z M 57.15194320678711 113.5869293212891 L 58.90103149414062 116.618537902832 L 54.57013702392578 119.1172332763672 L 52.82105255126953 116.0856018066406 L 57.15194320678711 113.5869293212891 Z M 47.62398529052734 119.0840377807617 L 49.37307357788086 122.1156463623047 C 49.37307357788086 122.1156463623047 45.04220199584961 124.6143417358398 45.04220199584961 124.6143417358398 L 43.29311752319336 121.5827331542969 L 47.62398529052734 119.0840377807617 Z M 38.09605026245117 124.5811462402344 L 39.84513854980469 127.6127777099609 L 35.51424407958984 130.1114654541016 L 33.76515960693359 127.0798416137695 L 38.09605026245117 124.5811462402344 Z M 28.568115234375 130.0782775878906 L 30.31720352172852 133.1098785400391 C 30.31720352172852 133.1098785400391 25.98631286621094 135.6085815429688 25.98631286621094 135.6085815429688 L 24.23722839355469 132.5769653320312 L 28.568115234375 130.0782775878906 Z M 19.0401611328125 135.5753784179688 L 20.78924560546875 138.6070098876953 L 16.4583740234375 141.1056976318359 L 14.70928955078125 138.0740814208984 L 19.0401611328125 135.5753784179688 Z M 9.512222290039062 141.072509765625 L 11.26131439208984 144.1041259765625 C 11.26131439208984 144.1041259765625 6.930419921875 146.6028137207031 6.930419921875 146.6028137207031 L 5.18133544921875 143.5712127685547 L 9.512222290039062 141.072509765625 Z M 1.952880859375 144.2211608886719 L 5.452880859375 144.2211608886719 L 5.452880859375 147.4552917480469 L 2.392143249511719 149.2211608886719 L 1.952880859375 149.2211608886719 L 1.952880859375 144.2211608886719 Z M 1.952880859375 133.2211608886719 L 5.452880859375 133.2211608886719 L 5.452880859375 138.2211608886719 L 1.952880859375 138.2211608886719 L 1.952880859375 133.2211608886719 Z M 1.952880859375 122.2211685180664 L 5.452880859375 122.2211685180664 L 5.452880859375 127.2211685180664 L 1.952880859375 127.2211685180664 L 1.952880859375 122.2211685180664 Z M 1.952880859375 111.2211685180664 L 5.452880859375 111.2211685180664 L 5.452880859375 116.2211685180664 L 1.952880859375 116.2211685180664 L 1.952880859375 111.2211685180664 Z M 1.952880859375 100.2211685180664 L 5.452880859375 100.2211685180664 L 5.452880859375 105.2211685180664 L 1.952880859375 105.2211685180664 L 1.952880859375 100.2211685180664 Z M 1.952880859375 89.22116851806641 L 5.452880859375 89.22116851806641 L 5.452880859375 94.22116851806641 L 1.952880859375 94.22116851806641 L 1.952880859375 89.22116851806641 Z M 1.952880859375 78.22116851806641 L 5.452880859375 78.22116851806641 L 5.452880859375 83.22116851806641 L 1.952880859375 83.22116851806641 L 1.952880859375 78.22116851806641 Z M 1.952880859375 67.22116851806641 L 5.452880859375 67.22116851806641 L 5.452880859375 72.22116851806641 L 1.952880859375 72.22116851806641 L 1.952880859375 67.22116851806641 Z M 1.952880859375 56.22116851806641 L 5.452880859375 56.22116851806641 L 5.452880859375 61.22116851806641 L 1.952880859375 61.22116851806641 L 1.952880859375 56.22116851806641 Z M 2.562705993652344 45.59138488769531 L 2.7276611328125 45.90856170654297 L 5.452880859375 45.90856170654297 L 2.7276611328125 45.90856170654297 L 2.7276611328125 45.90856170654297 L 5.452880859375 45.90856170654297 L 5.452880859375 50.22116851806641 L 1.952880859375 50.22116851806641 L 1.952880859375 45.90856170654297 L 1.952880859375 45.90856170654297 L 1.952880859375 45.90856170654297 L 1.952880859375 45.90856170654297 L 1.952880859375 45.90856170654297 L 1.952880859375 45.90856170654297 L 1.952880859375 45.90856170654297 L 1.952880859375 45.90856170654297 L 1.952880859375 45.90856170654297 L 1.952880859375 45.90856170654297 L 1.952880859375 45.90856170654297 L 1.952880859375 45.90856170654297 L 1.952880859375 45.90856170654297 C 1.952880859375 45.90856170654297 1.955177307128906 45.90736389160156 1.959487915039062 45.90512084960938 L 1.959915161132812 45.90489959716797 C 1.962028503417969 45.90380096435547 1.964599609375 45.9024658203125 1.967582702636719 45.90090942382812 L 1.969383239746094 45.89997100830078 C 1.969650268554688 45.89983367919922 1.96990966796875 45.89969635009766 1.970184326171875 45.89955902099609 L 2.562705993652344 45.59139251708984 Z M 12.32174682617188 40.51586151123047 L 13.93670654296875 43.62101745605469 L 9.500770568847656 45.92806243896484 L 7.885833740234375 42.82292938232422 C 7.885833740234375 42.82292938232422 12.32174682617188 40.51586151123047 12.32174682617188 40.51586151123047 Z M 22.08078765869141 35.44032287597656 L 23.69574737548828 38.54547119140625 L 19.25981140136719 40.8525390625 L 17.64487457275391 37.74738311767578 C 17.64487457275391 37.74738311767578 18.823974609375 37.13414764404297 19.96636199951172 36.54000854492188 L 19.96705627441406 36.53964996337891 C 19.98382568359375 36.53092956542969 20.0006103515625 36.52219390869141 20.01736450195312 36.51348114013672 L 20.01995086669922 36.51213836669922 C 20.02724456787109 36.50834655761719 20.03448486328125 36.50457763671875 20.04177093505859 36.50078582763672 L 20.04769897460938 36.49771118164062 C 20.04782867431641 36.49763488769531 20.04818725585938 36.49745178222656 20.04832458496094 36.49738311767578 L 20.05386352539062 36.49449920654297 C 20.05399322509766 36.49443054199219 20.05435180664062 36.49424743652344 20.05448913574219 36.49417877197266 L 20.06024932861328 36.49118041992188 C 20.06065368652344 36.490966796875 20.06122589111328 36.49066925048828 20.06163024902344 36.49046325683594 L 20.11246490478516 36.46402740478516 C 20.11246490478516 36.46402740478516 20.11260986328125 36.46394348144531 20.11260986328125 36.46394348144531 L 22.08079528808594 35.44032287597656 Z M 31.8398323059082 30.36477661132812 L 33.45479202270508 33.46992492675781 L 29.01885604858398 35.77699279785156 L 27.4039192199707 32.67184448242188 L 31.83983993530273 30.36478424072266 Z M 41.598876953125 25.28925323486328 L 43.21383285522461 28.3944091796875 L 38.77790069580078 30.70145416259766 L 37.1629638671875 27.59632110595703 C 37.1629638671875 27.59632110595703 41.598876953125 25.28925323486328 41.598876953125 25.28925323486328 Z M 51.3579216003418 20.21371459960938 L 52.97287750244141 23.31886291503906 L 48.53694152832031 25.62593078613281 L 46.9220085144043 22.52077484130859 C 46.9220085144043 22.52077484130859 47.86379241943359 22.03096008300781 48.87958526611328 21.50267028808594 L 48.88150024414062 21.50166320800781 C 48.88526916503906 21.49971008300781 48.88874816894531 21.49789428710938 48.89252090454102 21.49594116210938 L 51.35792541503906 20.21371459960938 Z M 61.11696624755859 15.13816833496094 L 62.73191833496094 18.24331665039062 L 58.29598617553711 20.55038452148438 L 56.68105316162109 17.44523620605469 L 61.11697006225586 15.13818359375 Z M 70.87600708007812 10.06265258789062 L 72.490966796875 13.16780090332031 L 68.05503082275391 15.47483825683594 L 66.44009399414062 12.36970520019531 C 66.44009399414062 12.36970520019531 70.86410522460938 10.06883239746094 70.87598419189453 10.06265258789062 L 70.87599945068359 10.06265258789062 C 70.87600708007812 10.06265258789062 70.87600708007812 10.06265258789062 70.87600708007812 10.06265258789062 L 70.87600708007812 10.06265258789062 Z M 80.63507080078125 4.987106323242188 L 82.25000762939453 8.092254638671875 L 77.81407165527344 10.39932250976562 L 76.19914245605469 7.294174194335938 C 76.19914245605469 7.294174194335938 80.63507080078125 4.987106323242188 80.63507080078125 4.987106323242188 Z M 88.575439453125 0.857421875 L 88.49613189697266 5.856796264648438 L 84.99657440185547 5.80126953125 L 85.04587554931641 2.693099975585938 L 88.575439453125 0.857421875 Z" stroke="none" fill="#8bc4ff"/>
      </g>
      <rect id="Rectangle_1586" data-name="Rectangle 1586" width="11" height="85" transform="translate(802 476)" fill="#fff" opacity="0.741"/>
      <text id="Monet_HUB" data-name="Monet HUB" transform="translate(811.996 521.851)" font-size="17" font-family="TimesNewRomanPSMT, Times New Roman"><tspan x="-42.263" y="0">Monet HUB</tspan></text>
      <line id="Line_57" data-name="Line 57" x2="83" y2="44" transform="translate(803.5 377.5)" fill="none" stroke="#8bc4ff" stroke-width="3.5" stroke-dasharray="5 6"/>
      <line id="Line_58" data-name="Line 58" y1="44" x2="79" transform="translate(724.5 377.5)" fill="none" stroke="#8bc4ff" stroke-width="3.5" stroke-dasharray="5 6"/>
    </g>
  </g>
</svg>
