<svg xmlns="http://www.w3.org/2000/svg" width="355.842" height="308.536" viewBox="0 0 355.842 308.536">
  <g id="Group_3067" data-name="Group 3067" transform="translate(-867.076 -590.32)">
    <g id="Group_3066" data-name="Group 3066">
      <g id="Group_2851" data-name="Group 2851" transform="matrix(0.996, 0.087, -0.087, 0.996, 867.579, 749.97)">
        <g id="Group_2842" data-name="Group 2842" transform="matrix(0.996, -0.087, 0.087, 0.996, 0, 5.779)">
          <g id="Group_2829" data-name="Group 2829" transform="translate(3.115 3.873)">
            <g id="Group_2692" data-name="Group 2692" transform="translate(0 0)">
              <g id="Group_2691" data-name="Group 2691">
                <g id="Group_2690" data-name="Group 2690">
                  <g id="Group_2689" data-name="Group 2689">
                    <g id="Group_2688" data-name="Group 2688">
                      <path id="Path_3694" data-name="Path 3694" d="M53.21.253,44.328.21a2.2,2.2,0,0,0-2.147,2.231v1.6a2.175,2.175,0,0,1-2.147,2.231L22.69,6.188a2.213,2.213,0,0,1-2.147-2.273v-1.6A2.213,2.213,0,0,0,18.4.042H15.281L7.493,0A7,7,0,0,0,.463,6.946L0,119.134a7.025,7.025,0,0,0,6.946,7.03l45.759.21a7,7,0,0,0,7.03-6.946L60.2,7.241A7.081,7.081,0,0,0,53.21.253Z" fill="#fff"/>
                    </g>
                  </g>
                </g>
              </g>
            </g>
            <g id="Group_2703" data-name="Group 2703" transform="translate(4.831 115.726)">
              <g id="Group_2846" data-name="Group 2846">
                <rect id="Rectangle_1003" data-name="Rectangle 1003" width="51.565" height="6.724" fill="none" stroke="#707070" stroke-linejoin="round" stroke-width="1"/>
              </g>
            </g>
            <g id="Group_2845" data-name="Group 2845" transform="translate(51.216 117.907)">
              <g id="Group_2799" data-name="Group 2799" transform="translate(0 0.016)">
                <path id="Path_3706" data-name="Path 3706" d="M1.936,2.778,1.263,1.137,0,0H3.031ZM.337.084l1.052,1.01.547,1.389L2.9.084Z" transform="translate(0 0)" fill="#1a2e35"/>
              </g>
              <g id="Group_2800" data-name="Group 2800" transform="translate(1.319 0)">
                <rect id="Rectangle_1005" data-name="Rectangle 1005" width="0.126" height="1.979" transform="matrix(0.539, 0.843, -0.843, 0.539, 1.667, 0)" fill="#1a2e35"/>
              </g>
            </g>
          </g>
          <g id="Group_2830" data-name="Group 2830" transform="translate(0 0)">
            <path id="Path_3713" data-name="Path 3713" d="M56.368.211,10.524,0A9.944,9.944,0,0,0,.505,9.935L0,124.859a9.944,9.944,0,0,0,9.935,10.019l45.843.21A9.944,9.944,0,0,0,65.8,125.154L66.3,10.23A9.971,9.971,0,0,0,56.368.211Zm6.441,123.175a6.944,6.944,0,0,1-7.03,6.946l-45.759-.21a6.944,6.944,0,0,1-6.946-7.03L3.536,10.9a6.944,6.944,0,0,1,7.03-6.946L18.354,4H21.47a2.213,2.213,0,0,1,2.147,2.273v1.6a2.213,2.213,0,0,0,2.147,2.273l17.344.084A2.2,2.2,0,0,0,45.254,8V6.4A2.175,2.175,0,0,1,47.4,4.168l8.882.042a6.944,6.944,0,0,1,6.946,7.03Z" fill="#e1582e"/>
          </g>
        </g>
        <path id="Path_3747" data-name="Path 3747" d="M38.612.436,7.636,0C3.36-.059-.059,2.667,0,6.09l.054,3.1.054,3.1.109,6.2L7.853,12.4l30.976.435c4.277.06,7.7-2.666,7.635-6.089h0C46.4,3.319,42.889.5,38.612.436Z" transform="matrix(0.996, -0.087, 0.087, 0.996, 12.221, 29.547)" fill="#e1582e"/>
        <path id="Path_3748" data-name="Path 3748" d="M7.636,0,38.612.436C42.889.5,46.4,3.319,46.465,6.742l.054,3.1.054,3.1.109,6.2-7.853-6.307L7.853,12.4C3.577,12.337.061,9.513,0,6.09H0C-.059,2.667,3.36-.059,7.636,0Z" transform="matrix(0.996, -0.087, 0.087, 0.996, 14.514, 55.756)" fill="#8bc4ba"/>
      </g>
      <g id="Group_2852" data-name="Group 2852" transform="translate(1157.118 758.011) rotate(5)">
        <g id="Group_2842-2" data-name="Group 2842" transform="matrix(0.996, -0.087, 0.087, 0.996, 0, 5.779)">
          <g id="Group_2829-2" data-name="Group 2829" transform="translate(3.115 3.873)">
            <g id="Group_2692-2" data-name="Group 2692" transform="translate(0 0)">
              <g id="Group_2691-2" data-name="Group 2691">
                <g id="Group_2690-2" data-name="Group 2690">
                  <g id="Group_2689-2" data-name="Group 2689">
                    <g id="Group_2688-2" data-name="Group 2688">
                      <path id="Path_3694-2" data-name="Path 3694" d="M53.21.253,44.328.21a2.2,2.2,0,0,0-2.147,2.231v1.6a2.175,2.175,0,0,1-2.147,2.231L22.69,6.188a2.213,2.213,0,0,1-2.147-2.273v-1.6A2.213,2.213,0,0,0,18.4.042H15.281L7.493,0A7,7,0,0,0,.463,6.946L0,119.134a7.025,7.025,0,0,0,6.946,7.03l45.759.21a7,7,0,0,0,7.03-6.946L60.2,7.241A7.081,7.081,0,0,0,53.21.253Z" fill="#fff"/>
                    </g>
                  </g>
                </g>
              </g>
            </g>
            <g id="Group_2703-2" data-name="Group 2703" transform="translate(4.831 115.726)">
              <g id="Group_2846-2" data-name="Group 2846">
                <rect id="Rectangle_1003-2" data-name="Rectangle 1003" width="51.565" height="6.724" fill="none" stroke="#707070" stroke-linejoin="round" stroke-width="1"/>
              </g>
            </g>
            <g id="Group_2845-2" data-name="Group 2845" transform="translate(51.216 117.907)">
              <g id="Group_2799-2" data-name="Group 2799" transform="translate(0 0.016)">
                <path id="Path_3706-2" data-name="Path 3706" d="M1.936,2.778,1.263,1.137,0,0H3.031ZM.337.084l1.052,1.01.547,1.389L2.9.084Z" transform="translate(0 0)" fill="#1a2e35"/>
              </g>
              <g id="Group_2800-2" data-name="Group 2800" transform="translate(1.319 0)">
                <rect id="Rectangle_1005-2" data-name="Rectangle 1005" width="0.126" height="1.979" transform="matrix(0.539, 0.843, -0.843, 0.539, 1.667, 0)" fill="#1a2e35"/>
              </g>
            </g>
          </g>
          <g id="Group_2830-2" data-name="Group 2830" transform="translate(0 0)">
            <path id="Path_3713-2" data-name="Path 3713" d="M56.368.211,10.524,0A9.944,9.944,0,0,0,.505,9.935L0,124.859a9.944,9.944,0,0,0,9.935,10.019l45.843.21A9.944,9.944,0,0,0,65.8,125.154L66.3,10.23A9.971,9.971,0,0,0,56.368.211Zm6.441,123.175a6.944,6.944,0,0,1-7.03,6.946l-45.759-.21a6.944,6.944,0,0,1-6.946-7.03L3.536,10.9a6.944,6.944,0,0,1,7.03-6.946L18.354,4H21.47a2.213,2.213,0,0,1,2.147,2.273v1.6a2.213,2.213,0,0,0,2.147,2.273l17.344.084A2.2,2.2,0,0,0,45.254,8V6.4A2.175,2.175,0,0,1,47.4,4.168l8.882.042a6.944,6.944,0,0,1,6.946,7.03Z" fill="#1a2e35"/>
          </g>
        </g>
        <path id="Path_3747-2" data-name="Path 3747" d="M38.612.436,7.636,0C3.36-.059-.059,2.667,0,6.09l.054,3.1.054,3.1.109,6.2L7.853,12.4l30.976.435c4.277.06,7.7-2.666,7.635-6.089h0C46.4,3.319,42.889.5,38.612.436Z" transform="matrix(0.996, -0.087, 0.087, 0.996, 12.221, 29.547)" fill="#1a2e35"/>
        <path id="Path_3748-2" data-name="Path 3748" d="M7.636,0,38.612.436C42.889.5,46.4,3.319,46.465,6.742l.054,3.1.054,3.1.109,6.2-7.853-6.307L7.853,12.4C3.577,12.337.061,9.513,0,6.09H0C-.059,2.667,3.36-.059,7.636,0Z" transform="matrix(0.996, -0.087, 0.087, 0.996, 14.514, 55.756)" fill="#8bc4ba"/>
      </g>
      <g id="Group_2853" data-name="Group 2853" transform="translate(1008.569 584.564) rotate(5)">
        <g id="Group_2842-3" data-name="Group 2842" transform="matrix(0.996, -0.087, 0.087, 0.996, 0, 5.779)">
          <g id="Group_2829-3" data-name="Group 2829" transform="translate(3.115 3.873)">
            <g id="Group_2692-3" data-name="Group 2692" transform="translate(0 0)">
              <g id="Group_2691-3" data-name="Group 2691">
                <g id="Group_2690-3" data-name="Group 2690">
                  <g id="Group_2689-3" data-name="Group 2689">
                    <g id="Group_2688-3" data-name="Group 2688">
                      <path id="Path_3694-3" data-name="Path 3694" d="M53.21.253,44.328.21a2.2,2.2,0,0,0-2.147,2.231v1.6a2.175,2.175,0,0,1-2.147,2.231L22.69,6.188a2.213,2.213,0,0,1-2.147-2.273v-1.6A2.213,2.213,0,0,0,18.4.042H15.281L7.493,0A7,7,0,0,0,.463,6.946L0,119.134a7.025,7.025,0,0,0,6.946,7.03l45.759.21a7,7,0,0,0,7.03-6.946L60.2,7.241A7.081,7.081,0,0,0,53.21.253Z" fill="#fff"/>
                    </g>
                  </g>
                </g>
              </g>
            </g>
            <g id="Group_2703-3" data-name="Group 2703" transform="translate(4.831 115.726)">
              <g id="Group_2846-3" data-name="Group 2846">
                <rect id="Rectangle_1003-3" data-name="Rectangle 1003" width="51.565" height="6.724" fill="none" stroke="#707070" stroke-linejoin="round" stroke-width="1"/>
              </g>
            </g>
            <g id="Group_2845-3" data-name="Group 2845" transform="translate(51.216 117.907)">
              <g id="Group_2799-3" data-name="Group 2799" transform="translate(0 0.016)">
                <path id="Path_3706-3" data-name="Path 3706" d="M1.936,2.778,1.263,1.137,0,0H3.031ZM.337.084l1.052,1.01.547,1.389L2.9.084Z" transform="translate(0 0)" fill="#1a2e35"/>
              </g>
              <g id="Group_2800-3" data-name="Group 2800" transform="translate(1.319 0)">
                <rect id="Rectangle_1005-3" data-name="Rectangle 1005" width="0.126" height="1.979" transform="matrix(0.539, 0.843, -0.843, 0.539, 1.667, 0)" fill="#1a2e35"/>
              </g>
            </g>
          </g>
          <g id="Group_2830-3" data-name="Group 2830" transform="translate(0 0)">
            <path id="Path_3713-3" data-name="Path 3713" d="M56.368.211,10.524,0A9.944,9.944,0,0,0,.505,9.935L0,124.859a9.944,9.944,0,0,0,9.935,10.019l45.843.21A9.944,9.944,0,0,0,65.8,125.154L66.3,10.23A9.971,9.971,0,0,0,56.368.211Zm6.441,123.175a6.944,6.944,0,0,1-7.03,6.946l-45.759-.21a6.944,6.944,0,0,1-6.946-7.03L3.536,10.9a6.944,6.944,0,0,1,7.03-6.946L18.354,4H21.47a2.213,2.213,0,0,1,2.147,2.273v1.6a2.213,2.213,0,0,0,2.147,2.273l17.344.084A2.2,2.2,0,0,0,45.254,8V6.4A2.175,2.175,0,0,1,47.4,4.168l8.882.042a6.944,6.944,0,0,1,6.946,7.03Z" fill="#8bc4ba"/>
          </g>
        </g>
        <path id="Path_3747-3" data-name="Path 3747" d="M38.612.436,7.636,0C3.36-.059-.059,2.667,0,6.09l.054,3.1.054,3.1.109,6.2L7.853,12.4l30.976.435c4.277.06,7.7-2.666,7.635-6.089h0C46.4,3.319,42.889.5,38.612.436Z" transform="matrix(0.996, -0.087, 0.087, 0.996, 12.221, 29.547)" fill="#e1582e"/>
        <path id="Path_3748-3" data-name="Path 3748" d="M7.636,0,38.612.436C42.889.5,46.4,3.319,46.465,6.742l.054,3.1.054,3.1.109,6.2-7.853-6.307L7.853,12.4C3.577,12.337.061,9.513,0,6.09H0C-.059,2.667,3.36-.059,7.636,0Z" transform="matrix(0.996, -0.087, 0.087, 0.996, 14.514, 55.756)" fill="#8bc4ba"/>
      </g>
      <g id="wifi" transform="translate(974.029 757.973)" opacity="0.215">
        <g id="Group_2850" data-name="Group 2850" transform="translate(0 0)">
          <path id="Path_3739" data-name="Path 3739" d="M73.994,180.054A7.181,7.181,0,1,0,84.15,190.21a49.633,49.633,0,0,1,70.107,0,7.172,7.172,0,1,0,10.129-10.156A63.958,63.958,0,0,0,73.994,180.054Z" transform="translate(-52.217 -133.53)" fill="#feaf9a"/>
          <path id="Path_3740" data-name="Path 3740" d="M144.794,272.16a7.181,7.181,0,0,0,10.156,10.156,22.14,22.14,0,0,1,31.317,0A7.162,7.162,0,0,0,196.4,272.188,36.489,36.489,0,0,0,144.794,272.16Z" transform="translate(-103.636 -206.255)" fill="#feaf9a"/>
          <ellipse id="Ellipse_211" data-name="Ellipse 211" cx="9.554" cy="9.554" rx="9.554" ry="9.554" transform="translate(57.419 82.139)" fill="#feaf9a"/>
          <path id="Path_3741" data-name="Path 3741" d="M131.852,86.539a91.9,91.9,0,0,0-129.757,0A7.181,7.181,0,0,0,12.25,96.695a77.473,77.473,0,0,1,109.473,0,7.172,7.172,0,0,0,10.129-10.156Z" transform="translate(0 -59.725)" fill="#feaf9a"/>
        </g>
      </g>
      <g id="thin-download-arrow" transform="translate(1169.42 669.231) rotate(90)">
        <path id="Path_3894" data-name="Path 3894" d="M18.07,9.462a.336.336,0,0,1-.476,0L9.42,1.289V77.971a.336.336,0,1,1-.673,0V1.289L.574,9.462A.336.336,0,0,1,.1,8.987L8.846.239h0L9.084,0l.237.237h0L18.07,8.987A.339.339,0,0,1,18.07,9.462Z" transform="translate(210.356 84.287)" fill="#e1582e"/>
        <path id="Path_3895" data-name="Path 3895" d="M18.07,9.462a.336.336,0,0,1-.476,0L9.42,1.289V77.972a.336.336,0,1,1-.673,0V1.289L.574,9.462A.336.336,0,1,1,.1,8.987L8.846.239h0L9.084,0l.237.237h0L18.07,8.986A.339.339,0,0,1,18.07,9.462Z" transform="translate(12.847 68.219) rotate(-135)" fill="#e1582e"/>
        <path id="Path_3896" data-name="Path 3896" d="M.1,9.462a.336.336,0,0,0,.476,0L8.748,1.289V77.972a.336.336,0,1,0,.673,0V1.289l8.173,8.174a.336.336,0,1,0,.476-.476L9.322.239h0L9.083,0,8.846.237h0L.1,8.987A.339.339,0,0,0,.1,9.462Z" transform="translate(68.219 235.369) rotate(135)" fill="#e1582e"/>
      </g>
    </g>
  </g>
</svg>
