<svg xmlns="http://www.w3.org/2000/svg" width="298.025" height="284.558" viewBox="0 0 298.025 284.558">
  <g id="Group_3068" data-name="Group 3068" transform="translate(-919.7 -2282.914)">
    <g id="Group_3067" data-name="Group 3067">
      <g id="illustration_1" data-name="illustration 1" transform="translate(883.5 2388.2)">
        <path id="Path_4158" data-name="Path 4158" d="M161.728,79.8l-5.918-5.769,5.819-5.471-6.515-4.377,3.829-9.3-5.272.5-2.387-9.5-7.012,1.393-.4-12.831-3.233,1.293L135.319,24.6l-1.243.9L36.2,105.666l5.321,46.451,22.231,27.155,97.925-80.22.9-.746-2.536-10.494ZM38.289,106.511l94.345-77.236-3.183,8.256,5.67,1.492-1.89,7.361,3.233,3.929L128.9,60.16l8.753,1.044-2.089,8.355,2.984,2.238-95.29,78.032Zm25.762,69.975L44.008,151.968,139.5,73.787l.8,7.112,5.819.2.249,12.682,7.311-3.432,1.641,5.421,4.576,2.387Zm96.036-80.469L156.9,94.376l-2.039-6.814L148.25,90.7,148,79.207l-5.968-.2-.845-7.659-3.382-2.586,2.387-9.25-7.56-.9L139,50.312l-3.581-4.377,2.139-8.306-5.471-1.442,2.934-7.56,4.625,9.648,2.288-.945.348,12.334,7.46-1.492,2.337,9.3,3.68-.348-3.183,7.758,5.769,3.879-5.471,5.172L159.49,80.4l-1.542,7.41Z" transform="translate(0 0)" fill="#86feb9"/>
        <path id="Path_4159" data-name="Path 4159" d="M566.078,112.749,441.943,84.65l-.249-.05-13.279,3.78,2.536,6.913-8.9,4.078L424.288,104l-17.8,4.924,6.117,3.929-5.57,5.471-6.167,5.371,4.178,6.167L394,140.4l6.366,4.575.1,6.664L524.849,179.79l32.327-28.05ZM415.833,112.5l-4.426-2.835,15.815-4.377-2.387-4.973,8.7-3.979L431.1,89.723l10.693-3.034,121.1,27.4-31.133,30.536-120.8-27.353Zm108.071,65L402.5,150.049l-.1-6.117-5.222-3.73,10.494-10.046-4.128-6.117,5.67-4.973,121.648,27.552Zm31.531-26.856-29.144,25.314.05-.249,6.615-29.293,30.188-29.741Z" transform="translate(-231.853 -20.16)" fill="#86feb9"/>
      </g>
      <g id="user" transform="translate(962.951 2282.914)">
        <path id="Path_4152" data-name="Path 4152" d="M28.665,0A28.563,28.563,0,1,0,48.819,8.348,28.5,28.5,0,0,0,28.665,0ZM13.257,49.435V46.968a15.408,15.408,0,1,1,30.816,0v2.467A25.946,25.946,0,0,1,13.257,49.435Zm33.316-2.1v-.371a17.908,17.908,0,0,0-35.816,0v.371a26,26,0,1,1,35.816,0Zm0,0" transform="translate(-0.161 0.001)" fill="#8bffbc"/>
        <path id="Path_4153" data-name="Path 4153" d="M160.977,67.148a9.665,9.665,0,1,0,9.665,9.665A9.665,9.665,0,0,0,160.977,67.148Zm0,16.829a7.164,7.164,0,1,1,7.164-7.164A7.165,7.165,0,0,1,160.977,83.977Zm0,0" transform="translate(-132.417 -58.754)" fill="#8bffbc"/>
      </g>
      <g id="user-2" data-name="user" transform="translate(962.951 2353.372)">
        <path id="Path_4152-2" data-name="Path 4152" d="M28.665,0A28.563,28.563,0,1,0,48.819,8.348,28.5,28.5,0,0,0,28.665,0ZM13.257,49.435V46.968a15.408,15.408,0,1,1,30.816,0v2.467A25.946,25.946,0,0,1,13.257,49.435Zm33.316-2.1v-.371a17.908,17.908,0,0,0-35.816,0v.371a26,26,0,1,1,35.816,0Zm0,0" transform="translate(-0.161 0.001)" fill="#8bffbc"/>
        <path id="Path_4153-2" data-name="Path 4153" d="M160.977,67.148a9.665,9.665,0,1,0,9.665,9.665A9.665,9.665,0,0,0,160.977,67.148Zm0,16.829a7.164,7.164,0,1,1,7.164-7.164A7.165,7.165,0,0,1,160.977,83.977Zm0,0" transform="translate(-132.417 -58.754)" fill="#8bffbc"/>
      </g>
      <g id="user-3" data-name="user" transform="translate(1093.951 2283)">
        <path id="Path_4152-3" data-name="Path 4152" d="M28.665,0A28.563,28.563,0,1,0,48.819,8.348,28.5,28.5,0,0,0,28.665,0ZM13.257,49.435V46.968a15.408,15.408,0,1,1,30.816,0v2.467A25.946,25.946,0,0,1,13.257,49.435Zm33.316-2.1v-.371a17.908,17.908,0,0,0-35.816,0v.371a26,26,0,1,1,35.816,0Zm0,0" transform="translate(-0.161 0.001)" fill="#8bffbc"/>
        <path id="Path_4153-3" data-name="Path 4153" d="M160.977,67.148a9.665,9.665,0,1,0,9.665,9.665A9.665,9.665,0,0,0,160.977,67.148Zm0,16.829a7.164,7.164,0,1,1,7.164-7.164A7.165,7.165,0,0,1,160.977,83.977Zm0,0" transform="translate(-132.417 -58.754)" fill="#8bffbc"/>
      </g>
      <g id="user-4" data-name="user" transform="translate(1093.951 2353.458)">
        <path id="Path_4152-4" data-name="Path 4152" d="M28.665,0A28.563,28.563,0,1,0,48.819,8.348,28.5,28.5,0,0,0,28.665,0ZM13.257,49.435V46.968a15.408,15.408,0,1,1,30.816,0v2.467A25.946,25.946,0,0,1,13.257,49.435Zm33.316-2.1v-.371a17.908,17.908,0,0,0-35.816,0v.371a26,26,0,1,1,35.816,0Zm0,0" transform="translate(-0.161 0.001)" fill="#8bffbc"/>
        <path id="Path_4153-4" data-name="Path 4153" d="M160.977,67.148a9.665,9.665,0,1,0,9.665,9.665A9.665,9.665,0,0,0,160.977,67.148Zm0,16.829a7.164,7.164,0,1,1,7.164-7.164A7.165,7.165,0,0,1,160.977,83.977Zm0,0" transform="translate(-132.417 -58.754)" fill="#8bffbc"/>
      </g>
      <g id="Group_3056" data-name="Group 3056" transform="translate(-415.992 2147.583) rotate(-47)">
        <path id="Path_3895" data-name="Path 3895" d="M16.524,6.392a.476.476,0,0,1-.674,0L11.282,1.825,12.5,51.981a.476.476,0,1,1-.953,0L10.329,1.825,5.763,6.392a.476.476,0,1,1-.674-.674L10.469.338h0L10.807,0l.336.336v0l5.38,5.38A.48.48,0,0,1,16.524,6.392Z" transform="translate(859.482 1175.155) rotate(-42)" fill="#e1582e"/>
        <path id="Path_4160" data-name="Path 4160" d="M11.575,39.017a.476.476,0,0,0-.674,0L6.332,43.584H6.316a.476.476,0,1,0-.953,0H5.38L.813,39.017a.476.476,0,1,0-.674.674l5.38,5.381h0l.337.338.336-.336v0l5.38-5.38A.48.48,0,0,0,11.575,39.017Z" transform="matrix(0.719, -0.695, 0.695, 0.719, 868.72, 1178.532)" fill="#e1582e"/>
      </g>
      <g id="Group_3057" data-name="Group 3057" transform="translate(-415.992 2218.041) rotate(-47)">
        <path id="Path_3895-2" data-name="Path 3895" d="M16.524,6.392a.476.476,0,0,1-.674,0L11.282,1.825,12.5,51.981a.476.476,0,1,1-.953,0L10.329,1.825,5.763,6.392a.476.476,0,1,1-.674-.674L10.469.338h0L10.807,0l.336.336v0l5.38,5.38A.48.48,0,0,1,16.524,6.392Z" transform="translate(859.482 1175.155) rotate(-42)" fill="#e1582e"/>
        <path id="Path_4160-2" data-name="Path 4160" d="M11.575,39.017a.476.476,0,0,0-.674,0L6.332,43.584H6.316a.476.476,0,1,0-.953,0H5.38L.813,39.017a.476.476,0,1,0-.674.674l5.38,5.381h0l.337.338.336-.336v0l5.38-5.38A.48.48,0,0,0,11.575,39.017Z" transform="matrix(0.719, -0.695, 0.695, 0.719, 868.72, 1178.532)" fill="#e1582e"/>
      </g>
    </g>
  </g>
</svg>
