<svg xmlns="http://www.w3.org/2000/svg" width="371.113" height="268.397" viewBox="0 0 371.113 268.397">
  <g id="Group_3065" data-name="Group 3065" transform="translate(-884.992 -2286)">
    <g id="Group_3064" data-name="Group 3064" transform="translate(-11 29)">
      <g id="Group_3055" data-name="Group 3055" transform="translate(42 -177)">
        <g id="Group_2850" data-name="Group 2850" transform="translate(1020.927 2563.172)">
          <path id="Path_3739" data-name="Path 3739" d="M72.59,167.511a2.366,2.366,0,0,0,3.346,3.346,16.35,16.35,0,0,1,23.094,0,2.362,2.362,0,0,0,3.337-3.346A21.068,21.068,0,0,0,72.59,167.511Z" transform="translate(-65.416 -152.186)" fill="#fba58a"/>
          <path id="Path_3740" data-name="Path 3740" d="M143.39,265a2.366,2.366,0,1,0,3.346,3.346,7.293,7.293,0,0,1,10.316,0,2.359,2.359,0,0,0,3.337-3.337A12.02,12.02,0,0,0,143.39,265Z" transform="translate(-129.832 -243.293)" fill="#fba58a"/>
          <ellipse id="Ellipse_211" data-name="Ellipse 211" cx="3.147" cy="3.147" rx="3.147" ry="3.147" transform="translate(18.914 27.057)" fill="#fba58a"/>
          <path id="Path_3741" data-name="Path 3741" d="M43.433,68.558a30.272,30.272,0,0,0-42.743,0A2.366,2.366,0,0,0,4.035,71.9a25.52,25.52,0,0,1,36.061,0,2.362,2.362,0,0,0,3.337-3.346Z" transform="translate(0 -59.725)" fill="#fba58a"/>
        </g>
        <g id="placeholder" transform="translate(1007 2542)">
          <g id="Group_3054" data-name="Group 3054" transform="translate(0)">
            <g id="Group_3053" data-name="Group 3053">
              <path id="Path_4155" data-name="Path 4155" d="M62.7,89.708c10.723,0,35.883-34.758,35.883-53.825a35.883,35.883,0,0,0-71.767,0C26.819,54.95,51.98,89.708,62.7,89.708Zm0-86.12A32.332,32.332,0,0,1,95,35.883C95,54.7,69.58,86.12,62.7,86.12s-32.3-31.423-32.3-50.237A32.332,32.332,0,0,1,62.7,3.588Z" transform="translate(-26.819)" fill="#fba58a"/>
            </g>
          </g>
        </g>
      </g>
      <line id="Line_84" data-name="Line 84" y1="4.108" x2="38.344" transform="translate(927.717 2402.031)" fill="none" stroke="#fba58a" stroke-width="1" stroke-dasharray="5 3"/>
      <line id="Line_106" data-name="Line 106" y1="31.639" x2="39.783" transform="translate(1000.717 2354.5)" fill="none" stroke="#fba58a" stroke-width="2" stroke-dasharray="5 3"/>
      <line id="Line_107" data-name="Line 107" x2="96" y2="3" transform="translate(1033.5 2462.5)" fill="none" stroke="#fba58a" stroke-width="2" stroke-dasharray="5 3"/>
      <line id="Line_117" data-name="Line 117" x2="23" y2="59" transform="translate(1157.5 2356.5)" fill="none" stroke="#fba58a" stroke-width="2" stroke-dasharray="5 3"/>
      <line id="Line_93" data-name="Line 93" y1="4.108" x2="38.344" transform="translate(1075.717 2275.031)" fill="none" stroke="#fba58a" stroke-width="1" stroke-dasharray="5 3"/>
      <line id="Line_108" data-name="Line 108" y1="4.108" x2="38.344" transform="translate(1161.717 2425.031)" fill="none" stroke="#fba58a" stroke-width="1" stroke-dasharray="5 3"/>
      <line id="Line_85" data-name="Line 85" y1="10.499" x2="15.977" transform="translate(925.891 2451.787)" fill="none" stroke="#fba58a" stroke-width="1" stroke-dasharray="5 3"/>
      <line id="Line_94" data-name="Line 94" y1="10.499" x2="15.977" transform="translate(1073.891 2324.787)" fill="none" stroke="#fba58a" stroke-width="1" stroke-dasharray="5 3"/>
      <line id="Line_110" data-name="Line 110" y1="10.499" x2="15.977" transform="translate(1159.891 2474.787)" fill="none" stroke="#fba58a" stroke-width="1" stroke-dasharray="5 3"/>
      <line id="Line_86" data-name="Line 86" x1="0.456" y1="25.563" transform="translate(909.458 2426.224)" fill="none" stroke="#fba58a" stroke-width="1" stroke-dasharray="5 3"/>
      <line id="Line_95" data-name="Line 95" x1="0.456" y1="25.563" transform="translate(1057.458 2299.224)" fill="none" stroke="#fba58a" stroke-width="1" stroke-dasharray="5 3"/>
      <line id="Line_109" data-name="Line 109" x1="0.456" y1="25.563" transform="translate(1143.458 2449.224)" fill="none" stroke="#fba58a" stroke-width="1" stroke-dasharray="5 3"/>
      <line id="Line_87" data-name="Line 87" y1="15.064" x2="11.412" transform="translate(966.061 2415.725)" fill="none" stroke="#fba58a" stroke-width="1" stroke-dasharray="5 3"/>
      <line id="Line_96" data-name="Line 96" y1="15.064" x2="11.412" transform="translate(1114.061 2288.725)" fill="none" stroke="#fba58a" stroke-width="1" stroke-dasharray="5 3"/>
      <line id="Line_111" data-name="Line 111" y1="15.064" x2="11.412" transform="translate(1200.061 2438.725)" fill="none" stroke="#fba58a" stroke-width="1" stroke-dasharray="5 3"/>
      <line id="Line_88" data-name="Line 88" x1="9.129" y1="15.064" transform="translate(964.235 2462.285)" fill="none" stroke="#fba58a" stroke-width="1" stroke-dasharray="5 3"/>
      <line id="Line_97" data-name="Line 97" x1="9.129" y1="15.064" transform="translate(1112.235 2335.285)" fill="none" stroke="#fba58a" stroke-width="1" stroke-dasharray="5 3"/>
      <line id="Line_112" data-name="Line 112" x1="9.129" y1="15.064" transform="translate(1198.235 2485.285)" fill="none" stroke="#fba58a" stroke-width="1" stroke-dasharray="5 3"/>
      <line id="Line_89" data-name="Line 89" x1="27.845" y2="2.282" transform="translate(973.365 2442.201)" fill="none" stroke="#fba58a" stroke-width="1" stroke-dasharray="5 3"/>
      <line id="Line_98" data-name="Line 98" x1="27.845" y2="2.282" transform="translate(1121.365 2315.201)" fill="none" stroke="#fba58a" stroke-width="1" stroke-dasharray="5 3"/>
      <line id="Line_113" data-name="Line 113" x1="27.845" y2="2.282" transform="translate(1207.365 2465.201)" fill="none" stroke="#fba58a" stroke-width="1" stroke-dasharray="5 3"/>
      <line id="Line_90" data-name="Line 90" x1="42.909" y1="9.129" transform="translate(925.891 2477.349)" fill="none" stroke="#fba58a" stroke-width="1" stroke-dasharray="5 3"/>
      <line id="Line_99" data-name="Line 99" x1="42.909" y1="9.129" transform="translate(1073.891 2350.349)" fill="none" stroke="#fba58a" stroke-width="1" stroke-dasharray="5 3"/>
      <line id="Line_114" data-name="Line 114" x1="42.909" y1="9.129" transform="translate(1159.891 2500.349)" fill="none" stroke="#fba58a" stroke-width="1" stroke-dasharray="5 3"/>
      <line id="Line_91" data-name="Line 91" x1="10.499" y2="15.064" transform="translate(999.384 2462.285)" fill="none" stroke="#fba58a" stroke-width="1" stroke-dasharray="5 3"/>
      <line id="Line_100" data-name="Line 100" x1="10.499" y2="15.064" transform="translate(1147.384 2335.285)" fill="none" stroke="#fba58a" stroke-width="1" stroke-dasharray="5 3"/>
      <line id="Line_115" data-name="Line 115" x1="10.499" y2="15.064" transform="translate(1233.384 2485.285)" fill="none" stroke="#fba58a" stroke-width="1" stroke-dasharray="5 3"/>
      <line id="Line_92" data-name="Line 92" x2="15.52" y2="19.628" transform="translate(994.362 2411.16)" fill="none" stroke="#fba58a" stroke-width="1" stroke-dasharray="5 3"/>
      <line id="Line_101" data-name="Line 101" x2="15.52" y2="19.628" transform="translate(1142.362 2284.16)" fill="none" stroke="#fba58a" stroke-width="1" stroke-dasharray="5 3"/>
      <line id="Line_116" data-name="Line 116" x2="15.52" y2="19.628" transform="translate(1228.362 2434.16)" fill="none" stroke="#fba58a" stroke-width="1" stroke-dasharray="5 3"/>
      <g id="user" transform="translate(895.992 2394.499)">
        <path id="Path_4152" data-name="Path 4152" d="M15.983,0A15.855,15.855,0,1,0,27.171,4.633,15.821,15.821,0,0,0,15.983,0ZM7.431,27.44V26.071a8.553,8.553,0,1,1,17.105,0V27.44A14.4,14.4,0,0,1,7.431,27.44Zm18.493-1.163v-.206a9.941,9.941,0,0,0-19.881,0v.206a14.434,14.434,0,1,1,19.881,0Zm0,0" transform="translate(-0.161 0.001)" fill="#8bffbc"/>
        <path id="Path_4153" data-name="Path 4153" d="M156.677,67.148a5.365,5.365,0,1,0,5.365,5.365A5.365,5.365,0,0,0,156.677,67.148Zm0,9.342a3.977,3.977,0,1,1,3.977-3.977A3.977,3.977,0,0,1,156.677,76.49Zm0,0" transform="translate(-140.824 -62.489)" fill="#8bffbc"/>
      </g>
      <g id="user-2" data-name="user" transform="translate(1043.992 2267.499)">
        <path id="Path_4152-2" data-name="Path 4152" d="M15.983,0A15.855,15.855,0,1,0,27.171,4.633,15.821,15.821,0,0,0,15.983,0ZM7.431,27.44V26.071a8.553,8.553,0,1,1,17.105,0V27.44A14.4,14.4,0,0,1,7.431,27.44Zm18.493-1.163v-.206a9.941,9.941,0,0,0-19.881,0v.206a14.434,14.434,0,1,1,19.881,0Zm0,0" transform="translate(-0.161 0.001)" fill="#8bffbc"/>
        <path id="Path_4153-2" data-name="Path 4153" d="M156.677,67.148a5.365,5.365,0,1,0,5.365,5.365A5.365,5.365,0,0,0,156.677,67.148Zm0,9.342a3.977,3.977,0,1,1,3.977-3.977A3.977,3.977,0,0,1,156.677,76.49Zm0,0" transform="translate(-140.824 -62.489)" fill="#8bffbc"/>
      </g>
      <g id="user-3" data-name="user" transform="translate(1129.992 2417.499)">
        <path id="Path_4152-3" data-name="Path 4152" d="M15.983,0A15.855,15.855,0,1,0,27.171,4.633,15.821,15.821,0,0,0,15.983,0ZM7.431,27.44V26.071a8.553,8.553,0,1,1,17.105,0V27.44A14.4,14.4,0,0,1,7.431,27.44Zm18.493-1.163v-.206a9.941,9.941,0,0,0-19.881,0v.206a14.434,14.434,0,1,1,19.881,0Zm0,0" transform="translate(-0.161 0.001)" fill="#8bffbc"/>
        <path id="Path_4153-3" data-name="Path 4153" d="M156.677,67.148a5.365,5.365,0,1,0,5.365,5.365A5.365,5.365,0,0,0,156.677,67.148Zm0,9.342a3.977,3.977,0,1,1,3.977-3.977A3.977,3.977,0,0,1,156.677,76.49Zm0,0" transform="translate(-140.824 -62.489)" fill="#8bffbc"/>
      </g>
      <g id="user-4" data-name="user" transform="translate(965.833 2384)">
        <path id="Path_4152-4" data-name="Path 4152" d="M15.983,0A15.855,15.855,0,1,0,27.171,4.633,15.821,15.821,0,0,0,15.983,0ZM7.431,27.44V26.071a8.553,8.553,0,1,1,17.105,0V27.44A14.4,14.4,0,0,1,7.431,27.44Zm18.493-1.163v-.206a9.941,9.941,0,0,0-19.881,0v.206a14.434,14.434,0,1,1,19.881,0Zm0,0" transform="translate(-0.161 0.001)" fill="#8bffbc"/>
        <path id="Path_4153-4" data-name="Path 4153" d="M156.677,67.148a5.365,5.365,0,1,0,5.365,5.365A5.365,5.365,0,0,0,156.677,67.148Zm0,9.342a3.977,3.977,0,1,1,3.977-3.977A3.977,3.977,0,0,1,156.677,76.49Zm0,0" transform="translate(-140.824 -62.489)" fill="#8bffbc"/>
      </g>
      <g id="user-5" data-name="user" transform="translate(1113.833 2257)">
        <path id="Path_4152-5" data-name="Path 4152" d="M15.983,0A15.855,15.855,0,1,0,27.171,4.633,15.821,15.821,0,0,0,15.983,0ZM7.431,27.44V26.071a8.553,8.553,0,1,1,17.105,0V27.44A14.4,14.4,0,0,1,7.431,27.44Zm18.493-1.163v-.206a9.941,9.941,0,0,0-19.881,0v.206a14.434,14.434,0,1,1,19.881,0Zm0,0" transform="translate(-0.161 0.001)" fill="#8bffbc"/>
        <path id="Path_4153-5" data-name="Path 4153" d="M156.677,67.148a5.365,5.365,0,1,0,5.365,5.365A5.365,5.365,0,0,0,156.677,67.148Zm0,9.342a3.977,3.977,0,1,1,3.977-3.977A3.977,3.977,0,0,1,156.677,76.49Zm0,0" transform="translate(-140.824 -62.489)" fill="#8bffbc"/>
      </g>
      <g id="user-6" data-name="user" transform="translate(1199.833 2407)">
        <path id="Path_4152-6" data-name="Path 4152" d="M15.983,0A15.855,15.855,0,1,0,27.171,4.633,15.821,15.821,0,0,0,15.983,0ZM7.431,27.44V26.071a8.553,8.553,0,1,1,17.105,0V27.44A14.4,14.4,0,0,1,7.431,27.44Zm18.493-1.163v-.206a9.941,9.941,0,0,0-19.881,0v.206a14.434,14.434,0,1,1,19.881,0Zm0,0" transform="translate(-0.161 0.001)" fill="#8bffbc"/>
        <path id="Path_4153-6" data-name="Path 4153" d="M156.677,67.148a5.365,5.365,0,1,0,5.365,5.365A5.365,5.365,0,0,0,156.677,67.148Zm0,9.342a3.977,3.977,0,1,1,3.977-3.977A3.977,3.977,0,0,1,156.677,76.49Zm0,0" transform="translate(-140.824 -62.489)" fill="#8bffbc"/>
      </g>
      <g id="user-7" data-name="user" transform="translate(1001.438 2430.561)">
        <path id="Path_4152-7" data-name="Path 4152" d="M15.983,0A15.855,15.855,0,1,0,27.171,4.633,15.821,15.821,0,0,0,15.983,0ZM7.431,27.44V26.071a8.553,8.553,0,1,1,17.105,0V27.44A14.4,14.4,0,0,1,7.431,27.44Zm18.493-1.163v-.206a9.941,9.941,0,0,0-19.881,0v.206a14.434,14.434,0,1,1,19.881,0Zm0,0" transform="translate(-0.161 0.001)" fill="#8bffbc"/>
        <path id="Path_4153-7" data-name="Path 4153" d="M156.677,67.148a5.365,5.365,0,1,0,5.365,5.365A5.365,5.365,0,0,0,156.677,67.148Zm0,9.342a3.977,3.977,0,1,1,3.977-3.977A3.977,3.977,0,0,1,156.677,76.49Zm0,0" transform="translate(-140.824 -62.489)" fill="#8bffbc"/>
      </g>
      <g id="user-8" data-name="user" transform="translate(1149.438 2303.561)">
        <path id="Path_4152-8" data-name="Path 4152" d="M15.983,0A15.855,15.855,0,1,0,27.171,4.633,15.821,15.821,0,0,0,15.983,0ZM7.431,27.44V26.071a8.553,8.553,0,1,1,17.105,0V27.44A14.4,14.4,0,0,1,7.431,27.44Zm18.493-1.163v-.206a9.941,9.941,0,0,0-19.881,0v.206a14.434,14.434,0,1,1,19.881,0Zm0,0" transform="translate(-0.161 0.001)" fill="#8bffbc"/>
        <path id="Path_4153-8" data-name="Path 4153" d="M156.677,67.148a5.365,5.365,0,1,0,5.365,5.365A5.365,5.365,0,0,0,156.677,67.148Zm0,9.342a3.977,3.977,0,1,1,3.977-3.977A3.977,3.977,0,0,1,156.677,76.49Zm0,0" transform="translate(-140.824 -62.489)" fill="#8bffbc"/>
      </g>
      <g id="user-9" data-name="user" transform="translate(1235.438 2453.561)">
        <path id="Path_4152-9" data-name="Path 4152" d="M15.983,0A15.855,15.855,0,1,0,27.171,4.633,15.821,15.821,0,0,0,15.983,0ZM7.431,27.44V26.071a8.553,8.553,0,1,1,17.105,0V27.44A14.4,14.4,0,0,1,7.431,27.44Zm18.493-1.163v-.206a9.941,9.941,0,0,0-19.881,0v.206a14.434,14.434,0,1,1,19.881,0Zm0,0" transform="translate(-0.161 0.001)" fill="#8bffbc"/>
        <path id="Path_4153-9" data-name="Path 4153" d="M156.677,67.148a5.365,5.365,0,1,0,5.365,5.365A5.365,5.365,0,0,0,156.677,67.148Zm0,9.342a3.977,3.977,0,1,1,3.977-3.977A3.977,3.977,0,0,1,156.677,76.49Zm0,0" transform="translate(-140.824 -62.489)" fill="#8bffbc"/>
      </g>
      <g id="user-10" data-name="user" transform="translate(941.64 2430.561)">
        <path id="Path_4152-10" data-name="Path 4152" d="M15.983,0A15.855,15.855,0,1,0,27.171,4.633,15.821,15.821,0,0,0,15.983,0ZM7.431,27.44V26.071a8.553,8.553,0,1,1,17.105,0V27.44A14.4,14.4,0,0,1,7.431,27.44Zm18.493-1.163v-.206a9.941,9.941,0,0,0-19.881,0v.206a14.434,14.434,0,1,1,19.881,0Zm0,0" transform="translate(-0.161 0.001)" fill="#8bffbc"/>
        <path id="Path_4153-10" data-name="Path 4153" d="M156.677,67.148a5.365,5.365,0,1,0,5.365,5.365A5.365,5.365,0,0,0,156.677,67.148Zm0,9.342a3.977,3.977,0,1,1,3.977-3.977A3.977,3.977,0,0,1,156.677,76.49Zm0,0" transform="translate(-140.824 -62.489)" fill="#8bffbc"/>
      </g>
      <g id="user-11" data-name="user" transform="translate(1089.64 2303.561)">
        <path id="Path_4152-11" data-name="Path 4152" d="M15.983,0A15.855,15.855,0,1,0,27.171,4.633,15.821,15.821,0,0,0,15.983,0ZM7.431,27.44V26.071a8.553,8.553,0,1,1,17.105,0V27.44A14.4,14.4,0,0,1,7.431,27.44Zm18.493-1.163v-.206a9.941,9.941,0,0,0-19.881,0v.206a14.434,14.434,0,1,1,19.881,0Zm0,0" transform="translate(-0.161 0.001)" fill="#8bffbc"/>
        <path id="Path_4153-11" data-name="Path 4153" d="M156.677,67.148a5.365,5.365,0,1,0,5.365,5.365A5.365,5.365,0,0,0,156.677,67.148Zm0,9.342a3.977,3.977,0,1,1,3.977-3.977A3.977,3.977,0,0,1,156.677,76.49Zm0,0" transform="translate(-140.824 -62.489)" fill="#8bffbc"/>
      </g>
      <g id="user-12" data-name="user" transform="translate(1175.64 2453.561)">
        <path id="Path_4152-12" data-name="Path 4152" d="M15.983,0A15.855,15.855,0,1,0,27.171,4.633,15.821,15.821,0,0,0,15.983,0ZM7.431,27.44V26.071a8.553,8.553,0,1,1,17.105,0V27.44A14.4,14.4,0,0,1,7.431,27.44Zm18.493-1.163v-.206a9.941,9.941,0,0,0-19.881,0v.206a14.434,14.434,0,1,1,19.881,0Zm0,0" transform="translate(-0.161 0.001)" fill="#8bffbc"/>
        <path id="Path_4153-12" data-name="Path 4153" d="M156.677,67.148a5.365,5.365,0,1,0,5.365,5.365A5.365,5.365,0,0,0,156.677,67.148Zm0,9.342a3.977,3.977,0,1,1,3.977-3.977A3.977,3.977,0,0,1,156.677,76.49Zm0,0" transform="translate(-140.824 -62.489)" fill="#8bffbc"/>
      </g>
      <g id="user-13" data-name="user" transform="translate(895.992 2451.558)">
        <path id="Path_4152-13" data-name="Path 4152" d="M15.983,0A15.855,15.855,0,1,0,27.171,4.633,15.821,15.821,0,0,0,15.983,0ZM7.431,27.44V26.071a8.553,8.553,0,1,1,17.105,0V27.44A14.4,14.4,0,0,1,7.431,27.44Zm18.493-1.163v-.206a9.941,9.941,0,0,0-19.881,0v.206a14.434,14.434,0,1,1,19.881,0Zm0,0" transform="translate(-0.161 0.001)" fill="#8bffbc"/>
        <path id="Path_4153-13" data-name="Path 4153" d="M156.677,67.148a5.365,5.365,0,1,0,5.365,5.365A5.365,5.365,0,0,0,156.677,67.148Zm0,9.342a3.977,3.977,0,1,1,3.977-3.977A3.977,3.977,0,0,1,156.677,76.49Zm0,0" transform="translate(-140.824 -62.489)" fill="#8bffbc"/>
      </g>
      <g id="user-14" data-name="user" transform="translate(1043.992 2324.558)">
        <path id="Path_4152-14" data-name="Path 4152" d="M15.983,0A15.855,15.855,0,1,0,27.171,4.633,15.821,15.821,0,0,0,15.983,0ZM7.431,27.44V26.071a8.553,8.553,0,1,1,17.105,0V27.44A14.4,14.4,0,0,1,7.431,27.44Zm18.493-1.163v-.206a9.941,9.941,0,0,0-19.881,0v.206a14.434,14.434,0,1,1,19.881,0Zm0,0" transform="translate(-0.161 0.001)" fill="#8bffbc"/>
        <path id="Path_4153-14" data-name="Path 4153" d="M156.677,67.148a5.365,5.365,0,1,0,5.365,5.365A5.365,5.365,0,0,0,156.677,67.148Zm0,9.342a3.977,3.977,0,1,1,3.977-3.977A3.977,3.977,0,0,1,156.677,76.49Zm0,0" transform="translate(-140.824 -62.489)" fill="#8bffbc"/>
      </g>
      <g id="user-15" data-name="user" transform="translate(1129.992 2474.558)">
        <path id="Path_4152-15" data-name="Path 4152" d="M15.983,0A15.855,15.855,0,1,0,27.171,4.633,15.821,15.821,0,0,0,15.983,0ZM7.431,27.44V26.071a8.553,8.553,0,1,1,17.105,0V27.44A14.4,14.4,0,0,1,7.431,27.44Zm18.493-1.163v-.206a9.941,9.941,0,0,0-19.881,0v.206a14.434,14.434,0,1,1,19.881,0Zm0,0" transform="translate(-0.161 0.001)" fill="#8bffbc"/>
        <path id="Path_4153-15" data-name="Path 4153" d="M156.677,67.148a5.365,5.365,0,1,0,5.365,5.365A5.365,5.365,0,0,0,156.677,67.148Zm0,9.342a3.977,3.977,0,1,1,3.977-3.977A3.977,3.977,0,0,1,156.677,76.49Zm0,0" transform="translate(-140.824 -62.489)" fill="#8bffbc"/>
      </g>
      <g id="user-16" data-name="user" transform="translate(969.941 2470.73)">
        <path id="Path_4152-16" data-name="Path 4152" d="M15.983,0A15.855,15.855,0,1,0,27.171,4.633,15.821,15.821,0,0,0,15.983,0ZM7.431,27.44V26.071a8.553,8.553,0,1,1,17.105,0V27.44A14.4,14.4,0,0,1,7.431,27.44Zm18.493-1.163v-.206a9.941,9.941,0,0,0-19.881,0v.206a14.434,14.434,0,1,1,19.881,0Zm0,0" transform="translate(-0.161 0.001)" fill="#8bffbc"/>
        <path id="Path_4153-16" data-name="Path 4153" d="M156.677,67.148a5.365,5.365,0,1,0,5.365,5.365A5.365,5.365,0,0,0,156.677,67.148Zm0,9.342a3.977,3.977,0,1,1,3.977-3.977A3.977,3.977,0,0,1,156.677,76.49Zm0,0" transform="translate(-140.824 -62.489)" fill="#8bffbc"/>
      </g>
      <g id="user-17" data-name="user" transform="translate(1117.941 2343.73)">
        <path id="Path_4152-17" data-name="Path 4152" d="M15.983,0A15.855,15.855,0,1,0,27.171,4.633,15.821,15.821,0,0,0,15.983,0ZM7.431,27.44V26.071a8.553,8.553,0,1,1,17.105,0V27.44A14.4,14.4,0,0,1,7.431,27.44Zm18.493-1.163v-.206a9.941,9.941,0,0,0-19.881,0v.206a14.434,14.434,0,1,1,19.881,0Zm0,0" transform="translate(-0.161 0.001)" fill="#8bffbc"/>
        <path id="Path_4153-17" data-name="Path 4153" d="M156.677,67.148a5.365,5.365,0,1,0,5.365,5.365A5.365,5.365,0,0,0,156.677,67.148Zm0,9.342a3.977,3.977,0,1,1,3.977-3.977A3.977,3.977,0,0,1,156.677,76.49Zm0,0" transform="translate(-140.824 -62.489)" fill="#8bffbc"/>
      </g>
      <g id="user-18" data-name="user" transform="translate(1203.941 2493.73)">
        <path id="Path_4152-18" data-name="Path 4152" d="M15.983,0A15.855,15.855,0,1,0,27.171,4.633,15.821,15.821,0,0,0,15.983,0ZM7.431,27.44V26.071a8.553,8.553,0,1,1,17.105,0V27.44A14.4,14.4,0,0,1,7.431,27.44Zm18.493-1.163v-.206a9.941,9.941,0,0,0-19.881,0v.206a14.434,14.434,0,1,1,19.881,0Zm0,0" transform="translate(-0.161 0.001)" fill="#8bffbc"/>
        <path id="Path_4153-18" data-name="Path 4153" d="M156.677,67.148a5.365,5.365,0,1,0,5.365,5.365A5.365,5.365,0,0,0,156.677,67.148Zm0,9.342a3.977,3.977,0,1,1,3.977-3.977A3.977,3.977,0,0,1,156.677,76.49Zm0,0" transform="translate(-140.824 -62.489)" fill="#8bffbc"/>
      </g>
    </g>
  </g>
</svg>
