<svg xmlns="http://www.w3.org/2000/svg" width="207.128" height="211.302" viewBox="0 0 207.128 211.302">
  <g id="Group_3078" data-name="Group 3078" transform="translate(-631.872 -241)">
    <g id="Group_3077" data-name="Group 3077">
      <g id="Ellipse_285" data-name="Ellipse 285" transform="translate(649 241)" fill="none" stroke="#fba58a" stroke-width="3">
        <circle cx="95" cy="95" r="95" stroke="none"/>
        <circle cx="95" cy="95" r="93.5" fill="none"/>
      </g>
      <g id="noun_support_3006451" transform="translate(695.945 236)">
        <path id="Path_4156" data-name="Path 4156" d="M153.146,9c-13.679-.023-30.287,2.019-39.778,11.631a2.2,2.2,0,0,0-.138.206c-9.077,11.171-8.76,22.7-8.74,35.167L17.706,145.54a2.2,2.2,0,1,0,3.166,3.028l87.4-90.155a2.2,2.2,0,0,0,.619-1.514c0-12.872-.617-22.984,7.57-33.172l.069-.069c.022-.027.047-.042.069-.069,7.221-7.18,20.847-9.674,33.172-10.048L132.637,35.909a2.2,2.2,0,0,0,.482,2.409l17.893,18.031a2.2,2.2,0,0,0,2.478.482l22.023-17.205c-.374,12.486-2.9,26.271-9.979,33.585-.042.044-.1.094-.138.138-10.055,8.286-19.977,7.708-32.69,7.708a2.2,2.2,0,0,0-1.583.619l-88.779,88.71a2.2,2.2,0,1,0,3.1,3.1L133.6,85.46c12.3.02,23.723.314,34.754-8.878a2.205,2.205,0,0,0,.206-.138c9.485-9.616,11.515-26.417,11.493-40.26a2.2,2.2,0,0,0-3.1-2.065L153.077,52.151l-15.829-15.9L155.21,12.028A2.2,2.2,0,0,0,153.146,9Z" transform="translate(-81 42)" fill="#91f9b9"/>
      </g>
    </g>
  </g>
</svg>
