<svg xmlns="http://www.w3.org/2000/svg" width="353.477" height="223.731" viewBox="0 0 353.477 223.731">
  <g id="Group_3063" data-name="Group 3063" transform="translate(-136.158 -1919.623)">
    <g id="Group_3062" data-name="Group 3062">
      <g id="Group_3037" data-name="Group 3037">
        <path id="Path_3862" data-name="Path 3862" d="M43.683,174.851V44.559" transform="translate(419.594 1979.934) rotate(90)" fill="none" stroke="#fba58a" stroke-width="1" stroke-dasharray="5 4"/>
        <g id="Group_2853" data-name="Group 2853" transform="translate(-718.479 1377.316) rotate(-2)">
          <g id="Group_2842" data-name="Group 2842" transform="matrix(0.996, -0.087, 0.087, 0.996, 834.746, 584.511)">
            <g id="Group_2829" data-name="Group 2829" transform="translate(4.903 6.095)">
              <g id="Group_2692" data-name="Group 2692">
                <g id="Group_2691" data-name="Group 2691">
                  <g id="Group_2690" data-name="Group 2690">
                    <g id="Group_2689" data-name="Group 2689">
                      <g id="Group_2688" data-name="Group 2688">
                        <path id="Path_3694" data-name="Path 3694" d="M83.74.4,69.762.331a3.466,3.466,0,0,0-3.379,3.511V6.36A3.424,3.424,0,0,1,63,9.871l-27.3-.133A3.482,3.482,0,0,1,32.33,6.161V3.644A3.482,3.482,0,0,0,28.951.066h-4.9L11.793,0A11.013,11.013,0,0,0,.729,10.931L0,187.488a11.056,11.056,0,0,0,10.931,11.064l72.014.331a11.013,11.013,0,0,0,11.064-10.931L94.738,11.4A11.143,11.143,0,0,0,83.74.4Z" fill="#fff"/>
                      </g>
                    </g>
                  </g>
                </g>
              </g>
            </g>
            <g id="Group_2830" data-name="Group 2830" transform="translate(0 0)">
              <path id="Path_3713" data-name="Path 3713" d="M88.71.332,16.563,0A15.65,15.65,0,0,0,.8,15.636L0,196.5a15.65,15.65,0,0,0,15.635,15.768l72.147.331a15.65,15.65,0,0,0,15.768-15.635l.8-180.863A15.692,15.692,0,0,0,88.71.332ZM98.846,194.18a10.929,10.929,0,0,1-11.064,10.931l-72.014-.331A10.929,10.929,0,0,1,4.837,193.716L5.565,17.159A10.929,10.929,0,0,1,16.629,6.228l12.256.066h4.9a3.482,3.482,0,0,1,3.379,3.578v2.518a3.482,3.482,0,0,0,3.379,3.578l27.3.133a3.466,3.466,0,0,0,3.379-3.511V10.07A3.424,3.424,0,0,1,74.6,6.559l13.979.066A10.929,10.929,0,0,1,99.508,17.689Z" fill="#8bffbc"/>
            </g>
          </g>
        </g>
        <g id="Group_2910" data-name="Group 2910" transform="matrix(-0.999, -0.035, 0.035, -0.999, 482.243, 2144)">
          <g id="Group_2842-2" data-name="Group 2842" transform="matrix(0.996, 0.087, -0.087, 0.996, 18.529, 0)">
            <g id="Group_2829-2" data-name="Group 2829" transform="translate(4.903 7.619)">
              <g id="Group_2692-2" data-name="Group 2692">
                <g id="Group_2691-2" data-name="Group 2691">
                  <g id="Group_2690-2" data-name="Group 2690">
                    <g id="Group_2689-2" data-name="Group 2689">
                      <g id="Group_2688-2" data-name="Group 2688">
                        <path id="Path_3694-2" data-name="Path 3694" d="M83.74,198.486l-13.979.066a3.466,3.466,0,0,1-3.379-3.511v-2.518A3.424,3.424,0,0,0,63,189.012l-27.3.133a3.482,3.482,0,0,0-3.379,3.577v2.518a3.482,3.482,0,0,1-3.379,3.578h-4.9l-12.256.066A11.013,11.013,0,0,1,.729,187.952L0,11.4A11.056,11.056,0,0,1,10.931.331L82.945,0A11.013,11.013,0,0,1,94.009,10.931l.729,176.557A11.143,11.143,0,0,1,83.74,198.486Z" fill="#fff"/>
                      </g>
                    </g>
                  </g>
                </g>
              </g>
            </g>
            <g id="Group_2830-2" data-name="Group 2830" transform="translate(0 0)">
              <path id="Path_3713-2" data-name="Path 3713" d="M88.71,212.267l-72.147.331A15.65,15.65,0,0,1,.8,196.963L0,16.1A15.65,15.65,0,0,1,15.636.332L87.782,0A15.65,15.65,0,0,1,103.55,15.636l.8,180.863A15.692,15.692,0,0,1,88.71,212.267ZM98.846,18.418A10.929,10.929,0,0,0,87.782,7.487l-72.014.331A10.929,10.929,0,0,0,4.837,18.882l.729,176.557A10.929,10.929,0,0,0,16.629,206.37l12.256-.066h4.9a3.482,3.482,0,0,0,3.379-3.577v-2.518a3.482,3.482,0,0,1,3.379-3.578l27.3-.133a3.466,3.466,0,0,1,3.379,3.511v2.518a3.424,3.424,0,0,0,3.379,3.511l13.979-.066a10.929,10.929,0,0,0,10.931-11.064Z" fill="#8bffbc"/>
            </g>
          </g>
        </g>
        <g id="Ellipse_284" data-name="Ellipse 284" transform="translate(295 2002)" fill="#fff" stroke="#fba58a" stroke-width="4">
          <circle cx="21.5" cy="21.5" r="21.5" stroke="none"/>
          <circle cx="21.5" cy="21.5" r="19.5" fill="none"/>
        </g>
        <text id="P2P" transform="translate(302 2029)" fill="#292929" font-size="12" font-family="RetroComputer, Retro Computer"><tspan x="0" y="0">P2P</tspan></text>
      </g>
    </g>
  </g>
</svg>
