<svg xmlns="http://www.w3.org/2000/svg" xmlns:xlink="http://www.w3.org/1999/xlink" width="433.926" height="302.303" viewBox="0 0 433.926 302.303">
  <defs>
    <clipPath id="clip-path">
      <rect width="152.738" height="222.034" fill="none"/>
    </clipPath>
  </defs>
  <g id="Group_3070" data-name="Group 3070" transform="translate(-801.322 -1909.683)">
    <g id="Group_3069" data-name="Group 3069">
      <g id="wifi" transform="translate(818.466 1909.683)" opacity="0.215">
        <g id="Group_2850" data-name="Group 2850" transform="translate(0 0)">
          <path id="Path_3739" data-name="Path 3739" d="M78.153,217.2a21.443,21.443,0,1,0,30.324,30.324c57.706-57.706,151.621-57.706,209.328,0A21.414,21.414,0,1,0,348.047,217.2C273.667,142.734,152.533,142.734,78.153,217.2Z" transform="translate(-13.131 -78.285)" fill="#b5b5b5"/>
          <path id="Path_3740" data-name="Path 3740" d="M148.953,293.355a21.443,21.443,0,1,0,30.324,30.324,66.105,66.105,0,0,1,93.507,0,21.385,21.385,0,1,0,30.243-30.243A108.951,108.951,0,0,0,148.953,293.355Z" transform="translate(-26.062 -96.574)" fill="#b5b5b5"/>
          <ellipse id="Ellipse_211" data-name="Ellipse 211" cx="28.526" cy="28.526" rx="28.526" ry="28.526" transform="translate(171.443 245.251)" fill="#b5b5b5"/>
          <path id="Path_3741" data-name="Path 3741" d="M393.685,139.786c-106.83-106.748-280.6-106.748-387.432,0A21.442,21.442,0,0,0,36.577,170.11c90.074-90.155,236.709-90.155,326.865,0a21.414,21.414,0,1,0,30.243-30.324Z" transform="translate(0 -59.725)" fill="#b5b5b5"/>
        </g>
      </g>
      <g id="Repeat_Grid_2" data-name="Repeat Grid 2" transform="translate(1082.51 1975.309)" clip-path="url(#clip-path)">
        <g transform="translate(-1082.51 -372.309)">
          <rect id="Rectangle_1565" data-name="Rectangle 1565" width="98" height="202" rx="20" transform="matrix(0.966, 0.259, -0.259, 0.966, 1134.791, 372.309)" fill="#fff"/>
        </g>
      </g>
      <g id="Repeat_Grid_3" data-name="Repeat Grid 3" transform="translate(821.51 1965.309)" clip-path="url(#clip-path)">
        <g transform="translate(-1082.51 -372.309)">
          <rect id="Rectangle_1565-2" data-name="Rectangle 1565" width="98" height="202" rx="20" transform="translate(1065.168 410.634) rotate(-18)" fill="#fff"/>
        </g>
      </g>
      <g id="Group_2949" data-name="Group 2949" transform="translate(963.574 2049.974)">
        <path id="Path_3894" data-name="Path 3894" d="M20.59,12.95a.339.339,0,0,1-.542,0L10.733,1.764v104.95a.39.39,0,1,1-.766,0V1.764L.654,12.95a.341.341,0,0,1-.542,0,.529.529,0,0,1,0-.651L10.079.326h0L10.351,0l.27.325v0L20.59,12.3A.533.533,0,0,1,20.59,12.95Z" transform="translate(107.174 0) rotate(90)" fill="#e1582e"/>
        <path id="Path_3930" data-name="Path 3930" d="M20.59,94.224a.339.339,0,0,0-.542,0L10.733,105.41V.461a.39.39,0,1,0-.766,0V105.41L.654,94.224a.341.341,0,0,0-.542,0,.529.529,0,0,0,0,.651l9.967,11.973h0l.271.326.27-.325v0L20.59,94.875A.533.533,0,0,0,20.59,94.224Z" transform="translate(107.174 0) rotate(90)" fill="#e1582e"/>
      </g>
      <g id="Group_2830" data-name="Group 2830" transform="translate(801.322 2002.885) rotate(-18)">
        <path id="Path_3713" data-name="Path 3713" d="M86.094.322,16.075,0A15.189,15.189,0,0,0,.772,15.175L0,190.705a15.189,15.189,0,0,0,15.174,15.3l70.019.321a15.189,15.189,0,0,0,15.3-15.174l.772-175.531A15.229,15.229,0,0,0,86.094.322Zm9.837,188.133c0,5.915-4.822,12.614-10.738,12.55L15.3,200.684C9.388,200.684,4.63,193.92,4.694,188L5.4,16.653A10.607,10.607,0,0,1,16.139,6.044l11.895.064h4.758a3.379,3.379,0,0,1,3.279,3.472v2.443A3.379,3.379,0,0,0,39.35,15.5l26.49.129a3.363,3.363,0,0,0,3.279-3.408V9.774A3.323,3.323,0,0,1,72.4,6.366l13.567.064A10.607,10.607,0,0,1,96.575,17.168Z" transform="translate(0 0)" fill="#8bffbc"/>
      </g>
      <g id="Group_2982" data-name="Group 2982" transform="translate(1134.149 1973.599) rotate(15)">
        <path id="Path_3713-2" data-name="Path 3713" d="M86.094.322,16.075,0A15.189,15.189,0,0,0,.772,15.175L0,190.705a15.189,15.189,0,0,0,15.174,15.3l70.019.321a15.189,15.189,0,0,0,15.3-15.174l.772-175.531A15.229,15.229,0,0,0,86.094.322Zm9.837,188.133c0,5.915-4.822,12.614-10.738,12.55L15.3,200.684C9.388,200.684,4.63,193.92,4.694,188L5.4,16.653A10.607,10.607,0,0,1,16.139,6.044l11.895.064h4.758a3.379,3.379,0,0,1,3.279,3.472v2.443A3.379,3.379,0,0,0,39.35,15.5l26.49.129a3.363,3.363,0,0,0,3.279-3.408V9.774A3.323,3.323,0,0,1,72.4,6.366l13.567.064A10.607,10.607,0,0,1,96.575,17.168Z" transform="translate(0 0)" fill="#8bffbc"/>
      </g>
    </g>
  </g>
</svg>
