<svg xmlns="http://www.w3.org/2000/svg" xmlns:xlink="http://www.w3.org/1999/xlink" width="368" height="245.263" viewBox="0 0 368 245.263">
  <defs>
    <linearGradient id="linear-gradient" x1="0.994" y1="0.521" x2="0.007" y2="0.554" gradientUnits="objectBoundingBox">
      <stop offset="0" stop-color="#fba58a"/>
      <stop offset="1" stop-color="#fba58a" stop-opacity="0"/>
    </linearGradient>
  </defs>
  <g id="Group_3059" data-name="Group 3059" transform="translate(-121 -1293.737)">
    <g id="Group_3058" data-name="Group 3058" transform="translate(-10 2)">
      <path id="Path_4107" data-name="Path 4107" d="M44,126.66v-84.2" transform="translate(380.402 1285.999) rotate(90)" fill="none" stroke="#fba58a" stroke-width="1" stroke-dasharray="5 4"/>
      <path id="Path_4120" data-name="Path 4120" d="M44,126.66v-84.2" transform="translate(384.402 1302.999) rotate(90)" fill="none" stroke="#fba58a" stroke-width="1" stroke-dasharray="5 4"/>
      <line id="Line_74" data-name="Line 74" y1="65" transform="translate(305.5 1372.5)" fill="none" stroke="#fba58a" stroke-width="1"/>
      <line id="Line_72" data-name="Line 72" x1="8" y1="7" transform="translate(301.5 1369.5)" fill="none" stroke="#fba58a" stroke-width="1"/>
      <line id="Line_73" data-name="Line 73" y1="7" x2="8" transform="translate(301.5 1369.5)" fill="none" stroke="#fba58a" stroke-width="1"/>
      <g id="Group_3050" data-name="Group 3050" transform="translate(-398.76 82.837) rotate(10)">
        <rect id="Rectangle_1595" data-name="Rectangle 1595" width="9" height="9" transform="matrix(0.985, -0.174, 0.174, 0.985, 884.295, 1105.937)" fill="#fba58a"/>
        <rect id="Rectangle_1596" data-name="Rectangle 1596" width="9" height="9" transform="matrix(0.985, -0.174, 0.174, 0.985, 879.295, 1106.937)" fill="url(#linear-gradient)"/>
      </g>
      <g id="Group_3051" data-name="Group 3051" transform="translate(998.775 2594.337) rotate(-170)">
        <rect id="Rectangle_1595-2" data-name="Rectangle 1595" width="9" height="9" transform="matrix(0.985, -0.174, 0.174, 0.985, 884.295, 1105.937)" fill="#fba58a"/>
        <rect id="Rectangle_1596-2" data-name="Rectangle 1596" width="9" height="9" transform="matrix(0.985, -0.174, 0.174, 0.985, 879.295, 1106.937)" fill="url(#linear-gradient)"/>
      </g>
      <g id="Buy" transform="translate(129 1231.737)">
        <g id="Group_3049" data-name="Group 3049" transform="translate(185 58)">
          <path id="Path_4110" data-name="Path 4110" d="M161.45,2h-18.3a3.05,3.05,0,0,0-3.05,3.05V6.215l-6.5-3.251A9.193,9.193,0,0,0,129.51,2H84.81A9.15,9.15,0,0,0,79.1,4.007L66.348,14.2H15.05A3.05,3.05,0,0,0,12,17.25v48.8a3.05,3.05,0,0,0,3.05,3.05h91.5a3.05,3.05,0,0,0,3.05-3.05V43.016a27.529,27.529,0,0,0,24.226-1.976L137.9,38.6h2.2v3.05a3.05,3.05,0,0,0,3.05,3.05h18.3a3.05,3.05,0,0,0,3.05-3.05V5.05A3.05,3.05,0,0,0,161.45,2ZM18.1,63V20.3H91.083l-3.419,3.422A9.149,9.149,0,1,0,100.6,36.661l2.9-2.9V63ZM137.032,32.5a3.029,3.029,0,0,0-1.552.436l-4.792,2.873a21.441,21.441,0,0,1-19.032,1.47l-2.056-.836V27.663l3.873-3.874,1.574.525a21.484,21.484,0,0,0,13.505,0l3.355-1.119a3.054,3.054,0,0,0-1.928-5.8l-3.355,1.122a15.338,15.338,0,0,1-9.644,0L113.626,17.4a3.05,3.05,0,0,0-3.12.738l-6.1,6.1h0l-8.116,8.11a3.05,3.05,0,1,1-4.313-4.313l11.852-11.855a3.05,3.05,0,1,0-4.313-4.313L97.183,14.2H76.114L82.9,8.768A3.05,3.05,0,0,1,84.81,8.1h44.7a3.108,3.108,0,0,1,1.363.32l9.226,4.615V32.479ZM158.4,38.6H146.2V8.1h12.2Z" transform="translate(20.5 0)" fill="#91f9b9"/>
          <path id="Path_4111" data-name="Path 4111" d="M34.15,18.15A3.05,3.05,0,0,1,37.2,21.2h6.1a9.15,9.15,0,0,0-6.1-8.589V9H31.1v3.611A9.129,9.129,0,0,0,34.15,30.35,3.05,3.05,0,1,1,31.1,33.4H25a9.15,9.15,0,0,0,6.1,8.589V45.6h6.1V41.989A9.129,9.129,0,0,0,34.15,24.25a3.05,3.05,0,0,1,0-6.1Z" transform="translate(47.15 14.35)" fill="#91f9b9"/>
          <path id="Path_4112" data-name="Path 4112" d="M28.15,14h-6.1a3.05,3.05,0,0,0,0,6.1h6.1a3.05,3.05,0,1,0,0-6.1Z" transform="translate(34.85 24.6)" fill="#91f9b9"/>
          <path id="Path_4113" data-name="Path 4113" d="M42.15,14h-6.1a3.05,3.05,0,1,0,0,6.1h6.1a3.05,3.05,0,0,0,0-6.1Z" transform="translate(63.55 24.6)" fill="#91f9b9"/>
        </g>
        <path id="Path_4114" data-name="Path 4114" d="M128.447,53.408a9.116,9.116,0,0,0-12.505-3.355L96.34,61.338A9.15,9.15,0,0,0,87.4,54.1H63.915l-.61-.409a33.452,33.452,0,0,0-36.9-.2V51.05A3.05,3.05,0,0,0,23.35,48H5.05A3.05,3.05,0,0,0,2,51.05v36.6A3.05,3.05,0,0,0,5.05,90.7h18.3a3.05,3.05,0,0,0,3.05-3.05v-.415l2.849,1.891A9.089,9.089,0,0,0,34.361,90.7H79.653a8.912,8.912,0,0,0,4.575-1.22L125.1,65.9a9.2,9.2,0,0,0,4.575-7.948A9.059,9.059,0,0,0,128.447,53.408ZM20.3,84.6H8.1V54.1H20.3ZM122.048,60.609l-40.916,23.6a2.839,2.839,0,0,1-1.479.387H34.361a2.98,2.98,0,0,1-1.7-.528L26.4,79.915V60.2a3.05,3.05,0,0,0,1.69-.509l1.385-.915a27.377,27.377,0,0,1,30.454,0l1.382.915A3.05,3.05,0,0,0,63,60.2H87.4a3.05,3.05,0,0,1,0,6.1H69.1a3.05,3.05,0,1,0,0,6.1H87.4a9.077,9.077,0,0,0,6.042-2.33l25.58-14.75a2.952,2.952,0,0,1,2.275-.3,3.032,3.032,0,0,1,1.864,1.44,2.946,2.946,0,0,1,.412,1.488,3.084,3.084,0,0,1-1.525,2.666Z" transform="translate(0 94.3)" fill="#91f9b9"/>
        <path id="Path_4115" data-name="Path 4115" d="M96.35,28H17.05A3.05,3.05,0,0,0,14,31.05v54.9A3.05,3.05,0,0,0,17.05,89h79.3a3.05,3.05,0,0,0,3.05-3.05V31.05A3.05,3.05,0,0,0,96.35,28Zm-36.6,6.1V46.3h-6.1V34.1ZM93.3,82.9H20.1V34.1H47.55V49.35A3.05,3.05,0,0,0,50.6,52.4H62.8a3.05,3.05,0,0,0,3.05-3.05V34.1H93.3Z" transform="translate(24.6 53.3)" fill="#91f9b9"/>
        <path id="Path_4116" data-name="Path 4116" d="M32.25,40H20.05a3.05,3.05,0,0,0,0,6.1h12.2a3.05,3.05,0,0,0,0-6.1Z" transform="translate(30.75 77.9)" fill="#91f9b9"/>
        <path id="Path_4117" data-name="Path 4117" d="M30.1,40H27.05a3.05,3.05,0,0,0,0,6.1H30.1a3.05,3.05,0,1,0,0-6.1Z" transform="translate(45.1 77.9)" fill="#91f9b9"/>
        <path id="Path_4118" data-name="Path 4118" d="M32.25,43H20.05a3.05,3.05,0,1,0,0,6.1h12.2a3.05,3.05,0,1,0,0-6.1Z" transform="translate(30.75 84.05)" fill="#91f9b9"/>
        <path id="Path_4119" data-name="Path 4119" d="M30.1,43H27.05a3.05,3.05,0,1,0,0,6.1H30.1a3.05,3.05,0,1,0,0-6.1Z" transform="translate(45.1 84.05)" fill="#91f9b9"/>
      </g>
      <g id="Rectangle_1597" data-name="Rectangle 1597" transform="translate(131 1437)" fill="none" stroke="#fba48a" stroke-width="1">
        <rect width="368" height="100" stroke="none"/>
        <rect x="0.5" y="0.5" width="367" height="99" fill="none"/>
      </g>
      <g id="clock" transform="translate(346.967 1452)">
        <path id="Path_4121" data-name="Path 4121" d="M101.213,6.96A27.066,27.066,0,0,0,61.268,43.069a3.617,3.617,0,0,1,.655,2.131V60.067a5.909,5.909,0,0,0,1.729,4.171,6.005,6.005,0,0,0,7.471.768A5.507,5.507,0,0,0,73.7,60.1a3.524,3.524,0,0,1,3.363-3.566,3.378,3.378,0,0,1,2.483.962,3.931,3.931,0,0,1,1.219,2.837v4.239a6.041,6.041,0,0,0,5.315,6.062c.187.018.373.026.559.026a5.888,5.888,0,0,0,5.9-5.875V53.591a1.777,1.777,0,0,1,.515-1.251,1.751,1.751,0,0,1,1.143-.516,1.7,1.7,0,0,1,1.233.471,2.042,2.042,0,0,1,.642,1.483v3.345a4.157,4.157,0,0,0,1.2,2.917,4.113,4.113,0,0,0,2.667,1.2,3.968,3.968,0,0,0,2.99-1.106,4.408,4.408,0,0,0,1.382-3.2V45.216a3.65,3.65,0,0,1,.662-2.154,27.028,27.028,0,0,0-3.763-36.1Zm1.863,34.709a5.946,5.946,0,0,0-1.116,3.547V56.935a2.045,2.045,0,0,1-.642,1.481,1.728,1.728,0,0,1-1.235.471,1.752,1.752,0,0,1-1.141-.512,1.777,1.777,0,0,1-.515-1.252V53.778a4.406,4.406,0,0,0-1.382-3.195,4,4,0,0,0-2.987-1.106,4.114,4.114,0,0,0-2.669,1.2,4.157,4.157,0,0,0-1.2,2.917V64.777a3.532,3.532,0,0,1-3.531,3.534q-.178,0-.354-.018a3.67,3.67,0,0,1-3.179-3.717V60.337A6.3,6.3,0,0,0,81.17,55.8a5.7,5.7,0,0,0-3.952-1.62c-.089,0-.179,0-.268.006a5.882,5.882,0,0,0-5.606,5.937,3.189,3.189,0,0,1-1.421,2.859,3.66,3.66,0,0,1-4.605-.409,3.554,3.554,0,0,1-1.039-2.506V45.2a5.906,5.906,0,0,0-1.109-3.522,24.728,24.728,0,1,1,39.907-.009Z" transform="translate(0 0)" fill="#fba58a"/>
        <g id="Group_3052" data-name="Group 3052" transform="translate(60.746 4.723)">
          <path id="Path_4122" data-name="Path 4122" d="M110.426,32.09A22.373,22.373,0,1,0,132.8,54.463,22.373,22.373,0,0,0,110.426,32.09ZM111.6,74.421V70.949a1.178,1.178,0,0,0-2.355,0v3.473A20.011,20.011,0,0,1,90.468,55.641h3.473a1.178,1.178,0,0,0,0-2.355H90.468a20.011,20.011,0,0,1,18.781-18.781v3.473a1.178,1.178,0,1,0,2.355,0V34.505a20.011,20.011,0,0,1,18.781,18.781h-3.473a1.178,1.178,0,1,0,0,2.355h3.473A20.011,20.011,0,0,1,111.6,74.421Z" transform="translate(-88.053 -32.09)" fill="#fba58a"/>
          <path id="Path_4123" data-name="Path 4123" d="M188.071,165.149a3.523,3.523,0,1,0-6.359,0l-5.982,5.982a1.178,1.178,0,0,0,1.636,1.694l.029-.029,5.982-5.982a3.415,3.415,0,0,0,3.024,0l9.312,9.312a1.178,1.178,0,0,0,1.665-1.665Zm-4.01-.679a1.178,1.178,0,1,1,1.665,0h0a1.177,1.177,0,0,1-1.665,0l0,0Z" transform="translate(-162.518 -141.264)" fill="#fba58a"/>
          <path id="Path_4124" data-name="Path 4124" d="M339.586,432.09a3.533,3.533,0,1,0,3.533,3.533A3.533,3.533,0,0,0,339.586,432.09Zm0,4.71a1.178,1.178,0,1,1,1.178-1.178A1.178,1.178,0,0,1,339.586,436.8Z" transform="translate(-299.549 -373.213)" fill="#fba58a"/>
        </g>
      </g>
      <g id="fraud" transform="translate(282 1455.766)">
        <path id="Path_4125" data-name="Path 4125" d="M77.323,55.722A21.832,21.832,0,1,0,55.492,77.554,21.832,21.832,0,0,0,77.323,55.722Zm-41.584,0A19.752,19.752,0,1,1,55.492,75.475,19.753,19.753,0,0,1,35.739,55.722Zm0,0" transform="translate(-29.422 -29.42)" fill="#fba58a"/>
        <path id="Path_4126" data-name="Path 4126" d="M56.094,50.447l0,0,0,0-2.2-2.2a2.062,2.062,0,0,0-1.469-.61h0a2.07,2.07,0,0,0-.532.077l-2.613-2.613a2.072,2.072,0,0,0-.531-2l-1.6-1.605a26.028,26.028,0,1,0-5.878,5.881l1.594,1.605a2.024,2.024,0,0,0,2,.53l2.613,2.613a2.023,2.023,0,0,0,.532,2l2.2,2.2,0,0,0,0,5.143,5.143a4.158,4.158,0,1,0,5.88-5.88ZM2.159,26.3A23.911,23.911,0,1,1,44.548,41.46l-.076.091a24.148,24.148,0,0,1-3.142,3.144l-.112.093A23.9,23.9,0,0,1,2.159,26.3ZM43.333,45.708c.2-.177.392-.357.585-.539q.527-.5,1.025-1.026c.18-.191.359-.383.534-.579.126-.141.262-.272.385-.417l1.407,1.413,0,0-2.94,2.94h0l-1.408-1.417C43.064,45.967,43.194,45.832,43.333,45.708Zm4.673,1.061,2.205,2.205-1.47,1.47-2.205-2.205Zm4.411,2.94,1.47,1.471-2.94,2.94-1.47-1.471ZM59.767,60a2.129,2.129,0,0,1-2.94,0l-4.411-4.411,2.94-2.94,4.411,4.411a2.079,2.079,0,0,1,0,2.94Zm0,0" transform="translate(0 0)" fill="#fba58a"/>
        <path id="Path_4127" data-name="Path 4127" d="M118.228,106.036a11.513,11.513,0,0,1,1.857-2.179,6.107,6.107,0,0,0,2.257-5.47,5.556,5.556,0,0,0,2.243-3.543c.41-3.532-.557-3.985-.922-4.156a1.709,1.709,0,0,0-.7-.161c0-.17,0-.358,0-.536,2.369-1.112,3.793-2.655,3.793-4.414,0-2.131-2.054-3.967-5.628-5.109a19.7,19.7,0,0,0-1.247-4.058,2.083,2.083,0,0,0-3.06-.875c-.165.111-.344.243-.54.386a4.118,4.118,0,0,1-6.079,0c-.2-.143-.376-.275-.54-.386a2.081,2.081,0,0,0-3.058.874,19.668,19.668,0,0,0-1.249,4.059c-3.575,1.142-5.629,2.978-5.629,5.109,0,1.759,1.425,3.3,3.793,4.414,0,.177-.006.365,0,.535a1.708,1.708,0,0,0-.7.163c-.365.171-1.332.624-.918,4.191a5.554,5.554,0,0,0,2.24,3.508,6.107,6.107,0,0,0,2.257,5.47,11.477,11.477,0,0,1,1.857,2.179c.834,1.185,1.7,2.412,3.758,2.412h2.465C116.533,108.448,117.395,107.222,118.228,106.036Zm-12.59-14.172c-.02-.347-.037-.7-.043-1.081a24.687,24.687,0,0,0,5.446.948l.3.02c.24.014.48.029.725.037.045,0,.088.006.133.008v1.535a7.078,7.078,0,0,1-3.119.561A4.087,4.087,0,0,1,105.638,91.865Zm8.639-.067c.045,0,.088-.006.133-.008.245-.009.485-.023.725-.037l.3-.02a24.687,24.687,0,0,0,5.446-.948c-.006.381-.023.734-.043,1.081a4.09,4.09,0,0,1-3.441,2.029,7.141,7.141,0,0,1-3.119-.557ZM108.5,77.263c.142.1.3.209.466.332a6.1,6.1,0,0,0,8.542,0c.168-.124.324-.238.475-.328a18.674,18.674,0,0,1,1.246,4.394c.037.226.066.449.094.673.02.158.043.313.06.475.03.3.049.6.064.9,0,.082.013.161.016.243a13.7,13.7,0,0,1-5.165,1.578c-.344.031-.7.048-1.061.048a12.381,12.381,0,0,1-2.98-.376,14.019,14.019,0,0,1-3.246-1.252c0-.081.012-.159.016-.24.015-.3.034-.6.064-.9.016-.16.039-.315.06-.472.028-.224.058-.448.093-.674A18.394,18.394,0,0,1,108.5,77.263Zm-6.7,8.315c0-.97,1.215-2,3.2-2.794-.006.069,0,.135-.009.2-.042.512-.072,1.028-.072,1.551a1.039,1.039,0,0,0,.463.865,14.811,14.811,0,0,0,15.708,0,1.04,1.04,0,0,0,.463-.865c0-.523-.03-1.04-.072-1.552-.005-.068,0-.134-.009-.2,1.985.789,3.2,1.824,3.2,2.794s-1.2,2-3.2,2.788c-.138.055-.285.1-.428.157a22.61,22.61,0,0,1-6.431,1.177l-.183.011q-.587.024-1.194.025t-1.194-.025l-.184-.011a22.61,22.61,0,0,1-6.431-1.177c-.143-.052-.29-.1-.428-.157C103,87.575,101.8,86.548,101.8,85.577Zm8.145,19.263a13.39,13.39,0,0,0-2.185-2.544c-1.67-1.468-1.612-2.648-1.531-4.28l.008-.168a1.042,1.042,0,0,0-.471-.921.981.981,0,0,0-.2-.1,3.334,3.334,0,0,1-1.618-2.222,11,11,0,0,1-.066-1.619,6.14,6.14,0,0,0,5.191,2.988,8.8,8.8,0,0,0,4.158-.833,8.8,8.8,0,0,0,4.159.833,6.14,6.14,0,0,0,5.191-2.988,10.969,10.969,0,0,1-.06,1.577,3.332,3.332,0,0,1-1.624,2.265.977.977,0,0,0-.2.1,1.041,1.041,0,0,0-.471.921l.008.168c.081,1.632.139,2.812-1.531,4.28a13.39,13.39,0,0,0-2.185,2.544c-.816,1.162-1.12,1.529-2.058,1.529h-2.465C111.067,106.369,110.763,106,109.947,104.84Zm0,0" transform="translate(-87.168 -65.512)" fill="#fba58a"/>
        <path id="Path_4128" data-name="Path 4128" d="M210.933,273.7a1.042,1.042,0,0,0-1.468-.007,2.585,2.585,0,0,1-1.347.738,1.04,1.04,0,1,0,0,2.079,4.566,4.566,0,0,0,2.814-1.344A1.037,1.037,0,0,0,210.933,273.7Zm0,0" transform="translate(-181.009 -238.774)" fill="#fba58a"/>
      </g>
      <g id="fee" transform="translate(163.5 1452)">
        <path id="Path_4129" data-name="Path 4129" d="M316.628,126.863,303.945,133.2l5.385,2.7v4.629a2.145,2.145,0,0,0,2.094,2.094H321.9a2.033,2.033,0,0,0,1.964-2.094V135.9l2.225-1.113v5.742h1.964V132.59Zm5.268,13.663c0,.036.036.131,0,.131H311.425a.235.235,0,0,1-.131-.131v-3.647l5.3,2.65,5.3-2.65Zm-5.235-3.192-8.276-4.138,8.276-4.138,8.276,4.138Zm0,0" transform="translate(-263.806 -110.291)" fill="#fba58a"/>
        <path id="Path_4130" data-name="Path 4130" d="M379.329,41.533h1.964V40.486h2.094v-5.1H379.2V34.2h4.319V32.24h-2.225V31.063h-1.964V32.24h-2.094v5.1h4.188v1.178h-4.188v1.964h2.094Zm0,0" transform="translate(-327.521 -27.005)" fill="#fba58a"/>
        <path id="Path_4131" data-name="Path 4131" d="M305.094,199.391h1.964v6.283h-1.964Zm0,0" transform="translate(-264.804 -173.344)" fill="#fba58a"/>
        <path id="Path_4132" data-name="Path 4132" d="M10.84,44.894V5.1A4.722,4.722,0,0,0,9.786,1.964H37.148A3.1,3.1,0,0,1,40.29,5.1V19.764h1.964V5.1a5.065,5.065,0,0,0-5.1-5.1H5.735A5.177,5.177,0,0,0,.5,5.1v9.424H8.877V35.6H.5v9.293A5.289,5.289,0,0,0,5.735,50.13H28.772V48.166H9.786A5.347,5.347,0,0,0,10.84,44.894ZM2.464,12.565V5.1a3.207,3.207,0,1,1,6.413,0v7.46Zm0,32.329v-7.33H8.877v7.33a3.207,3.207,0,1,1-6.413,0Zm0,0" fill="#fba58a"/>
        <path id="Path_4133" data-name="Path 4133" d="M104.7,48.094h14.659v1.964H104.7Zm0,0" transform="translate(-90.591 -41.811)" fill="#fba58a"/>
        <path id="Path_4134" data-name="Path 4134" d="M128.75,80.156h11.518V82.12H128.75Zm0,0" transform="translate(-111.496 -69.685)" fill="#fba58a"/>
        <path id="Path_4135" data-name="Path 4135" d="M239.105,48.094h-6.152v6.152h6.152Zm-1.964,4.188h-2.225V50.057h2.225Zm0,0" transform="translate(-202.087 -41.811)" fill="#fba58a"/>
        <path id="Path_4136" data-name="Path 4136" d="M104.7,128.25h14.659v1.964H104.7Zm0,0" transform="translate(-90.591 -111.496)" fill="#fba58a"/>
        <path id="Path_4137" data-name="Path 4137" d="M239.105,128.25h-6.152V134.4h6.152Zm-1.964,4.188h-2.225v-2.225h2.225Zm0,0" transform="translate(-202.087 -111.496)" fill="#fba58a"/>
        <path id="Path_4138" data-name="Path 4138" d="M104.7,208.406h14.659v1.964H104.7Zm0,0" transform="translate(-90.591 -181.182)" fill="#fba58a"/>
        <path id="Path_4139" data-name="Path 4139" d="M128.75,240.469h11.518v1.964H128.75Zm0,0" transform="translate(-111.496 -209.056)" fill="#fba58a"/>
        <path id="Path_4140" data-name="Path 4140" d="M232.953,214.558h6.152v-6.152h-6.152Zm1.964-4.188h2.225v2.225h-2.225Zm0,0" transform="translate(-202.087 -181.182)" fill="#fba58a"/>
        <path id="Path_4141" data-name="Path 4141" d="M104.7,288.563h14.659v1.964H104.7Zm0,0" transform="translate(-90.591 -250.867)" fill="#fba58a"/>
        <path id="Path_4142" data-name="Path 4142" d="M128.75,320.625h11.518v1.964H128.75Zm0,0" transform="translate(-111.496 -278.741)" fill="#fba58a"/>
        <path id="Path_4143" data-name="Path 4143" d="M136.766,160.313h2.094v1.964h-2.094Zm0,0" transform="translate(-118.465 -139.371)" fill="#fba58a"/>
        <path id="Path_4144" data-name="Path 4144" d="M168.828,160.313h2.094v1.964h-2.094Zm0,0" transform="translate(-146.339 -139.371)" fill="#fba58a"/>
        <path id="Path_4145" data-name="Path 4145" d="M200.891,160.313h2.094v1.964h-2.094Zm0,0" transform="translate(-174.213 -139.371)" fill="#fba58a"/>
        <path id="Path_4146" data-name="Path 4146" d="M265.016,303.777h14.529v-7.2H265.016Zm1.964-5.235h10.6v3.272h-10.6Zm0,0" transform="translate(-229.961 -257.836)" fill="#fba58a"/>
        <path id="Path_4147" data-name="Path 4147" d="M232.953,296.845h22.905V264.516H232.953Zm1.964-30.366H253.9v28.4H234.917Zm0,0" transform="translate(-202.087 -229.961)" fill="#fba58a"/>
        <path id="Path_4148" data-name="Path 4148" d="M329.141,439h6.152v-6.152h-6.152Zm1.964-4.188h2.225v2.225H331.1Zm0,0" transform="translate(-285.71 -376.301)" fill="#fba58a"/>
        <path id="Path_4149" data-name="Path 4149" d="M329.141,374.871h6.152v-6.152h-6.152Zm1.964-4.188h2.225v2.225H331.1Zm0,0" transform="translate(-285.71 -320.552)" fill="#fba58a"/>
        <path id="Path_4150" data-name="Path 4150" d="M265.016,439h6.152v-6.152h-6.152Zm1.964-4.188H269.2v2.225h-2.225Zm0,0" transform="translate(-229.961 -376.301)" fill="#fba58a"/>
        <path id="Path_4151" data-name="Path 4151" d="M265.016,374.871h6.152v-6.152h-6.152Zm1.964-4.188H269.2v2.225h-2.225Zm0,0" transform="translate(-229.961 -320.552)" fill="#fba58a"/>
      </g>
    </g>
  </g>
</svg>
