<svg xmlns="http://www.w3.org/2000/svg" width="342.049" height="247.322" viewBox="0 0 342.049 247.322">
  <g id="Group_3066" data-name="Group 3066" transform="translate(-900 -1624.256)">
    <g id="Group_3065" data-name="Group 3065">
      <g id="user" transform="translate(901 1658)">
        <path id="Path_4152" data-name="Path 4152" d="M28.665,0A28.563,28.563,0,1,0,48.819,8.348,28.5,28.5,0,0,0,28.665,0ZM13.257,49.435V46.968a15.408,15.408,0,1,1,30.816,0v2.467A25.946,25.946,0,0,1,13.257,49.435Zm33.316-2.1v-.371a17.908,17.908,0,0,0-35.816,0v.371a26,26,0,1,1,35.816,0Zm0,0" transform="translate(-0.161 0.001)" fill="#8bffbc"/>
        <path id="Path_4153" data-name="Path 4153" d="M160.977,67.148a9.665,9.665,0,1,0,9.665,9.665A9.665,9.665,0,0,0,160.977,67.148Zm0,16.829a7.164,7.164,0,1,1,7.164-7.164A7.165,7.165,0,0,1,160.977,83.977Zm0,0" transform="translate(-132.417 -58.754)" fill="#8bffbc"/>
      </g>
      <g id="user-2" data-name="user" transform="translate(1185 1658)">
        <path id="Path_4152-2" data-name="Path 4152" d="M28.665,0A28.563,28.563,0,1,0,48.819,8.348,28.5,28.5,0,0,0,28.665,0ZM13.257,49.435V46.968a15.408,15.408,0,1,1,30.816,0v2.467A25.946,25.946,0,0,1,13.257,49.435Zm33.316-2.1v-.371a17.908,17.908,0,0,0-35.816,0v.371a26,26,0,1,1,35.816,0Zm0,0" transform="translate(-0.161 0.001)" fill="#8bffbc"/>
        <path id="Path_4153-2" data-name="Path 4153" d="M160.977,67.148a9.665,9.665,0,1,0,9.665,9.665A9.665,9.665,0,0,0,160.977,67.148Zm0,16.829a7.164,7.164,0,1,1,7.164-7.164A7.165,7.165,0,0,1,160.977,83.977Zm0,0" transform="translate(-132.417 -58.754)" fill="#8bffbc"/>
      </g>
      <g id="user-3" data-name="user" transform="translate(900 1787)">
        <path id="Path_4152-3" data-name="Path 4152" d="M28.665,0A28.563,28.563,0,1,0,48.819,8.348,28.5,28.5,0,0,0,28.665,0ZM13.257,49.435V46.968a15.408,15.408,0,1,1,30.816,0v2.467A25.946,25.946,0,0,1,13.257,49.435Zm33.316-2.1v-.371a17.908,17.908,0,0,0-35.816,0v.371a26,26,0,1,1,35.816,0Zm0,0" transform="translate(-0.161 0.001)" fill="#8bffbc"/>
        <path id="Path_4153-3" data-name="Path 4153" d="M160.977,67.148a9.665,9.665,0,1,0,9.665,9.665A9.665,9.665,0,0,0,160.977,67.148Zm0,16.829a7.164,7.164,0,1,1,7.164-7.164A7.165,7.165,0,0,1,160.977,83.977Zm0,0" transform="translate(-132.417 -58.754)" fill="#8bffbc"/>
      </g>
      <g id="user-4" data-name="user" transform="translate(1185 1787)">
        <path id="Path_4152-4" data-name="Path 4152" d="M28.665,0A28.563,28.563,0,1,0,48.819,8.348,28.5,28.5,0,0,0,28.665,0ZM13.257,49.435V46.968a15.408,15.408,0,1,1,30.816,0v2.467A25.946,25.946,0,0,1,13.257,49.435Zm33.316-2.1v-.371a17.908,17.908,0,0,0-35.816,0v.371a26,26,0,1,1,35.816,0Zm0,0" transform="translate(-0.161 0.001)" fill="#8bffbc"/>
        <path id="Path_4153-4" data-name="Path 4153" d="M160.977,67.148a9.665,9.665,0,1,0,9.665,9.665A9.665,9.665,0,0,0,160.977,67.148Zm0,16.829a7.164,7.164,0,1,1,7.164-7.164A7.165,7.165,0,0,1,160.977,83.977Zm0,0" transform="translate(-132.417 -58.754)" fill="#8bffbc"/>
      </g>
      <path id="Path_4100" data-name="Path 4100" d="M141.134,1285.6H76.159L49.7,1314.628v218.294h68.9l22.535-36.108Zm-63.014,3.543h57.964L116.714,1314.4H54.751ZM53.243,1529.3V1318.171h62.642V1529.3Zm84.272-33.7-18.087,30V1316.89l18.087-23.374Z" transform="translate(970.915 338.656)" fill="#86feb9"/>
      <text id="Server" transform="translate(1023.049 1748.08)" fill="#9f9e9e" font-size="15" font-family="Roboto-Regular, Roboto"><tspan x="10.812" y="14">Server</tspan></text>
      <path id="Path_3895" data-name="Path 3895" d="M12.3,54.1a.476.476,0,0,0-.674,0L7.053,58.662,3.914,39.541l6.222-11.863L2.688,15.438,12.162,3.055,5.9-9.587a.477.477,0,0,0-.476-.477.477.477,0,0,0-.477.477L11.26,2.9,1.793,15.407l7.42,12.239L2.992,39.509,6.1,58.662,1.533,54.1a.476.476,0,1,0-.674.674L6.24,60.15h0l.338.338.336-.336v0l5.38-5.38A.48.48,0,0,0,12.3,54.1Z" transform="matrix(-0.035, -0.999, 0.999, -0.035, 1123.05, 1698.873)" fill="#e1582e"/>
      <path id="Path_4163" data-name="Path 4163" d="M2.121,14.1,8.344,25.964.9,38.2,10.37,50.588,4.109,63.229a.476.476,0,1,1-.953,0L9.468,50.745,0,38.235,7.421,26,1.2,14.133C1.18,14.1,3.621.363,3.732.221a.427.427,0,0,1,.519-.2.4.4,0,0,1,.32.393Z" transform="translate(956.93 1700.433) rotate(-92)" fill="#e1582e"/>
      <path id="Path_4162" data-name="Path 4162" d="M11.576,6.392a.476.476,0,0,1-.674,0L6.333,1.825,3.194,20.946,9.416,32.81,1.968,45.049l9.474,12.384L5.182,70.075a.476.476,0,1,1-.953,0L10.541,57.59,1.073,45.08,8.493,32.842,2.272,20.978,5.38,1.825.813,6.392a.476.476,0,1,1-.674-.674L5.52.338h0L5.858,0l.336.336v0l5.381,5.38A.48.48,0,0,1,11.576,6.392Z" transform="matrix(-0.035, 0.999, -0.999, -0.035, 1183.476, 1812.799)" fill="#e1582e"/>
      <path id="Path_4161" data-name="Path 4161" d="M-4417.408-10312.049" transform="translate(5585 11999)" fill="none" stroke="#707070" stroke-width="1"/>
      <path id="Path_4164" data-name="Path 4164" d="M2.121,49.6,8.344,37.741.9,25.5,10.37,13.118,4.109.477a.476.476,0,1,0-.953,0L9.468,12.961,0,25.471,7.421,37.709,1.2,49.573C1.18,49.6,3.621,63.343,3.732,63.484a.427.427,0,0,0,.519.2.4.4,0,0,0,.32-.393Z" transform="matrix(-0.035, 0.999, -0.999, -0.035, 1020.597, 1816.07)" fill="#e1582e"/>
    </g>
  </g>
</svg>
