<svg xmlns="http://www.w3.org/2000/svg" width="370" height="344.397" viewBox="0 0 370 344.397">
  <g id="Group_3064" data-name="Group 3064" transform="translate(-135 -1203)">
    <g id="Group_3063" data-name="Group 3063">
      <line id="Line_122" data-name="Line 122" y1="7.401" x2="69.077" transform="translate(300.555 1235.484)" fill="none" stroke="#fba58a" stroke-width="1" stroke-dasharray="5 3"/>
      <line id="Line_147" data-name="Line 147" y1="21.385" x2="55.945" transform="translate(391.555 1402.5)" fill="none" stroke="#fba58a" stroke-width="1" stroke-dasharray="5 3"/>
      <line id="Line_131" data-name="Line 131" x1="54.024" y1="48.622" transform="translate(281.352 1279.31)" fill="none" stroke="#fba58a" stroke-width="1" stroke-dasharray="5 3"/>
      <line id="Line_148" data-name="Line 148" x1="31.148" y1="45.19" transform="translate(372.352 1460.31)" fill="none" stroke="#fba58a" stroke-width="1" stroke-dasharray="5 3"/>
      <line id="Line_146" data-name="Line 146" x1="17.71" y2="47.64" transform="translate(375.894 1261.384)" fill="none" stroke="#fba58a" stroke-width="1" stroke-dasharray="5 3"/>
      <line id="Line_149" data-name="Line 149" x1="19" y2="67" transform="translate(453.5 1429.5)" fill="none" stroke="#fba58a" stroke-width="1" stroke-dasharray="5 3"/>
      <g id="user" transform="translate(243.402 1221.914)">
        <path id="Path_4152" data-name="Path 4152" d="M28.665,0A28.563,28.563,0,1,0,48.819,8.348,28.5,28.5,0,0,0,28.665,0ZM13.257,49.435V46.968a15.408,15.408,0,1,1,30.816,0v2.467A25.946,25.946,0,0,1,13.257,49.435Zm33.316-2.1v-.371a17.908,17.908,0,0,0-35.816,0v.371a26,26,0,1,1,35.816,0Zm0,0" transform="translate(-0.161 0.001)" fill="#8bffbc"/>
        <path id="Path_4153" data-name="Path 4153" d="M160.977,67.148a9.665,9.665,0,1,0,9.665,9.665A9.665,9.665,0,0,0,160.977,67.148Zm0,16.829a7.164,7.164,0,1,1,7.164-7.164A7.165,7.165,0,0,1,160.977,83.977Zm0,0" transform="translate(-132.417 -58.754)" fill="#8bffbc"/>
      </g>
      <g id="user-2" data-name="user" transform="translate(334.402 1402.914)">
        <path id="Path_4152-2" data-name="Path 4152" d="M28.665,0A28.563,28.563,0,1,0,48.819,8.348,28.5,28.5,0,0,0,28.665,0ZM13.257,49.435V46.968a15.408,15.408,0,1,1,30.816,0v2.467A25.946,25.946,0,0,1,13.257,49.435Zm33.316-2.1v-.371a17.908,17.908,0,0,0-35.816,0v.371a26,26,0,1,1,35.816,0Zm0,0" transform="translate(-0.161 0.001)" fill="#8bffbc"/>
        <path id="Path_4153-2" data-name="Path 4153" d="M160.977,67.148a9.665,9.665,0,1,0,9.665,9.665A9.665,9.665,0,0,0,160.977,67.148Zm0,16.829a7.164,7.164,0,1,1,7.164-7.164A7.165,7.165,0,0,1,160.977,83.977Zm0,0" transform="translate(-132.417 -58.754)" fill="#8bffbc"/>
      </g>
      <g id="user-3" data-name="user" transform="translate(135 1392.914)">
        <path id="Path_4152-3" data-name="Path 4152" d="M28.665,0A28.563,28.563,0,1,0,48.819,8.348,28.5,28.5,0,0,0,28.665,0ZM13.257,49.435V46.968a15.408,15.408,0,1,1,30.816,0v2.467A25.946,25.946,0,0,1,13.257,49.435Zm33.316-2.1v-.371a17.908,17.908,0,0,0-35.816,0v.371a26,26,0,1,1,35.816,0Zm0,0" transform="translate(-0.161 0.001)" fill="#8bffbc"/>
        <path id="Path_4153-3" data-name="Path 4153" d="M160.977,67.148a9.665,9.665,0,1,0,9.665,9.665A9.665,9.665,0,0,0,160.977,67.148Zm0,16.829a7.164,7.164,0,1,1,7.164-7.164A7.165,7.165,0,0,1,160.977,83.977Zm0,0" transform="translate(-132.417 -58.754)" fill="#8bffbc"/>
      </g>
      <g id="user-4" data-name="user" transform="translate(369.221 1203)">
        <path id="Path_4152-4" data-name="Path 4152" d="M28.665,0A28.563,28.563,0,1,0,48.819,8.348,28.5,28.5,0,0,0,28.665,0ZM13.257,49.435V46.968a15.408,15.408,0,1,1,30.816,0v2.467A25.946,25.946,0,0,1,13.257,49.435Zm33.316-2.1v-.371a17.908,17.908,0,0,0-35.816,0v.371a26,26,0,1,1,35.816,0Zm0,0" transform="translate(-0.161 0.001)" fill="#8bffbc"/>
        <path id="Path_4153-4" data-name="Path 4153" d="M160.977,67.148a9.665,9.665,0,1,0,9.665,9.665A9.665,9.665,0,0,0,160.977,67.148Zm0,16.829a7.164,7.164,0,1,1,7.164-7.164A7.165,7.165,0,0,1,160.977,83.977Zm0,0" transform="translate(-132.417 -58.754)" fill="#8bffbc"/>
      </g>
      <g id="user-5" data-name="user" transform="translate(447.951 1372)">
        <path id="Path_4152-5" data-name="Path 4152" d="M28.665,0A28.563,28.563,0,1,0,48.819,8.348,28.5,28.5,0,0,0,28.665,0ZM13.257,49.435V46.968a15.408,15.408,0,1,1,30.816,0v2.467A25.946,25.946,0,0,1,13.257,49.435Zm33.316-2.1v-.371a17.908,17.908,0,0,0-35.816,0v.371a26,26,0,1,1,35.816,0Zm0,0" transform="translate(-0.161 0.001)" fill="#8bffbc"/>
        <path id="Path_4153-5" data-name="Path 4153" d="M160.977,67.148a9.665,9.665,0,1,0,9.665,9.665A9.665,9.665,0,0,0,160.977,67.148Zm0,16.829a7.164,7.164,0,1,1,7.164-7.164A7.165,7.165,0,0,1,160.977,83.977Zm0,0" transform="translate(-132.417 -58.754)" fill="#8bffbc"/>
      </g>
      <g id="user-6" data-name="user" transform="translate(253 1356)">
        <path id="Path_4152-6" data-name="Path 4152" d="M28.665,0A28.563,28.563,0,1,0,48.819,8.348,28.5,28.5,0,0,0,28.665,0ZM13.257,49.435V46.968a15.408,15.408,0,1,1,30.816,0v2.467A25.946,25.946,0,0,1,13.257,49.435Zm33.316-2.1v-.371a17.908,17.908,0,0,0-35.816,0v.371a26,26,0,1,1,35.816,0Zm0,0" transform="translate(-0.161 0.001)" fill="#8bffbc"/>
        <path id="Path_4153-6" data-name="Path 4153" d="M160.977,67.148a9.665,9.665,0,1,0,9.665,9.665A9.665,9.665,0,0,0,160.977,67.148Zm0,16.829a7.164,7.164,0,1,1,7.164-7.164A7.165,7.165,0,0,1,160.977,83.977Zm0,0" transform="translate(-132.417 -58.754)" fill="#8bffbc"/>
      </g>
      <g id="user-7" data-name="user" transform="translate(335.455 1308.348)">
        <path id="Path_4152-7" data-name="Path 4152" d="M28.665,0A28.563,28.563,0,1,0,48.819,8.348,28.5,28.5,0,0,0,28.665,0ZM13.257,49.435V46.968a15.408,15.408,0,1,1,30.816,0v2.467A25.946,25.946,0,0,1,13.257,49.435Zm33.316-2.1v-.371a17.908,17.908,0,0,0-35.816,0v.371a26,26,0,1,1,35.816,0Zm0,0" transform="translate(-0.161 0.001)" fill="#8bffbc"/>
        <path id="Path_4153-7" data-name="Path 4153" d="M160.977,67.148a9.665,9.665,0,1,0,9.665,9.665A9.665,9.665,0,0,0,160.977,67.148Zm0,16.829a7.164,7.164,0,1,1,7.164-7.164A7.165,7.165,0,0,1,160.977,83.977Zm0,0" transform="translate(-132.417 -58.754)" fill="#8bffbc"/>
      </g>
      <g id="user-8" data-name="user" transform="translate(403.455 1490.348)">
        <path id="Path_4152-8" data-name="Path 4152" d="M28.665,0A28.563,28.563,0,1,0,48.819,8.348,28.5,28.5,0,0,0,28.665,0ZM13.257,49.435V46.968a15.408,15.408,0,1,1,30.816,0v2.467A25.946,25.946,0,0,1,13.257,49.435Zm33.316-2.1v-.371a17.908,17.908,0,0,0-35.816,0v.371a26,26,0,1,1,35.816,0Zm0,0" transform="translate(-0.161 0.001)" fill="#8bffbc"/>
        <path id="Path_4153-8" data-name="Path 4153" d="M160.977,67.148a9.665,9.665,0,1,0,9.665,9.665A9.665,9.665,0,0,0,160.977,67.148Zm0,16.829a7.164,7.164,0,1,1,7.164-7.164A7.165,7.165,0,0,1,160.977,83.977Zm0,0" transform="translate(-132.417 -58.754)" fill="#8bffbc"/>
      </g>
      <g id="user-9" data-name="user" transform="translate(215.053 1480.348)">
        <path id="Path_4152-9" data-name="Path 4152" d="M28.665,0A28.563,28.563,0,1,0,48.819,8.348,28.5,28.5,0,0,0,28.665,0ZM13.257,49.435V46.968a15.408,15.408,0,1,1,30.816,0v2.467A25.946,25.946,0,0,1,13.257,49.435Zm33.316-2.1v-.371a17.908,17.908,0,0,0-35.816,0v.371a26,26,0,1,1,35.816,0Zm0,0" transform="translate(-0.161 0.001)" fill="#8bffbc"/>
        <path id="Path_4153-9" data-name="Path 4153" d="M160.977,67.148a9.665,9.665,0,1,0,9.665,9.665A9.665,9.665,0,0,0,160.977,67.148Zm0,16.829a7.164,7.164,0,1,1,7.164-7.164A7.165,7.165,0,0,1,160.977,83.977Zm0,0" transform="translate(-132.417 -58.754)" fill="#8bffbc"/>
      </g>
      <g id="Group_3053" data-name="Group 3053" transform="translate(-682 278)">
        <path id="Path_3895" data-name="Path 3895" d="M16.524,6.392a.476.476,0,0,1-.674,0L11.282,1.825,12.5,51.981a.476.476,0,1,1-.953,0L10.329,1.825,5.763,6.392a.476.476,0,1,1-.674-.674L10.469.338h0L10.807,0l.336.336v0l5.38,5.38A.48.48,0,0,1,16.524,6.392Z" transform="translate(859.482 1175.155) rotate(-42)" fill="#e1582e"/>
        <path id="Path_4160" data-name="Path 4160" d="M11.575,39.017a.476.476,0,0,0-.674,0L6.332,43.584H6.316a.476.476,0,1,0-.953,0H5.38L.813,39.017a.476.476,0,1,0-.674.674l5.38,5.381h0l.337.338.336-.336v0l5.38-5.38A.48.48,0,0,0,11.575,39.017Z" transform="matrix(0.719, -0.695, 0.695, 0.719, 868.72, 1178.532)" fill="#e1582e"/>
      </g>
      <g id="Group_3054" data-name="Group 3054" transform="matrix(0.438, -0.899, 0.899, 0.438, -1233.96, 1676.255)">
        <path id="Path_3895-2" data-name="Path 3895" d="M16.524,6.392a.476.476,0,0,1-.674,0L11.282,1.825,12.5,51.981a.476.476,0,1,1-.953,0L10.329,1.825,5.763,6.392a.476.476,0,1,1-.674-.674L10.469.338h0L10.807,0l.336.336v0l5.38,5.38A.48.48,0,0,1,16.524,6.392Z" transform="translate(859.482 1175.155) rotate(-42)" fill="#e1582e"/>
        <path id="Path_4160-2" data-name="Path 4160" d="M11.575,39.017a.476.476,0,0,0-.674,0L6.332,43.584H6.316a.476.476,0,1,0-.953,0H5.38L.813,39.017a.476.476,0,1,0-.674.674l5.38,5.381h0l.337.338.336-.336v0l5.38-5.38A.48.48,0,0,0,11.575,39.017Z" transform="matrix(0.719, -0.695, 0.695, 0.719, 868.72, 1178.532)" fill="#e1582e"/>
      </g>
      <g id="Group_3055" data-name="Group 3055" transform="translate(-341.382 2792.209) rotate(-119)">
        <path id="Path_3895-3" data-name="Path 3895" d="M16.524,6.392a.476.476,0,0,1-.674,0L11.282,1.825,12.9,65.64a.476.476,0,1,1-.953,0L10.329,1.825,5.763,6.392a.476.476,0,1,1-.674-.674L10.469.338h0L10.807,0l.336.336v0l5.38,5.38A.48.48,0,0,1,16.524,6.392Z" transform="translate(850.051 1165.354) rotate(-42)" fill="#e1582e"/>
        <path id="Path_4160-3" data-name="Path 4160" d="M11.575,39.017a.476.476,0,0,0-.674,0L6.332,43.584H6.316a.476.476,0,1,0-.953,0H5.38L.813,39.017a.476.476,0,1,0-.674.674l5.38,5.381h0l.337.338.336-.336v0l5.38-5.38A.48.48,0,0,0,11.575,39.017Z" transform="matrix(0.719, -0.695, 0.695, 0.719, 868.72, 1178.532)" fill="#e1582e"/>
      </g>
    </g>
  </g>
</svg>
