<svg xmlns="http://www.w3.org/2000/svg" width="551.689" height="385.251" viewBox="0 0 551.689 385.251">
  <g id="Group_3074" data-name="Group 3074" transform="translate(-147.944 -3882.452)">
    <g id="Group_3073" data-name="Group 3073">
      <g id="Group_2944" data-name="Group 2944" transform="translate(147.769 3947)">
        <g id="Group_2940" data-name="Group 2940">
          <path id="Path_4106" data-name="Path 4106" d="M47.012,106.633,201.364,17.265c8.365-4.9,23.056-4.285,32.748,1.326L558.017,204.978c9.692,5.611,10.712,14.078,2.346,18.873L406.011,313.218c-8.365,4.9-23.056,4.285-32.748-1.326L49.358,125.506C39.667,120,38.646,111.53,47.012,106.633Z" transform="translate(-27.015 -8.503)" fill="#8bffbc"/>
          <path id="Path_3903" data-name="Path 3903" d="M412.162,319.773l160.677-93.04c5.815-3.367,8.263-8.059,7.447-12.752-.306,3.877-2.755,7.549-7.549,10.3L412.06,317.325c-11.324,6.529-31.013,5.713-44.072-1.734L39.391,126.45c-6.325-3.673-9.9-8.161-10.61-12.65-.408,5.2,3.265,10.814,10.712,15.1l328.7,189.14C381.149,325.486,400.94,326.3,412.162,319.773Z" transform="translate(-28.576 -3.488)" fill="#fff"/>
          <path id="Path_3904" data-name="Path 3904" d="M47.012,106.633,201.364,17.265c8.365-4.9,23.056-4.285,32.748,1.326L558.017,204.978c9.692,5.611,10.712,14.078,2.346,18.873L406.011,313.218c-8.365,4.9-23.056,4.285-32.748-1.326L49.358,125.506C39.667,120,38.646,111.53,47.012,106.633Z" transform="translate(-27.015 -78.503)" fill="#fbb59f"/>
        </g>
      </g>
      <line id="Line_54" data-name="Line 54" y2="69" transform="translate(162.5 3985.5)" fill="none" stroke="#707070" stroke-width="1" stroke-dasharray="5" opacity="0.288"/>
      <line id="Line_55" data-name="Line 55" y2="69" transform="translate(686.5 4089.5)" fill="none" stroke="#707070" stroke-width="1" stroke-dasharray="5" opacity="0.288"/>
      <line id="Line_56" data-name="Line 56" y2="69" transform="translate(511.5 4187.5)" fill="none" stroke="#707070" stroke-width="1" stroke-dasharray="5" opacity="0.288"/>
    </g>
  </g>
</svg>
