<svg xmlns="http://www.w3.org/2000/svg" width="48" height="47.994" viewBox="0 0 48 47.994">
  <g id="joystick" transform="translate(0 -0.032)">
    <g id="Group_2961" data-name="Group 2961" transform="translate(6.403 28.828)">
      <g id="Group_2960" data-name="Group 2960">
        <path id="Path_3956" data-name="Path 3956" d="M76.032,292.031h-3.2v-3.2a.8.8,0,0,0-.8-.8h-3.2a.8.8,0,0,0-.8.8v3.2h-3.2a.8.8,0,0,0-.8.8v3.2a.8.8,0,0,0,.8.8h3.2v3.2a.8.8,0,0,0,.8.8h3.2a.8.8,0,0,0,.8-.8v-3.2h3.2a.8.8,0,0,0,.8-.8v-3.2A.8.8,0,0,0,76.032,292.031Zm-.8,3.2h-3.2a.8.8,0,0,0-.8.8v3.2h-1.6v-3.2a.8.8,0,0,0-.8-.8h-3.2v-1.6h3.2a.8.8,0,0,0,.8-.8v-3.2h1.6v3.2a.8.8,0,0,0,.8.8h3.2Z" transform="translate(-64.034 -288.032)" fill="#fba58a"/>
      </g>
    </g>
    <g id="Group_2963" data-name="Group 2963" transform="translate(0 0.032)">
      <g id="Group_2962" data-name="Group 2962" transform="translate(0 0)">
        <path id="Path_3957" data-name="Path 3957" d="M47.917,33.766A13.514,13.514,0,0,0,36.61,22.509a13.278,13.278,0,0,0-1.411-.08H26.4v-3.2H24.8v-1.6a3.2,3.2,0,0,0-3.2-3.2h-4a1.6,1.6,0,1,1,0-3.2H30.4a3.2,3.2,0,1,0,0-6.4h-4a1.6,1.6,0,0,1-1.6-1.6V.032H23.2v3.2a3.2,3.2,0,0,0,3.2,3.2h4a1.6,1.6,0,1,1,0,3.2H17.6a3.2,3.2,0,1,0,0,6.4h4a1.6,1.6,0,0,1,1.6,1.6v1.6H21.6v3.2H12.8a13.048,13.048,0,0,0-1.413.08A13.516,13.516,0,0,0,.084,33.77,12.8,12.8,0,0,0,19.538,46.106a7.834,7.834,0,0,1,3.511-1.241,12.337,12.337,0,0,1,1.86-.006,7.893,7.893,0,0,1,3.566,1.254A12.8,12.8,0,0,0,47.917,33.766ZM23.2,20.829h1.6v1.6H23.2ZM43.546,42.693a11.191,11.191,0,0,1-14.228,2.06,9.439,9.439,0,0,0-4.295-1.49q-.506-.037-1.022-.037c-.364,0-.72.015-1.078.043a9.409,9.409,0,0,0-4.23,1.477,11.2,11.2,0,0,1-17.018-10.8A11.991,11.991,0,0,1,11.561,24.1a11.506,11.506,0,0,1,1.241-.071H35.2a11.766,11.766,0,0,1,1.241.066,11.994,11.994,0,0,1,9.887,9.847A11.119,11.119,0,0,1,43.546,42.693Z" transform="translate(0 -0.032)" fill="#fba58a"/>
      </g>
    </g>
    <g id="Group_2965" data-name="Group 2965" transform="translate(31.999 27.228)">
      <g id="Group_2964" data-name="Group 2964">
        <path id="Path_3958" data-name="Path 3958" d="M323.234,272.032a3.2,3.2,0,1,0,3.2,3.2A3.2,3.2,0,0,0,323.234,272.032Zm0,4.8a1.6,1.6,0,1,1,1.6-1.6A1.6,1.6,0,0,1,323.234,276.831Z" transform="translate(-320.034 -272.032)" fill="#fba58a"/>
      </g>
    </g>
    <g id="Group_2967" data-name="Group 2967" transform="translate(31.999 36.827)">
      <g id="Group_2966" data-name="Group 2966">
        <path id="Path_3959" data-name="Path 3959" d="M323.234,368.032a3.2,3.2,0,1,0,3.2,3.2A3.2,3.2,0,0,0,323.234,368.032Zm0,4.8a1.6,1.6,0,1,1,1.6-1.6A1.6,1.6,0,0,1,323.234,372.831Z" transform="translate(-320.034 -368.032)" fill="#fba58a"/>
      </g>
    </g>
    <g id="Group_2969" data-name="Group 2969" transform="translate(26.4 32.027)">
      <g id="Group_2968" data-name="Group 2968">
        <path id="Path_3960" data-name="Path 3960" d="M267.234,320.032a3.2,3.2,0,1,0,3.2,3.2A3.2,3.2,0,0,0,267.234,320.032Zm0,4.8a1.6,1.6,0,1,1,1.6-1.6A1.6,1.6,0,0,1,267.234,324.831Z" transform="translate(-264.034 -320.032)" fill="#fba58a"/>
      </g>
    </g>
    <g id="Group_2971" data-name="Group 2971" transform="translate(37.598 32.027)">
      <g id="Group_2970" data-name="Group 2970">
        <path id="Path_3961" data-name="Path 3961" d="M379.234,320.032a3.2,3.2,0,1,0,3.2,3.2A3.2,3.2,0,0,0,379.234,320.032Zm0,4.8a1.6,1.6,0,1,1,1.6-1.6A1.6,1.6,0,0,1,379.234,324.831Z" transform="translate(-376.034 -320.032)" fill="#fba58a"/>
      </g>
    </g>
  </g>
</svg>
