<svg xmlns="http://www.w3.org/2000/svg" width="85" height="85" viewBox="0 0 85 85">
  <g id="Group_1704" data-name="Group 1704" transform="translate(-266 -467)">
    <circle id="Ellipse_75" data-name="Ellipse 75" cx="42.5" cy="42.5" r="42.5" transform="translate(266 467)" fill="#fafafa"/>
    <g id="Group_1575" data-name="Group 1575" transform="translate(276.045 476.197)">
      <g id="Group_1437" data-name="Group 1437" transform="translate(18.156 54.274)">
        <g id="Group_1423" data-name="Group 1423">
          <g id="Group_1420" data-name="Group 1420">
            <g id="Group_1419" data-name="Group 1419">
              <circle id="Ellipse_63" data-name="Ellipse 63" cx="1.475" cy="1.475" r="1.475" fill="#879dbb"/>
            </g>
          </g>
          <g id="Group_1422" data-name="Group 1422" transform="translate(25.605)">
            <g id="Group_1421" data-name="Group 1421">
              <circle id="Ellipse_64" data-name="Ellipse 64" cx="1.475" cy="1.475" r="1.475" fill="#879dbb"/>
            </g>
          </g>
        </g>
        <g id="Group_1425" data-name="Group 1425" transform="translate(1.21 0.87)">
          <g id="Group_1424" data-name="Group 1424">
            <rect id="Rectangle_806" data-name="Rectangle 806" width="5.068" height="1.248" fill="#879dbb"/>
          </g>
        </g>
        <g id="Group_1427" data-name="Group 1427" transform="translate(21.974 0.87)">
          <g id="Group_1426" data-name="Group 1426">
            <rect id="Rectangle_807" data-name="Rectangle 807" width="5.068" height="1.248" fill="#879dbb"/>
          </g>
        </g>
        <g id="Group_1436" data-name="Group 1436" transform="translate(6.921 6.876)">
          <g id="Group_1429" data-name="Group 1429" transform="translate(1.091 0.006)">
            <g id="Group_1428" data-name="Group 1428" transform="translate(0 0)">
              <rect id="Rectangle_808" data-name="Rectangle 808" width="5.068" height="1.248" transform="translate(0 4.511) rotate(-62.884)" fill="#879dbb"/>
            </g>
          </g>
          <g id="Group_1431" data-name="Group 1431" transform="translate(0 4.092)">
            <g id="Group_1430" data-name="Group 1430">
              <path id="Path_1737" data-name="Path 1737" d="M70.082,173.824c0,.605-.832.643-1.891.643-1.021,0-1.891-.038-1.891-.643s.832-1.324,1.891-1.324S70.082,173.219,70.082,173.824Z" transform="translate(-66.3 -172.5)" fill="#879dbb"/>
            </g>
          </g>
          <g id="Group_1433" data-name="Group 1433" transform="translate(10.193 0)">
            <g id="Group_1432" data-name="Group 1432" transform="translate(0)">
              <rect id="Rectangle_809" data-name="Rectangle 809" width="5.068" height="1.248" transform="translate(2.31 5.08) rotate(-117.116)" fill="#879dbb"/>
            </g>
          </g>
          <g id="Group_1435" data-name="Group 1435" transform="translate(10.893 4.092)">
            <g id="Group_1434" data-name="Group 1434">
              <path id="Path_1738" data-name="Path 1738" d="M95.1,173.824c0,.605.832.643,1.891.643s1.891-.038,1.891-.643-.832-1.324-1.891-1.324S95.1,173.219,95.1,173.824Z" transform="translate(-95.1 -172.5)" fill="#879dbb"/>
            </g>
          </g>
        </g>
      </g>
      <g id="Group_1442" data-name="Group 1442" transform="translate(24.207 49.584)">
        <g id="Group_1439" data-name="Group 1439" transform="translate(0.378 0.378)">
          <g id="Group_1438" data-name="Group 1438">
            <path id="Path_1739" data-name="Path 1739" d="M66.778,143.673A1.776,1.776,0,0,1,65,141.9v-8.018a1.776,1.776,0,0,1,1.778-1.778H78.918a1.776,1.776,0,0,1,1.778,1.778V141.9a1.776,1.776,0,0,1-1.778,1.778Z" transform="translate(-65 -132.1)" fill="#224099"/>
          </g>
        </g>
        <g id="Group_1441" data-name="Group 1441">
          <g id="Group_1440" data-name="Group 1440">
            <path id="Path_1740" data-name="Path 1740" d="M78.3,131.856a1.4,1.4,0,0,1,1.4,1.4v8.018a1.4,1.4,0,0,1-1.4,1.4H66.156a1.4,1.4,0,0,1-1.4-1.4v-8.018a1.4,1.4,0,0,1,1.4-1.4H78.3m0-.756H66.156A2.18,2.18,0,0,0,64,133.256v8.018a2.18,2.18,0,0,0,2.156,2.156H78.3a2.18,2.18,0,0,0,2.156-2.156v-8.018A2.205,2.205,0,0,0,78.3,131.1Z" transform="translate(-64 -131.1)" fill="#879dbb"/>
          </g>
        </g>
      </g>
      <g id="Group_1444" data-name="Group 1444" transform="translate(26.288 51.4)">
        <g id="Group_1443" data-name="Group 1443">
          <path id="Path_1741" data-name="Path 1741" d="M79.939,144.675H71.315a1.816,1.816,0,0,1-1.815-1.815v-5.144a1.816,1.816,0,0,1,1.815-1.815h8.623a1.816,1.816,0,0,1,1.815,1.815v5.144A1.792,1.792,0,0,1,79.939,144.675Zm-8.623-8.056a1.057,1.057,0,0,0-1.059,1.059v5.144a1.057,1.057,0,0,0,1.059,1.059h8.623A1.057,1.057,0,0,0,81,142.821v-5.144a1.057,1.057,0,0,0-1.059-1.059Z" transform="translate(-69.5 -135.9)" fill="#d5dfed"/>
        </g>
      </g>
      <g id="Group_1463" data-name="Group 1463" transform="translate(43.761 32.111)">
        <g id="Group_1449" data-name="Group 1449">
          <g id="Group_1446" data-name="Group 1446" transform="translate(0 22.163)">
            <g id="Group_1445" data-name="Group 1445">
              <circle id="Ellipse_65" data-name="Ellipse 65" cx="1.475" cy="1.475" r="1.475" fill="#879dbb"/>
            </g>
          </g>
          <g id="Group_1448" data-name="Group 1448" transform="translate(12.784)">
            <g id="Group_1447" data-name="Group 1447">
              <circle id="Ellipse_66" data-name="Ellipse 66" cx="1.475" cy="1.475" r="1.475" fill="#879dbb"/>
            </g>
          </g>
        </g>
        <g id="Group_1451" data-name="Group 1451" transform="translate(0.791 19.167)">
          <g id="Group_1450" data-name="Group 1450" transform="translate(0 0)">
            <rect id="Rectangle_810" data-name="Rectangle 810" width="5.068" height="1.248" transform="matrix(0.5, -0.866, 0.866, 0.5, 0, 4.389)" fill="#879dbb"/>
          </g>
        </g>
        <g id="Group_1453" data-name="Group 1453" transform="translate(11.203 1.177)">
          <g id="Group_1452" data-name="Group 1452" transform="translate(0 0)">
            <rect id="Rectangle_811" data-name="Rectangle 811" width="5.068" height="1.248" transform="matrix(0.5, -0.866, 0.866, 0.5, 0, 4.389)" fill="#879dbb"/>
          </g>
        </g>
        <g id="Group_1462" data-name="Group 1462" transform="translate(10.572 11.546)">
          <g id="Group_1455" data-name="Group 1455" transform="translate(0 6.47)">
            <g id="Group_1454" data-name="Group 1454" transform="translate(0 0)">
              <rect id="Rectangle_812" data-name="Rectangle 812" width="5.068" height="1.248" transform="translate(2.751 4.934) rotate(-122.881)" fill="#879dbb"/>
            </g>
          </g>
          <g id="Group_1457" data-name="Group 1457" transform="translate(2.494 9.413)">
            <g id="Group_1456" data-name="Group 1456">
              <path id="Path_1742" data-name="Path 1742" d="M152.649,140.423c.529.3.113,1.059-.416,1.929-.53.908-.983,1.626-1.475,1.324a1.833,1.833,0,0,1-.227-2.307A1.8,1.8,0,0,1,152.649,140.423Z" transform="translate(-150.246 -140.315)" fill="#879dbb"/>
            </g>
          </g>
          <g id="Group_1459" data-name="Group 1459" transform="translate(3.911 0.322)">
            <g id="Group_1458" data-name="Group 1458" transform="translate(0 0)">
              <rect id="Rectangle_813" data-name="Rectangle 813" width="5.068" height="1.248" transform="translate(5.062 1.501) rotate(-177.119)" fill="#879dbb"/>
            </g>
          </g>
          <g id="Group_1461" data-name="Group 1461" transform="translate(7.932)">
            <g id="Group_1460" data-name="Group 1460">
              <path id="Path_1743" data-name="Path 1743" d="M165.145,118.783c.529.3.946-.416,1.475-1.324s.908-1.626.416-1.929a1.783,1.783,0,0,0-2.08.946A1.745,1.745,0,0,0,165.145,118.783Z" transform="translate(-164.624 -115.428)" fill="#879dbb"/>
            </g>
          </g>
        </g>
      </g>
      <g id="Group_1468" data-name="Group 1468" transform="translate(43.017 35.288)">
        <g id="Group_1465" data-name="Group 1465" transform="translate(0.343 0.416)">
          <g id="Group_1464" data-name="Group 1464">
            <path id="Path_1744" data-name="Path 1744" d="M123.362,112.4a1.757,1.757,0,0,1-.87-.227l-6.959-4.009a1.8,1.8,0,0,1-.832-1.059,1.62,1.62,0,0,1,.189-1.324l6.051-10.514a1.8,1.8,0,0,1,1.551-.87,1.757,1.757,0,0,1,.87.227l6.959,4.009a1.777,1.777,0,0,1,.643,2.421l-6.051,10.514A1.9,1.9,0,0,1,123.362,112.4Z" transform="translate(-114.641 -94.4)" fill="#f16522"/>
          </g>
        </g>
        <g id="Group_1467" data-name="Group 1467">
          <g id="Group_1466" data-name="Group 1466">
            <path id="Path_1745" data-name="Path 1745" d="M121.928,94.056h0a1.415,1.415,0,0,1,.681.189l6.959,4.009a1.34,1.34,0,0,1,.492,1.891l-6.051,10.514a1.445,1.445,0,0,1-1.21.681,1.415,1.415,0,0,1-.681-.189l-6.959-4.009a1.34,1.34,0,0,1-.492-1.891l6.051-10.514a1.353,1.353,0,0,1,1.21-.681m0-.756a2.1,2.1,0,0,0-1.853,1.059l-6.051,10.514a2.116,2.116,0,0,0,.794,2.912l6.959,4.009a2.255,2.255,0,0,0,1.059.3,2.1,2.1,0,0,0,1.853-1.059l6.051-10.514a2.115,2.115,0,0,0-.794-2.912l-6.959-4.047a2.2,2.2,0,0,0-1.059-.265Z" transform="translate(-113.733 -93.3)" fill="#879dbb"/>
          </g>
        </g>
      </g>
      <g id="Group_1470" data-name="Group 1470" transform="translate(45.417 37.875)">
        <g id="Group_1469" data-name="Group 1469">
          <path id="Path_1746" data-name="Path 1746" d="M126.364,113.779a1.9,1.9,0,0,1-.908-.227l-4.463-2.572a1.844,1.844,0,0,1-.681-2.5l4.312-7.451a1.741,1.741,0,0,1,1.1-.832,1.8,1.8,0,0,1,1.4.189l4.463,2.572a1.741,1.741,0,0,1,.832,1.1,1.8,1.8,0,0,1-.189,1.4l-4.312,7.451A1.717,1.717,0,0,1,126.364,113.779Zm-.113-12.935a.644.644,0,0,0-.265.038,1.19,1.19,0,0,0-.643.492l-4.312,7.451a1.091,1.091,0,0,0,.378,1.475l4.463,2.572a1.091,1.091,0,0,0,1.475-.378l4.312-7.451a1,1,0,0,0,.113-.794,1.19,1.19,0,0,0-.492-.643l-4.463-2.572A1.414,1.414,0,0,0,126.251,100.844Z" transform="translate(-120.077 -100.141)" fill="#d5dfed"/>
        </g>
      </g>
      <g id="Group_1489" data-name="Group 1489" transform="translate(0 32.111)">
        <g id="Group_1475" data-name="Group 1475" transform="translate(5.372)">
          <g id="Group_1472" data-name="Group 1472" transform="translate(12.822 22.163)">
            <g id="Group_1471" data-name="Group 1471">
              <circle id="Ellipse_67" data-name="Ellipse 67" cx="1.475" cy="1.475" r="1.475" fill="#879dbb"/>
            </g>
          </g>
          <g id="Group_1474" data-name="Group 1474">
            <g id="Group_1473" data-name="Group 1473">
              <circle id="Ellipse_68" data-name="Ellipse 68" cx="1.475" cy="1.475" r="1.475" fill="#879dbb"/>
            </g>
          </g>
        </g>
        <g id="Group_1477" data-name="Group 1477" transform="translate(16.696 19.189)">
          <g id="Group_1476" data-name="Group 1476" transform="translate(0 0)">
            <rect id="Rectangle_814" data-name="Rectangle 814" width="5.068" height="1.248" transform="matrix(-0.5, -0.866, 0.866, -0.5, 2.534, 5.013)" fill="#879dbb"/>
          </g>
        </g>
        <g id="Group_1479" data-name="Group 1479" transform="translate(6.32 1.172)">
          <g id="Group_1478" data-name="Group 1478" transform="translate(0 0)">
            <rect id="Rectangle_815" data-name="Rectangle 815" width="5.068" height="1.248" transform="matrix(-0.5, -0.866, 0.866, -0.5, 2.534, 5.013)" fill="#879dbb"/>
          </g>
        </g>
        <g id="Group_1488" data-name="Group 1488" transform="translate(0 11.546)">
          <g id="Group_1481" data-name="Group 1481" transform="translate(6.756 6.464)">
            <g id="Group_1480" data-name="Group 1480" transform="translate(0 0)">
              <rect id="Rectangle_816" data-name="Rectangle 816" width="5.068" height="1.248" transform="translate(0 4.256) rotate(-57.119)" fill="#879dbb"/>
            </g>
          </g>
          <g id="Group_1483" data-name="Group 1483" transform="translate(5.43 9.413)">
            <g id="Group_1482" data-name="Group 1482">
              <path id="Path_1747" data-name="Path 1747" d="M14.6,140.423c-.53.3-.113,1.059.416,1.929.53.908.983,1.626,1.475,1.324a1.833,1.833,0,0,0,.227-2.307A1.8,1.8,0,0,0,14.6,140.423Z" transform="translate(-14.352 -140.315)" fill="#879dbb"/>
            </g>
          </g>
          <g id="Group_1485" data-name="Group 1485" transform="translate(1.523 0.278)">
            <g id="Group_1484" data-name="Group 1484" transform="translate(0 0)">
              <rect id="Rectangle_817" data-name="Rectangle 817" width="5.068" height="1.248" transform="translate(0 0.255) rotate(-2.881)" fill="#879dbb"/>
            </g>
          </g>
          <g id="Group_1487" data-name="Group 1487">
            <g id="Group_1486" data-name="Group 1486">
              <path id="Path_1748" data-name="Path 1748" d="M2.116,118.783c-.53.3-.946-.416-1.475-1.324s-.908-1.626-.416-1.929,1.589.076,2.08.946S2.645,118.481,2.116,118.783Z" transform="translate(0.004 -115.428)" fill="#879dbb"/>
            </g>
          </g>
        </g>
      </g>
      <g id="Group_1494" data-name="Group 1494" transform="translate(4.607 35.288)">
        <g id="Group_1491" data-name="Group 1491" transform="translate(0.372 0.416)">
          <g id="Group_1490" data-name="Group 1490">
            <path id="Path_1749" data-name="Path 1749" d="M21.006,112.4a1.842,1.842,0,0,1-1.551-.87L13.4,101.019a1.805,1.805,0,0,1-.189-1.324,1.67,1.67,0,0,1,.832-1.059l6.959-4.009a1.757,1.757,0,0,1,.87-.227,1.842,1.842,0,0,1,1.551.87l6.051,10.514a1.786,1.786,0,0,1-.643,2.421l-6.959,4.009a2.243,2.243,0,0,1-.87.189Z" transform="translate(-13.162 -94.4)" fill="#ffdd15"/>
          </g>
        </g>
        <g id="Group_1493" data-name="Group 1493">
          <g id="Group_1492" data-name="Group 1492">
            <path id="Path_1750" data-name="Path 1750" d="M21.263,94.056a1.445,1.445,0,0,1,1.21.681l6.051,10.514a1.4,1.4,0,0,1-.492,1.891l-6.959,4.009a1.541,1.541,0,0,1-.681.189,1.445,1.445,0,0,1-1.21-.681l-6.051-10.514a1.4,1.4,0,0,1,.492-1.891l6.959-4.009a1.1,1.1,0,0,1,.681-.189m0-.756a1.811,1.811,0,0,0-1.059.3l-6.959,3.971a2.158,2.158,0,0,0-.794,2.912L18.5,111a2.14,2.14,0,0,0,1.853,1.059,1.811,1.811,0,0,0,1.059-.3l6.959-4.009a2.158,2.158,0,0,0,.794-2.912L23.116,94.321A2.141,2.141,0,0,0,21.263,93.3Z" transform="translate(-12.177 -93.3)" fill="#879dbb"/>
          </g>
        </g>
      </g>
      <g id="Group_1496" data-name="Group 1496" transform="translate(7.06 37.845)">
        <g id="Group_1495" data-name="Group 1495">
          <path id="Path_1751" data-name="Path 1751" d="M24.8,113.73a1.857,1.857,0,0,1-1.589-.908L18.9,105.372a1.978,1.978,0,0,1-.189-1.4,1.65,1.65,0,0,1,.832-1.1l4.463-2.572a1.978,1.978,0,0,1,1.4-.189,1.741,1.741,0,0,1,1.1.832l4.312,7.451a1.978,1.978,0,0,1,.189,1.4,1.65,1.65,0,0,1-.832,1.1l-4.463,2.572A1.673,1.673,0,0,1,24.8,113.73Zm.113-12.935a.868.868,0,0,0-.53.151l-4.463,2.572a1.037,1.037,0,0,0-.492.643,1.087,1.087,0,0,0,.113.832l4.312,7.451a1.058,1.058,0,0,0,1.475.378L29.8,110.25a1.037,1.037,0,0,0,.492-.643,1.087,1.087,0,0,0-.113-.832l-4.312-7.451a1.037,1.037,0,0,0-.643-.492C25.106,100.833,25.031,100.8,24.917,100.8Z" transform="translate(-18.662 -100.062)" fill="#879dbb"/>
        </g>
      </g>
      <g id="Group_1515" data-name="Group 1515" transform="translate(18.194)">
        <g id="Group_1501" data-name="Group 1501" transform="translate(0 9.947)">
          <g id="Group_1498" data-name="Group 1498" transform="translate(25.605)">
            <g id="Group_1497" data-name="Group 1497">
              <circle id="Ellipse_69" data-name="Ellipse 69" cx="1.475" cy="1.475" r="1.475" fill="#879dbb"/>
            </g>
          </g>
          <g id="Group_1500" data-name="Group 1500">
            <g id="Group_1499" data-name="Group 1499">
              <circle id="Ellipse_70" data-name="Ellipse 70" cx="1.475" cy="1.475" r="1.475" fill="#879dbb"/>
            </g>
          </g>
        </g>
        <g id="Group_1503" data-name="Group 1503" transform="translate(22.27 10.801)">
          <g id="Group_1502" data-name="Group 1502" transform="translate(0 0)">
            <rect id="Rectangle_818" data-name="Rectangle 818" width="5.068" height="1.248" transform="translate(5.068 1.248) rotate(180)" fill="#879dbb"/>
          </g>
        </g>
        <g id="Group_1505" data-name="Group 1505" transform="translate(1.495 10.801)">
          <g id="Group_1504" data-name="Group 1504" transform="translate(0 0)">
            <rect id="Rectangle_819" data-name="Rectangle 819" width="5.068" height="1.248" transform="translate(5.068 1.248) rotate(180)" fill="#879dbb"/>
          </g>
        </g>
        <g id="Group_1514" data-name="Group 1514" transform="translate(6.959)">
          <g id="Group_1507" data-name="Group 1507" transform="translate(10.156 0.951)">
            <g id="Group_1506" data-name="Group 1506" transform="translate(0 0)">
              <rect id="Rectangle_820" data-name="Rectangle 820" width="5.068" height="1.248" transform="translate(3.421 0.569) rotate(117.116)" fill="#879dbb"/>
            </g>
          </g>
          <g id="Group_1509" data-name="Group 1509" transform="translate(10.855)">
            <g id="Group_1508" data-name="Group 1508">
              <path id="Path_1752" data-name="Path 1752" d="M95.2.643C95.2.038,96.032,0,97.091,0c1.021,0,1.891.038,1.891.643s-.832,1.324-1.891,1.324C96.07,1.967,95.2,1.21,95.2.643Z" transform="translate(-95.2 0)" fill="#879dbb"/>
            </g>
          </g>
          <g id="Group_1511" data-name="Group 1511" transform="translate(1.044 0.952)">
            <g id="Group_1510" data-name="Group 1510" transform="translate(0 0)">
              <rect id="Rectangle_821" data-name="Rectangle 821" width="5.068" height="1.248" transform="translate(1.111 0) rotate(62.884)" fill="#879dbb"/>
            </g>
          </g>
          <g id="Group_1513" data-name="Group 1513">
            <g id="Group_1512" data-name="Group 1512">
              <path id="Path_1753" data-name="Path 1753" d="M70.282.643C70.282.038,69.45,0,68.391,0,67.37,0,66.5.038,66.5.643s.832,1.324,1.891,1.324S70.282,1.21,70.282.643Z" transform="translate(-66.5 0)" fill="#879dbb"/>
            </g>
          </g>
        </g>
      </g>
      <g id="Group_1520" data-name="Group 1520" transform="translate(24.245 5.257)">
        <g id="Group_1517" data-name="Group 1517" transform="translate(0.378 0.378)">
          <g id="Group_1516" data-name="Group 1516">
            <path id="Path_1754" data-name="Path 1754" d="M66.878,26.473A1.776,1.776,0,0,1,65.1,24.7V16.678A1.776,1.776,0,0,1,66.878,14.9H79.018A1.776,1.776,0,0,1,80.8,16.678V24.7a1.776,1.776,0,0,1-1.778,1.778H66.878Z" transform="translate(-65.1 -14.9)" fill="#00a14b"/>
          </g>
        </g>
        <g id="Group_1519" data-name="Group 1519">
          <g id="Group_1518" data-name="Group 1518">
            <path id="Path_1755" data-name="Path 1755" d="M78.4,14.656a1.4,1.4,0,0,1,1.4,1.4v8.018a1.4,1.4,0,0,1-1.4,1.4H66.256a1.4,1.4,0,0,1-1.4-1.4V16.056a1.4,1.4,0,0,1,1.4-1.4H78.4m0-.756H66.256A2.18,2.18,0,0,0,64.1,16.056v8.018a2.18,2.18,0,0,0,2.156,2.156H78.4a2.18,2.18,0,0,0,2.156-2.156V16.056A2.18,2.18,0,0,0,78.4,13.9Z" transform="translate(-64.1 -13.9)" fill="#879dbb"/>
          </g>
        </g>
      </g>
      <g id="Group_1522" data-name="Group 1522" transform="translate(26.363 7.035)">
        <g id="Group_1521" data-name="Group 1521">
          <path id="Path_1756" data-name="Path 1756" d="M80.139,27.412H71.515A1.816,1.816,0,0,1,69.7,25.6V20.415A1.816,1.816,0,0,1,71.515,18.6h8.623a1.816,1.816,0,0,1,1.815,1.815v5.144A1.849,1.849,0,0,1,80.139,27.412Zm-8.623-8.056a1.057,1.057,0,0,0-1.059,1.059v5.144a1.057,1.057,0,0,0,1.059,1.059h8.623A1.057,1.057,0,0,0,81.2,25.559V20.415a1.057,1.057,0,0,0-1.059-1.059Z" transform="translate(-69.7 -18.6)" fill="#d5dfed"/>
        </g>
      </g>
      <g id="Group_1541" data-name="Group 1541" transform="translate(0 9.947)">
        <g id="Group_1527" data-name="Group 1527" transform="translate(5.372)">
          <g id="Group_1524" data-name="Group 1524" transform="translate(12.822)">
            <g id="Group_1523" data-name="Group 1523">
              <circle id="Ellipse_71" data-name="Ellipse 71" cx="1.475" cy="1.475" r="1.475" fill="#879dbb"/>
            </g>
          </g>
          <g id="Group_1526" data-name="Group 1526" transform="translate(0 22.163)">
            <g id="Group_1525" data-name="Group 1525">
              <circle id="Ellipse_72" data-name="Ellipse 72" cx="1.475" cy="1.475" r="1.475" fill="#879dbb"/>
            </g>
          </g>
        </g>
        <g id="Group_1529" data-name="Group 1529" transform="translate(16.718 0.947)">
          <g id="Group_1528" data-name="Group 1528" transform="translate(0 0)">
            <rect id="Rectangle_822" data-name="Rectangle 822" width="5.068" height="1.248" transform="matrix(-0.5, 0.866, -0.866, -0.5, 3.615, 0.624)" fill="#879dbb"/>
          </g>
        </g>
        <g id="Group_1531" data-name="Group 1531" transform="translate(6.309 18.945)">
          <g id="Group_1530" data-name="Group 1530" transform="translate(0 0)">
            <rect id="Rectangle_823" data-name="Rectangle 823" width="5.068" height="1.248" transform="matrix(-0.5, 0.866, -0.866, -0.5, 3.615, 0.624)" fill="#879dbb"/>
          </g>
        </g>
        <g id="Group_1540" data-name="Group 1540" transform="translate(0 0.764)">
          <g id="Group_1533" data-name="Group 1533" transform="translate(6.776 1.417)">
            <g id="Group_1532" data-name="Group 1532" transform="translate(0 0)">
              <rect id="Rectangle_824" data-name="Rectangle 824" width="5.068" height="1.248" transform="translate(1.048 0) rotate(57.119)" fill="#879dbb"/>
            </g>
          </g>
          <g id="Group_1535" data-name="Group 1535" transform="translate(5.43)">
            <g id="Group_1534" data-name="Group 1534">
              <path id="Path_1757" data-name="Path 1757" d="M14.6,31.641c-.53-.3-.113-1.059.416-1.929s.983-1.626,1.475-1.324A1.983,1.983,0,0,1,14.6,31.641Z" transform="translate(-14.352 -28.32)" fill="#879dbb"/>
            </g>
          </g>
          <g id="Group_1537" data-name="Group 1537" transform="translate(1.524 11.022)">
            <g id="Group_1536" data-name="Group 1536" transform="translate(0 0)">
              <rect id="Rectangle_825" data-name="Rectangle 825" width="5.068" height="1.248" transform="translate(0.063 0) rotate(2.881)" fill="#879dbb"/>
            </g>
          </g>
          <g id="Group_1539" data-name="Group 1539" transform="translate(0 9.415)">
            <g id="Group_1538" data-name="Group 1538">
              <path id="Path_1758" data-name="Path 1758" d="M2.116,53.285c-.53-.3-.946.416-1.475,1.324s-.908,1.626-.416,1.929a1.783,1.783,0,0,0,2.08-.946A1.745,1.745,0,0,0,2.116,53.285Z" transform="translate(0.004 -53.214)" fill="#879dbb"/>
            </g>
          </g>
        </g>
      </g>
      <g id="Group_1546" data-name="Group 1546" transform="translate(4.619 13.124)">
        <g id="Group_1543" data-name="Group 1543" transform="translate(0.353 0.416)">
          <g id="Group_1542" data-name="Group 1542">
            <path id="Path_1759" data-name="Path 1759" d="M21.862,53.8a1.757,1.757,0,0,1-.87-.227l-6.959-4.009a1.8,1.8,0,0,1-.832-1.059,1.62,1.62,0,0,1,.189-1.324L19.441,36.67a1.8,1.8,0,0,1,1.551-.87,1.757,1.757,0,0,1,.87.227l6.959,4.009a1.777,1.777,0,0,1,.643,2.421L23.413,52.971A1.9,1.9,0,0,1,21.862,53.8Z" transform="translate(-13.141 -35.8)" fill="#ec1c24"/>
          </g>
        </g>
        <g id="Group_1545" data-name="Group 1545">
          <g id="Group_1544" data-name="Group 1544">
            <path id="Path_1760" data-name="Path 1760" d="M20.412,35.456h0a1.416,1.416,0,0,1,.681.189l6.959,4.009a1.34,1.34,0,0,1,.492,1.891L22.492,52.06a1.445,1.445,0,0,1-1.21.681,1.415,1.415,0,0,1-.681-.189l-6.959-4.009a1.34,1.34,0,0,1-.492-1.891L19.2,36.137a1.4,1.4,0,0,1,1.21-.681m0-.756a2.1,2.1,0,0,0-1.853,1.059L12.507,46.273a2.1,2.1,0,0,0,.756,2.912l6.959,4.009a2.255,2.255,0,0,0,1.059.3,2.1,2.1,0,0,0,1.853-1.059l6.051-10.514a2.115,2.115,0,0,0-.794-2.912l-6.921-4.047a2.2,2.2,0,0,0-1.059-.265Z" transform="translate(-12.207 -34.7)" fill="#879dbb"/>
          </g>
        </g>
      </g>
      <g id="Group_1548" data-name="Group 1548" transform="translate(7.052 15.687)">
        <g id="Group_1547" data-name="Group 1547">
          <path id="Path_1761" data-name="Path 1761" d="M24.9,55.14A1.9,1.9,0,0,1,24,54.913l-4.463-2.572a1.741,1.741,0,0,1-.832-1.1,1.8,1.8,0,0,1,.189-1.4L23.2,42.394a1.844,1.844,0,0,1,2.5-.681l4.425,2.572a1.741,1.741,0,0,1,.832,1.1,1.8,1.8,0,0,1-.189,1.4l-4.274,7.451a1.741,1.741,0,0,1-1.1.832A1.117,1.117,0,0,1,24.9,55.14ZM24.79,42.2a1.124,1.124,0,0,0-.946.53l-4.312,7.489a1.065,1.065,0,0,0-.113.832,1.19,1.19,0,0,0,.492.643l4.463,2.572a1.065,1.065,0,0,0,.832.113,1.19,1.19,0,0,0,.643-.492l4.312-7.451a1.065,1.065,0,0,0,.113-.832,1.19,1.19,0,0,0-.492-.643L25.32,42.394A.763.763,0,0,0,24.79,42.2Z" transform="translate(-18.641 -41.477)" fill="#d5dfed"/>
        </g>
      </g>
      <g id="Group_1567" data-name="Group 1567" transform="translate(43.761 9.947)">
        <g id="Group_1553" data-name="Group 1553">
          <g id="Group_1550" data-name="Group 1550">
            <g id="Group_1549" data-name="Group 1549">
              <circle id="Ellipse_73" data-name="Ellipse 73" cx="1.475" cy="1.475" r="1.475" fill="#879dbb"/>
            </g>
          </g>
          <g id="Group_1552" data-name="Group 1552" transform="translate(12.784 22.163)">
            <g id="Group_1551" data-name="Group 1551">
              <circle id="Ellipse_74" data-name="Ellipse 74" cx="1.475" cy="1.475" r="1.475" fill="#879dbb"/>
            </g>
          </g>
        </g>
        <g id="Group_1555" data-name="Group 1555" transform="translate(0.813 0.946)">
          <g id="Group_1554" data-name="Group 1554" transform="translate(0 0)">
            <rect id="Rectangle_826" data-name="Rectangle 826" width="5.068" height="1.248" transform="matrix(0.5, 0.866, -0.866, 0.5, 1.081, 0)" fill="#879dbb"/>
          </g>
        </g>
        <g id="Group_1557" data-name="Group 1557" transform="translate(11.192 18.954)">
          <g id="Group_1556" data-name="Group 1556" transform="translate(0 0)">
            <rect id="Rectangle_827" data-name="Rectangle 827" width="5.068" height="1.248" transform="matrix(0.5, 0.866, -0.866, 0.5, 1.081, 0)" fill="#879dbb"/>
          </g>
        </g>
        <g id="Group_1566" data-name="Group 1566" transform="translate(10.592 0.762)">
          <g id="Group_1559" data-name="Group 1559" transform="translate(0 1.437)">
            <g id="Group_1558" data-name="Group 1558" transform="translate(0 0)">
              <rect id="Rectangle_828" data-name="Rectangle 828" width="5.068" height="1.248" transform="translate(3.8 0.678) rotate(122.881)" fill="#879dbb"/>
            </g>
          </g>
          <g id="Group_1561" data-name="Group 1561" transform="translate(2.474)">
            <g id="Group_1560" data-name="Group 1560">
              <path id="Path_1762" data-name="Path 1762" d="M152.649,31.637c.529-.3.113-1.059-.416-1.929-.53-.908-.983-1.626-1.475-1.324a1.983,1.983,0,0,0,1.891,3.253Z" transform="translate(-150.246 -28.314)" fill="#879dbb"/>
            </g>
          </g>
          <g id="Group_1563" data-name="Group 1563" transform="translate(3.892 11.032)">
            <g id="Group_1562" data-name="Group 1562" transform="translate(0 0)">
              <rect id="Rectangle_829" data-name="Rectangle 829" width="5.068" height="1.248" transform="translate(5.124 1.246) rotate(177.119)" fill="#879dbb"/>
            </g>
          </g>
          <g id="Group_1565" data-name="Group 1565" transform="translate(7.912 9.418)">
            <g id="Group_1564" data-name="Group 1564">
              <path id="Path_1763" data-name="Path 1763" d="M165.145,53.285c.529-.3.946.416,1.475,1.324s.908,1.626.416,1.929a1.783,1.783,0,0,1-2.08-.946A1.745,1.745,0,0,1,165.145,53.285Z" transform="translate(-164.624 -53.214)" fill="#879dbb"/>
            </g>
          </g>
        </g>
      </g>
      <g id="Group_1572" data-name="Group 1572" transform="translate(42.996 13.124)">
        <g id="Group_1569" data-name="Group 1569" transform="translate(0.372 0.416)">
          <g id="Group_1568" data-name="Group 1568">
            <path id="Path_1764" data-name="Path 1764" d="M122.506,53.8a1.842,1.842,0,0,1-1.551-.87L114.9,42.419a1.805,1.805,0,0,1-.189-1.324,1.67,1.67,0,0,1,.832-1.059l6.959-4.009a1.757,1.757,0,0,1,.87-.227,1.842,1.842,0,0,1,1.551.87l6.051,10.514a1.786,1.786,0,0,1-.643,2.421l-6.959,4.009a2.243,2.243,0,0,1-.87.189Z" transform="translate(-114.662 -35.8)" fill="#7f3f97"/>
          </g>
        </g>
        <g id="Group_1571" data-name="Group 1571">
          <g id="Group_1570" data-name="Group 1570">
            <path id="Path_1765" data-name="Path 1765" d="M122.763,35.456a1.445,1.445,0,0,1,1.21.681l6.051,10.514a1.4,1.4,0,0,1-.492,1.891l-6.959,4.009a1.541,1.541,0,0,1-.681.189,1.445,1.445,0,0,1-1.21-.681l-6.051-10.514a1.4,1.4,0,0,1,.492-1.891l6.959-4.009a1.1,1.1,0,0,1,.681-.189m0-.756a1.811,1.811,0,0,0-1.059.3l-6.959,3.971a2.158,2.158,0,0,0-.794,2.912L120,52.4a2.14,2.14,0,0,0,1.853,1.059,1.811,1.811,0,0,0,1.059-.3l7-3.971a2.158,2.158,0,0,0,.794-2.912l-6.051-10.514a2.2,2.2,0,0,0-1.891-1.059Z" transform="translate(-113.677 -34.7)" fill="#879dbb"/>
          </g>
        </g>
      </g>
      <g id="Group_1574" data-name="Group 1574" transform="translate(45.454 15.687)">
        <g id="Group_1573" data-name="Group 1573">
          <path id="Path_1766" data-name="Path 1766" d="M126.313,55.14a2.6,2.6,0,0,1-.492-.076,1.741,1.741,0,0,1-1.1-.832l-4.312-7.451a1.844,1.844,0,0,1,.681-2.5l4.463-2.572a1.844,1.844,0,0,1,2.5.681l4.312,7.451h0a1.978,1.978,0,0,1,.189,1.4,1.65,1.65,0,0,1-.832,1.1l-4.5,2.572A2.014,2.014,0,0,1,126.313,55.14Zm.113-12.935a.868.868,0,0,0-.529.151l-4.463,2.572a1.058,1.058,0,0,0-.378,1.475l4.312,7.451a1.037,1.037,0,0,0,.643.492,1.087,1.087,0,0,0,.832-.113l4.463-2.572a1.037,1.037,0,0,0,.492-.643.976.976,0,0,0-.113-.794h0l-4.312-7.451A1.081,1.081,0,0,0,126.426,42.2Z" transform="translate(-120.177 -41.477)" fill="#d5dfed"/>
        </g>
      </g>
    </g>
  </g>
</svg>
