<svg xmlns="http://www.w3.org/2000/svg" width="65.166" height="34" viewBox="0 0 65.166 34">
  <g id="Peer_to_peer" data-name="Peer to peer" transform="translate(-1 -14)">
    <path id="Path_3962" data-name="Path 3962" d="M18.754,23H3.536A2.536,2.536,0,0,0,1,25.536V54.281a2.536,2.536,0,0,0,2.536,2.536H18.754a2.536,2.536,0,0,0,2.536-2.536V25.536A2.536,2.536,0,0,0,18.754,23Zm-4.465,1.691-.423,1.691H8.424L8,24.691Zm5.31,29.59a.845.845,0,0,1-.845.845H3.536a.845.845,0,0,1-.845-.845V25.536a.845.845,0,0,1,.845-.845H6.258l.686,2.742a.845.845,0,0,0,.82.64h6.763a.845.845,0,0,0,.82-.64l.686-2.742h2.721a.845.845,0,0,1,.845.845Z" transform="translate(0 -8.817)" fill="#fba58a"/>
    <path id="Path_3963" data-name="Path 3963" d="M9.073,58H4.845a.845.845,0,1,0,0,1.691H9.073a.845.845,0,1,0,0-1.691Z" transform="translate(-0.464 -14.227)" fill="#fba58a"/>
    <path id="Path_3964" data-name="Path 3964" d="M13.691,58h-.845a.845.845,0,1,0,0,1.691h.845a.845.845,0,0,0,0-1.691Z" transform="translate(-1.7 -14.227)" fill="#fba58a"/>
    <path id="Path_3965" data-name="Path 3965" d="M56.754,1H41.536A2.536,2.536,0,0,0,39,3.536V32.281a2.536,2.536,0,0,0,2.536,2.536H56.754a2.536,2.536,0,0,0,2.536-2.536V3.536A2.536,2.536,0,0,0,56.754,1ZM52.289,2.691l-.423,1.691H46.424L46,2.691Zm5.31,29.59a.845.845,0,0,1-.845.845H41.536a.845.845,0,0,1-.845-.845V3.536a.845.845,0,0,1,.845-.845h2.721l.686,2.742a.845.845,0,0,0,.82.64h6.763a.845.845,0,0,0,.82-.64l.686-2.742h2.721a.845.845,0,0,1,.845.845Z" transform="translate(6.876 13)" fill="#fba58a"/>
    <path id="Path_3966" data-name="Path 3966" d="M47.073,36H42.845a.845.845,0,1,0,0,1.691h4.227a.845.845,0,1,0,0-1.691Z" transform="translate(6.412 7.59)" fill="#fba58a"/>
    <path id="Path_3967" data-name="Path 3967" d="M51.691,36h-.845a.845.845,0,1,0,0,1.691h.845a.845.845,0,1,0,0-1.691Z" transform="translate(5.176 7.59)" fill="#fba58a"/>
    <path id="Path_3968" data-name="Path 3968" d="M46.884,46.78c-.819-.041-16.2,0-16.2,0a.845.845,0,1,0,0,1.691h16.2a.845.845,0,0,0,.845-.845A.873.873,0,0,0,46.884,46.78Z" transform="translate(-3.042 -9.77)" fill="#fba58a"/>
    <path id="Path_3973" data-name="Path 3973" d="M46.884,46.78c-.819-.041-16.2,0-16.2,0a.845.845,0,1,0,0,1.691h16.2a.845.845,0,0,0,.845-.845A.873.873,0,0,0,46.884,46.78Z" transform="translate(-7.292 -21.103)" fill="#fba58a"/>
    <path id="Path_3970" data-name="Path 3970" d="M27.691,50h-.845a.845.845,0,1,0,0,1.691h.845a.845.845,0,1,0,0-1.691Z" transform="translate(-2.448 -12.991)" fill="#fba58a"/>
    <path id="Path_3974" data-name="Path 3974" d="M27.691,50h-.845a.845.845,0,1,0,0,1.691h.845a.845.845,0,1,0,0-1.691Z" transform="translate(15.969 -24.324)" fill="#fba58a"/>
    <path id="Path_3971" data-name="Path 3971" d="M12.073,37a5.073,5.073,0,1,0,5.073,5.073A5.073,5.073,0,0,0,12.073,37Zm0,8.454a3.382,3.382,0,1,1,3.382-3.382A3.382,3.382,0,0,1,12.073,45.454Z" transform="translate(-0.927 -10.981)" fill="#fba58a"/>
    <path id="Path_3972" data-name="Path 3972" d="M50.073,15a5.073,5.073,0,1,0,5.073,5.073A5.073,5.073,0,0,0,50.073,15Zm0,8.454a3.382,3.382,0,1,1,3.382-3.382A3.382,3.382,0,0,1,50.073,23.454Z" transform="translate(5.948 10.836)" fill="#fba58a"/>
  </g>
</svg>
