<svg id="Group_2830" data-name="Group 2830" xmlns="http://www.w3.org/2000/svg" width="37.776" height="76.966" viewBox="0 0 37.776 76.966">
  <path id="Path_3713" data-name="Path 3713" d="M32.115.12,6,0A5.666,5.666,0,0,0,.288,5.66L0,71.138a5.666,5.666,0,0,0,5.66,5.708l26.119.12a5.666,5.666,0,0,0,5.708-5.66l.288-65.477A5.681,5.681,0,0,0,32.115.12ZM35.785,70.3c0,2.207-1.8,4.705-4.005,4.681L5.708,74.86c-2.207,0-3.981-2.523-3.957-4.729L2.015,6.212A3.957,3.957,0,0,1,6.02,2.255l4.437.024h1.775a1.261,1.261,0,0,1,1.223,1.3v.911a1.261,1.261,0,0,0,1.223,1.3l9.882.048a1.255,1.255,0,0,0,1.223-1.271V3.646a1.239,1.239,0,0,1,1.223-1.271l5.061.024A3.957,3.957,0,0,1,36.025,6.4Z" transform="translate(0 0)" fill="#8bffbc"/>
</svg>
