<svg xmlns="http://www.w3.org/2000/svg" width="87.087" height="87.087" viewBox="0 0 87.087 87.087">
  <g id="play-button_1_" data-name="play-button (1)" transform="translate(0.5 0.5)">
    <path id="Path_3284" data-name="Path 3284" d="M55.808,35.771,24.243,14.249A1.434,1.434,0,0,0,22,15.435V58.478a1.434,1.434,0,0,0,2.243,1.185L55.808,38.141a1.434,1.434,0,0,0,0-2.37ZM24.87,55.762V18.151L52.453,36.956Z" transform="translate(9.565 6.087)" fill="#fff" stroke="#1c3f94" stroke-width="1"/>
    <path id="Path_3285" data-name="Path 3285" d="M43.044,0A43.044,43.044,0,1,0,86.087,43.044,43.092,43.092,0,0,0,43.044,0Zm0,83.218A40.174,40.174,0,1,1,83.218,43.044,40.22,40.22,0,0,1,43.044,83.218Z" fill="#fff" stroke="#1c3f94" stroke-width="1"/>
  </g>
</svg>
