<svg xmlns="http://www.w3.org/2000/svg" viewBox="0 0 965 965" width="965" height="965">
	<style>
		tspan { white-space:pre }
		.shp0 { fill: #d30065 } 
		.shp1 { fill: #003481 } 
		.shp2 { fill: #ed4d22 } 
		.shp3 { fill: #c2cf1a } 
		.shp4 { fill: #309c3a } 
		.shp5 { fill: #009fde } 
		.shp6 { fill: #ffd937 } 
		.shp7 { fill: #e3003f } 
		.shp8 { fill: #cbb292 } 
		.shp9 { fill: #032d6c } 
		.shp10 { fill: #ecf0f1 } 
		.shp11 { fill: #547580 } 
		.shp12 { fill: #ffffff } 
	</style>
	<g id="Layer">
		<g id="Group_2555">
			<path id="svg_2" class="shp0" d="M591.4 714.5L591.4 863L685.2 813.7L685.2 671.7L638.5 693.1L591.4 714.5Z" />
			<path id="svg_3" class="shp1" d="M715.5 647.3L715.5 788.9L800.3 745.1L800.3 608.5L757.9 628.1L715.5 647.3L715.5 647.3Z" />
			<path id="svg_5" class="shp2" d="M238.6 693.1L191.9 671.7L191.9 814.4L285.3 862.9L285.3 714.5L285.3 714.5L238.6 693.1Z" />
			<path id="svg_6" class="shp1" d="M0 532L0 668.9L85.5 713.5L85.5 571.5L42.8 551.9L0 532Z" />
			<path id="svg_7" class="shp3" d="M696.3 592.5L799.2 545.4L799.2 395.4L696.3 436.7L696.3 592.5L696.3 592.5Z" />
			<path id="svg_9" class="shp1" d="M810.7 739.7L895.5 700.6L895.5 564L810.7 597.3L810.7 739.7Z" />
			<path id="svg_10" class="shp4" d="M190 602L190 450.6L189.6 450.6L189.6 446.3L87.1 405.7L87.1 554.9L190 602Z" />
			<path id="svg_14" class="shp2" d="M951.8 456.5L951.8 313L858 344.2L858 493L951.8 456.5Z" />
			<path id="svg_15" class="shp1" d="M880.1 293.3L964.9 260L964.9 123L880.1 150.9L880.1 293.3Z" />
			<path id="svg_16" class="shp5" d="M408.6 135.1L306.1 101L306.1 250.6L306.1 250.6L408.6 291.2L408.6 135.1Z" />
			<path id="svg_17" class="shp6" d="M237.8 284.3L237.8 135.5L144.4 104L144.4 247.4L237.8 284.3Z" />
			<path id="svg_18" class="shp1" d="M85.5 261.8L0 233.9L0 370.8L85.5 404.5L85.5 261.8Z" />
		</g>
		<g id="Group_2983">
			<path id="Path_3995" class="shp7" d="M764.77 159.9C758.88 159.9 754.08 155.1 754.08 149.2L754.08 127.8C754.08 121.9 758.88 117.1 764.77 117.1C770.67 117.1 775.48 121.9 775.48 127.8L775.48 149.2C775.48 155.1 770.67 159.9 764.77 159.9L764.77 159.9Z" />
			<path id="Path_3996" class="shp7" d="M764.77 288.5C758.88 288.5 754.08 283.7 754.08 277.8L754.08 256.4C754.08 250.5 758.88 245.7 764.77 245.7C770.67 245.7 775.48 250.5 775.48 256.4L775.48 277.8C775.48 283.7 770.67 288.5 764.77 288.5L764.77 288.5Z" />
			<path id="Path_3997" class="shp2" d="M839.88 213.5L818.38 213.5C812.48 213.5 807.67 208.7 807.67 202.8C807.67 196.9 812.48 192.1 818.38 192.1L839.88 192.1C845.77 192.1 850.58 196.9 850.58 202.8C850.58 208.7 845.77 213.5 839.88 213.5Z" />
			<path id="Path_3998" class="shp7" d="M817.88 266.6C815.08 266.6 812.27 265.5 810.27 263.5L795.08 248.3C790.98 244 791.08 237.3 795.27 233.1C799.48 229.1 806.08 229.1 810.17 233.1L825.38 248.3C829.58 252.5 829.58 259.3 825.38 263.5C823.48 265.4 820.67 266.6 817.88 266.6L817.88 266.6Z" />
			<path id="Path_3999" class="shp7" d="M726.88 175.6C724.08 175.6 721.27 174.5 719.27 172.5L704.08 157.3C699.77 153.2 699.67 146.4 703.77 142.1C707.88 137.8 714.67 137.7 718.98 141.8C719.08 141.9 719.17 142 719.27 142.1L734.48 157.3C738.67 161.5 738.67 168.3 734.48 172.5C732.48 174.5 729.77 175.6 726.88 175.6L726.88 175.6Z" />
			<path id="Path_4000" class="shp2" d="M802.67 175.6C796.77 175.6 791.98 170.8 791.98 164.9C791.98 162.1 793.08 159.3 795.08 157.3L810.27 142.1C814.38 137.9 821.17 137.8 825.48 141.9C829.67 146 829.77 152.8 825.67 157.1C825.58 157.2 825.58 157.2 825.48 157.3L810.27 172.5C808.27 174.5 805.58 175.6 802.67 175.6Z" />
		</g>
		<path id="Path_4001" class="shp8" d="M562.3 235C556.4 235 551.6 230.2 551.6 224.3C551.6 222.3 552.2 220.3 553.2 218.6C567.3 196.1 602.9 162.8 682.8 192.7C732.1 211.2 748.1 206.1 751.9 204.1C753.9 203 754.2 202 754.2 202C754.2 196.3 758.9 191.7 764.6 191.7C764.7 191.7 764.8 191.7 764.9 191.7C770.9 191.9 775.6 196.8 775.6 202.8C775.2 210.3 771.2 217.1 765 221.3C749.1 232.3 719.8 229.5 675.4 212.9C626 194.4 590 200.3 571.4 230C569.4 233.1 566 235 562.3 235Z" />
		<path id="Path_4002" class="shp2" d="M764.8 159.9C758.9 159.9 754.1 155.1 754.1 149.2L754.1 127.8C754.1 121.9 758.9 117.1 764.8 117.1C770.7 117.1 775.5 121.9 775.5 127.8L775.5 149.2C775.5 155.1 770.7 159.9 764.8 159.9L764.8 159.9Z" />
		<path id="Path_4003" class="shp2" d="M764.8 288.5C758.9 288.5 754.1 283.7 754.1 277.8L754.1 256.4C754.1 250.5 758.9 245.7 764.8 245.7C770.7 245.7 775.5 250.5 775.5 256.4L775.5 277.8C775.5 283.7 770.7 288.5 764.8 288.5L764.8 288.5Z" />
		<path id="Path_4004" class="shp2" d="M817.9 266.6C815.1 266.6 812.3 265.5 810.3 263.5L795.1 248.3C791 244 791.1 237.3 795.3 233.1C799.5 229.1 806.1 229.1 810.2 233.1L825.4 248.3C829.6 252.5 829.6 259.3 825.4 263.5C823.4 265.4 820.7 266.6 817.9 266.6L817.9 266.6Z" />
		<path id="Path_4005" class="shp2" d="M726.9 175.6C724.1 175.6 721.3 174.5 719.3 172.5L704.1 157.3C699.8 153.2 699.7 146.4 703.8 142.1C707.9 137.8 714.7 137.7 719 141.8C719.1 141.9 719.2 142 719.3 142.1L734.5 157.3C738.7 161.5 738.7 168.3 734.5 172.5C732.5 174.5 729.7 175.6 726.9 175.6L726.9 175.6Z" />
		<path id="Path_4006" class="shp9" d="M440.1 299.2L458.3 250.4C462.8 234 474.8 220.6 490.6 214.5C500.3 211.8 510.5 211.3 520.5 213C551.9 217.4 581.5 230.3 606 250.5C613.6 256.5 619.6 264.2 623.5 273C626.3 279.7 627.1 287.1 626 294.3C623.6 303.6 620.3 312.6 616 321.2C610.4 334.9 604.9 348.7 599.4 362.5" />
		<path id="Path_4007" class="shp1" d="M668.2 524.3C668.2 648.6 567.4 749.4 443.1 749.4C318.8 749.4 218 648.6 218 524.3C218 400 318.8 299.2 443.1 299.2C567.4 299.2 668.2 400 668.2 524.3Z" />
		<path id="Path_4009" class="shp10" d="M285.4 610.3C281.2 610.3 277.4 607.9 275.7 604.1C236 517.4 265.8 414.7 345.8 362.8C350.6 359.3 357.3 360.3 360.8 365.1C364.3 369.9 363.3 376.6 358.5 380.1C358.2 380.3 357.8 380.6 357.5 380.8C286.4 426.8 259.9 518.1 295.2 595.1C297.7 600.5 295.3 606.8 289.9 609.3C288.5 610 287 610.3 285.4 610.3L285.4 610.3Z" />
		<path id="Path_4010" class="shp10" d="M384.7 365.5C378.8 365.5 374 360.7 374 354.8C374 350.4 376.7 346.4 380.8 344.8C386.3 342.6 391.9 340.7 397.7 339.1C403.4 337.4 409.3 340.6 411 346.3C412.7 352 409.5 357.9 403.8 359.6C403.5 359.7 403.3 359.7 403 359.8C398.1 361.1 393.4 362.7 388.7 364.6C387.4 365.3 386.1 365.5 384.7 365.5Z" />
		<path id="Path_4011" class="shp11" d="M534.8 687.9C528.9 687.9 524.1 683.1 524.1 677.2C524.1 673.6 525.9 670.2 529 668.2C600 622.1 626.6 530.9 591.3 453.8C588.7 448.5 590.9 442.1 596.2 439.5C601.5 436.9 607.9 439.1 610.5 444.4C610.6 444.6 610.7 444.7 610.7 444.9C650.4 531.6 620.6 634.3 540.6 686.2C538.9 687.3 536.9 687.9 534.8 687.9Z" />
		<g id="Layer">
			<path id="Layer" class="shp12" d="M351.3 472.5L387.4 472.5L387.4 508.6L351.3 508.6L351.3 472.5ZM351.3 580.9L495.8 580.9L495.8 616.5L351.3 616.5L351.3 580.9ZM387.5 436.3L532 436.3L532 472.4L387.5 472.4L387.5 436.3ZM387.5 508.6L495.9 508.6L495.9 544.7L387.5 544.7L387.5 508.6ZM495.8 544.7L532 544.7L532 580.8L495.9 580.8L495.9 544.7L495.8 544.7Z" />
		</g>
	</g>
</svg>