<?xml version="1.0" encoding="utf-8"?>
<!-- Generator: Adobe Illustrator 18.1.0, SVG Export Plug-In . SVG Version: 6.00 Build 0)  -->
<svg version="1.1" id="Group_2557" xmlns="http://www.w3.org/2000/svg" xmlns:xlink="http://www.w3.org/1999/xlink" x="0px" y="0px"
	 viewBox="-267 370 964.8 762" enable-background="new -267 370 964.8 762" xml:space="preserve">
<g>
	<g id="Group_2555" transform="translate(0 0)">
		<path id="svg_2" fill="#D30065" d="M324.4,983.5V1132l93.8-49.3v-142l-46.7,21.4L324.4,983.5z"/>
		<path id="svg_3" fill="#003481" d="M448.5,916.3v141.6l84.8-43.8V877.5l-42.4,19.6L448.5,916.3L448.5,916.3z"/>
		<path id="svg_5" fill="#ED4D22" d="M-28.4,962.1l-46.7-21.4v142.7l93.4,48.5V983.5l0,0L-28.4,962.1z"/>
		<path id="svg_6" fill="#003481" d="M-267,801v136.9l85.5,44.6v-142l-42.7-19.6L-267,801z"/>
		<path id="svg_7" fill="#C2CF1A" d="M429.3,861.5l102.9-47.1v-150l-102.9,41.3V861.5z"/>
		<path id="svg_9" fill="#003481" d="M543.7,1008.7l84.8-39.1V833l-84.8,33.3V1008.7z"/>
		<path id="svg_10" fill="#309C3A" d="M-77,871V719.6h-0.4v-4.3l-102.5-40.6v149.2L-77,871z"/>
		<path id="svg_14" fill="#ED4D22" d="M684.8,725.5V582L591,613.2V762L684.8,725.5z"/>
		<path id="svg_15" fill="#003481" d="M613.1,562.3l84.8-33.3V392l-84.8,27.9V562.3z"/>
		<path id="svg_16" fill="#009FDE" d="M141.6,404.1L39.1,370v149.6l0,0l102.5,40.6V404.1z"/>
		<path id="svg_17" fill="#FFD937" d="M-29.2,553.3V404.5l-93.4-31.5v143.4L-29.2,553.3z"/>
		<path id="svg_18" fill="#003481" d="M-181.5,530.8l-85.5-27.9v136.9l85.5,33.7V530.8z"/>
	</g>
	<g id="Group_2983" transform="translate(482.875 0)">
		<path id="Path_3995" fill="#E3003F" d="M14.9,428.9c-5.9,0-10.7-4.8-10.7-10.7v-21.4c0-5.9,4.8-10.7,10.7-10.7s10.7,4.8,10.7,10.7
			v21.4C25.6,424.1,20.8,428.9,14.9,428.9C14.9,428.9,14.9,428.9,14.9,428.9z"/>
		<path id="Path_3996" fill="#E3003F" d="M14.9,557.5c-5.9,0-10.7-4.8-10.7-10.7v-21.4c0-5.9,4.8-10.7,10.7-10.7s10.7,4.8,10.7,10.7
			v21.4C25.6,552.7,20.8,557.5,14.9,557.5C14.9,557.5,14.9,557.5,14.9,557.5z"/>
		<path id="Path_3997" fill="#ED4D22" d="M90,482.5H68.5c-5.9,0-10.7-4.8-10.7-10.7c0-5.9,4.8-10.7,10.7-10.7H90
			c5.9,0,10.7,4.8,10.7,10.7C100.7,477.7,95.9,482.5,90,482.5z"/>
		<path id="Path_3998" fill="#E3003F" d="M68,535.6c-2.8,0-5.6-1.1-7.6-3.1l-15.2-15.2c-4.1-4.3-4-11,0.2-15.2c4.2-4,10.8-4,14.9,0
			l15.2,15.2c4.2,4.2,4.2,11,0,15.2C73.6,534.4,70.8,535.6,68,535.6L68,535.6z"/>
		<path id="Path_3999" fill="#E3003F" d="M-23,444.6c-2.8,0-5.6-1.1-7.6-3.1l-15.2-15.2c-4.3-4.1-4.4-10.9-0.3-15.2
			c4.1-4.3,10.9-4.4,15.2-0.3c0.1,0.1,0.2,0.2,0.3,0.3l15.2,15.2c4.2,4.2,4.2,11,0,15.2C-17.4,443.5-20.1,444.6-23,444.6L-23,444.6z
			"/>
		<path id="Path_4000" fill="#ED4D22" d="M52.8,444.6c-5.9,0-10.7-4.8-10.7-10.7c0-2.8,1.1-5.6,3.1-7.6l15.2-15.2
			c4.1-4.2,10.9-4.3,15.2-0.2c4.2,4.1,4.3,10.9,0.2,15.2c-0.1,0.1-0.1,0.1-0.2,0.2l-15.2,15.2C58.4,443.5,55.7,444.6,52.8,444.6z"/>
	</g>
	<path id="Path_4001" fill="#CBB292" d="M295.3,504c-5.9,0-10.7-4.8-10.7-10.7c0-2,0.6-4,1.6-5.7c14.1-22.5,49.7-55.8,129.6-25.9
		c49.3,18.5,65.3,13.4,69.1,11.4c2-1.1,2.3-2.1,2.3-2.1c0-5.7,4.7-10.3,10.4-10.3c0.1,0,0.2,0,0.3,0c6,0.2,10.7,5.1,10.7,11.1
		c-0.4,7.5-4.4,14.3-10.6,18.5c-15.9,11-45.2,8.2-89.6-8.4C359,463.4,323,469.3,304.4,499C302.4,502.1,299,504,295.3,504z"/>
	<path id="Path_4002" fill="#ED4D22" d="M497.8,428.9c-5.9,0-10.7-4.8-10.7-10.7v-21.4c0-5.9,4.8-10.7,10.7-10.7s10.7,4.8,10.7,10.7
		v21.4C508.5,424.1,503.7,428.9,497.8,428.9C497.8,428.9,497.8,428.9,497.8,428.9z"/>
	<path id="Path_4003" fill="#ED4D22" d="M497.8,557.5c-5.9,0-10.7-4.8-10.7-10.7v-21.4c0-5.9,4.8-10.7,10.7-10.7s10.7,4.8,10.7,10.7
		v21.4C508.5,552.7,503.7,557.5,497.8,557.5C497.8,557.5,497.8,557.5,497.8,557.5z"/>
	<path id="Path_4004" fill="#ED4D22" d="M550.9,535.6c-2.8,0-5.6-1.1-7.6-3.1l-15.2-15.2c-4.1-4.3-4-11,0.2-15.2
		c4.2-4,10.8-4,14.9,0l15.2,15.2c4.2,4.2,4.2,11,0,15.2C556.4,534.4,553.7,535.6,550.9,535.6L550.9,535.6z"/>
	<path id="Path_4005" fill="#ED4D22" d="M459.9,444.6c-2.8,0-5.6-1.1-7.6-3.1l-15.2-15.2c-4.3-4.1-4.4-10.9-0.3-15.2
		c4.1-4.3,10.9-4.4,15.2-0.3c0.1,0.1,0.2,0.2,0.3,0.3l15.2,15.2c4.2,4.2,4.2,11,0,15.2C465.5,443.5,462.7,444.6,459.9,444.6
		L459.9,444.6z"/>
	<path id="Path_4006" fill="#032D6C" d="M173.1,568.2l18.2-48.8c4.5-16.4,16.5-29.8,32.3-35.9c9.7-2.7,19.9-3.2,29.9-1.5
		c31.4,4.4,61,17.3,85.5,37.5c7.6,6,13.6,13.7,17.5,22.5c2.8,6.7,3.6,14.1,2.5,21.3c-2.4,9.3-5.7,18.3-10,26.9
		c-5.6,13.7-11.1,27.5-16.6,41.3"/>
	<path id="Path_4007" fill="#003481" d="M401.2,793.3c0,124.3-100.8,225.1-225.1,225.1S-49,917.6-49,793.3S51.8,568.2,176.1,568.2
		S401.2,669,401.2,793.3z"/>
	<path id="Path_4009" fill="#ECF0F1" d="M18.4,879.3c-4.2,0-8-2.4-9.7-6.2c-39.7-86.7-9.9-189.4,70.1-241.3c4.8-3.5,11.5-2.5,15,2.3
		c3.5,4.8,2.5,11.5-2.3,15c-0.3,0.2-0.7,0.5-1,0.7C19.4,695.8-7.1,787.1,28.2,864.1c2.5,5.4,0.1,11.7-5.3,14.2
		C21.5,879,20,879.3,18.4,879.3L18.4,879.3z"/>
	<path id="Path_4010" fill="#ECF0F1" d="M117.7,634.5c-5.9,0-10.7-4.8-10.7-10.7c0-4.4,2.7-8.4,6.8-10c5.5-2.2,11.1-4.1,16.9-5.7
		c5.7-1.7,11.6,1.5,13.3,7.2c1.7,5.7-1.5,11.6-7.2,13.3c-0.3,0.1-0.5,0.1-0.8,0.2c-4.9,1.3-9.6,2.9-14.3,4.8
		C120.4,634.3,119.1,634.5,117.7,634.5z"/>
	<path id="Path_4011" fill="#547580" d="M267.8,956.9c-5.9,0-10.7-4.8-10.7-10.7c0-3.6,1.8-7,4.9-9c71-46.1,97.6-137.3,62.3-214.4
		c-2.6-5.3-0.4-11.7,4.9-14.3c5.3-2.6,11.7-0.4,14.3,4.9c0.1,0.2,0.2,0.3,0.2,0.5c39.7,86.7,9.9,189.4-70.1,241.3
		C271.9,956.3,269.9,956.9,267.8,956.9z"/>
	<g>
		<path fill="#FFFFFF" d="M84.3,741.5h36.1v36.1H84.3V741.5z M84.3,849.9h144.5v35.6H84.3V849.9z M120.5,705.3H265v36.1H120.5V705.3
			z M120.5,777.6h108.4v36.1H120.5V777.6z M228.8,813.7H265v36.1h-36.1V813.7z"/>
	</g>
</g>
</svg>
