<svg xmlns="http://www.w3.org/2000/svg" width="13.333" height="11.511" viewBox="0 0 13.333 11.511">
  <g id="Group_2657" data-name="Group 2657" transform="translate(-1385.835 -358.212)">
    <path id="Path_1034" data-name="Path 1034" d="M12.331.136.492,4.773s-.564.2-.509.546c.036.346.509.509.509.509l2.982,1,7.147-4.546s.418-.255.4,0c0,0,.073.036-.145.255S5.239,7.61,5.239,7.61v.073l-.018-.018-.364,3.255a.327.327,0,0,0,.309-.036L7.094,9.137h0l3,2.291a.787.787,0,0,0,1.109-.382L13.313.408C13.313-.283,12.331.136,12.331.136Z" transform="translate(1385.855 358.202)" fill="#1c3f94"/>
  </g>
</svg>
