<svg xmlns="http://www.w3.org/2000/svg" width="32.878" height="31.939" viewBox="0 0 32.878 31.939">
  <g id="Group_3083" data-name="Group 3083" transform="translate(-735.906 -3038.721)">
    <g id="Group_3082" data-name="Group 3082">
      <g id="Rounded_Rectangle_3_copy_3" data-name="Rounded Rectangle 3 copy 3" transform="translate(735.906 3038.721)" fill="none" stroke="#879dbb" stroke-width="1">
        <rect width="32.878" height="31.939" stroke="none"/>
        <rect x="0.5" y="0.5" width="31.878" height="30.939" fill="none"/>
      </g>
      <path id="Path_1913" data-name="Path 1913" d="M15.931.172.642,6.161s-.728.258-.658.7c.047.446.658.658.658.658L4.494,8.815l9.23-5.871s.54-.329.517,0c0,0,.094.047-.188.329s-7.28,6.552-7.28,6.552v.094L6.748,9.9l-.47,4.2a.422.422,0,0,0,.4-.047L9.167,11.8h0l3.875,2.959a1.016,1.016,0,0,0,1.433-.493L17.2.525C17.2-.368,15.931.172,15.931.172Z" transform="translate(742.17 3048.024)" fill="#879dbb"/>
    </g>
  </g>
</svg>
