<svg xmlns="http://www.w3.org/2000/svg" viewBox="0 0 86 86" width="86" height="86">
	<defs>
		<clipPath clipPathUnits="userSpaceOnUse" id="cp1">
			<path d="M46.92 66.05C47.96 65.74 48.98 65.37 49.97 64.93C50.96 64.5 51.92 63.99 52.84 63.43C53.77 62.87 54.65 62.24 55.49 61.56C56.34 60.88 57.13 60.15 57.88 59.36L71.99 61.04C71.99 61.04 64.01 47.67 64.01 47.29C64.19 46.34 64.32 45.38 64.39 44.41C64.45 43.44 64.47 42.47 64.42 41.5C64.37 40.54 64.27 39.57 64.11 38.61C63.94 37.66 63.72 36.71 63.45 35.78C62.56 32.69 61.07 29.81 59.07 27.3C57.07 24.79 54.59 22.7 51.78 21.15C48.97 19.6 45.88 18.61 42.69 18.26C39.5 17.9 36.27 18.18 33.18 19.07C30.09 19.96 27.21 21.44 24.7 23.45C22.19 25.45 20.1 27.93 18.55 30.74C17 33.55 16.01 36.64 15.66 39.83C15.3 43.02 15.58 46.25 16.47 49.34C20.55 62.15 34.11 69.76 46.92 66.05Z" />
		</clipPath>
	</defs>
	<style>
		tspan { white-space:pre }
		.shp0 { fill: #1c3f94;stroke: #758abe } 
		.shp1 { fill: #ffffff } 
		.shp2 { fill: #ed174f } 
		.shp3 { fill: none;stroke: #1c3f94;stroke-width: 2 } 
		.shp4 { fill: #202020 } 
	</style>
	<g id="logos_4">
		<g id="Group_1880">
			<g id="Layer">
				<path id="Path_3191-2" class="shp0" d="M64.01 85.17L21.67 85.17C18.89 85.18 16.13 84.63 13.57 83.57C11 82.5 8.66 80.94 6.7 78.98C4.73 77.01 3.17 74.68 2.11 72.11C1.05 69.54 0.5 66.79 0.5 64.01L0.5 21.67C0.5 18.89 1.05 16.14 2.11 13.57C3.17 11 4.73 8.66 6.7 6.7C8.66 4.73 11 3.17 13.57 2.11C16.14 1.05 18.89 0.5 21.67 0.5L64.01 0.5C66.79 0.5 69.54 1.05 72.11 2.11C74.68 3.17 77.01 4.73 78.98 6.7C80.94 8.66 82.5 11 83.57 13.57C84.63 16.14 85.18 18.89 85.18 21.67L85.18 64.01C85.16 66.78 84.6 69.53 83.54 72.09C82.47 74.65 80.91 76.98 78.94 78.94C76.98 80.91 74.65 82.47 72.09 83.53C69.53 84.6 66.78 85.16 64.01 85.17L64.01 85.17Z" />
			</g>
		</g>
		<g id="Group_1882">
			<g id="Clip-Path: Group_1881" clip-path="url(#cp1)">
				<g id="Group_1881">
					<path id="Path_3192" class="shp1" d="M46.92 66.23C47.96 65.93 48.98 65.56 49.97 65.12C50.96 64.68 51.92 64.18 52.84 63.62C53.77 63.05 54.65 62.43 55.49 61.75C56.34 61.07 57.13 60.33 57.88 59.55L71.99 61.22C71.99 61.22 64.01 47.85 64.01 47.48C64.19 46.53 64.32 45.56 64.39 44.6C64.45 43.63 64.47 42.66 64.42 41.69C64.37 40.72 64.27 39.75 64.11 38.8C63.94 37.84 63.72 36.9 63.45 35.97C62.56 32.88 61.07 30 59.07 27.49C57.07 24.98 54.59 22.89 51.78 21.33C48.97 19.78 45.88 18.8 42.69 18.44C39.5 18.09 36.27 18.36 33.18 19.25C30.09 20.14 27.21 21.63 24.7 23.63C22.19 25.63 20.1 28.11 18.55 30.92C17 33.73 16.01 36.82 15.66 40.02C15.3 43.21 15.58 46.44 16.47 49.52C17.39 52.61 18.9 55.49 20.92 57.99C22.95 60.5 25.44 62.58 28.26 64.13C31.09 65.68 34.18 66.67 37.38 67.03C40.59 67.39 43.82 67.12 46.92 66.23Z" />
					<path id="Path_3193" class="shp2" d="M51.01 43.77C51.93 42.13 52.57 40.35 52.93 38.5C53.28 36.66 53.33 34.76 53.08 32.9C52.83 31.04 52.28 29.23 51.46 27.54C50.63 25.85 49.54 24.31 48.22 22.97C47.74 22.44 47.23 21.95 46.69 21.49C46.14 21.03 45.58 20.6 44.98 20.21C44.39 19.82 43.77 19.46 43.13 19.15C42.49 18.83 41.84 18.56 41.17 18.32L40.8 18.32C35.22 17.95 27.24 21.67 26.31 22.6L24.27 24.27C23.61 24.93 22.97 25.62 22.37 26.34C21.77 27.05 21.19 27.79 20.65 28.55C20.1 29.31 19.59 30.1 19.11 30.9C18.63 31.7 18.18 32.53 17.77 33.37C14.24 41.35 16.84 49.71 17.95 52.49C18.32 53.17 18.7 53.84 19.1 54.5C19.5 55.16 19.91 55.8 20.35 56.44C20.78 57.07 21.23 57.7 21.7 58.31C22.17 58.92 22.65 59.52 23.15 60.11C23.65 60.69 23.34 60.48 23.52 60.48C25.31 60.44 27.08 60.23 28.83 59.86C30.57 59.5 32.28 58.97 33.93 58.29C35.57 57.61 37.16 56.77 38.65 55.8C40.14 54.83 41.55 53.72 42.84 52.49L43.95 51.94C44.51 51.56 55.46 51.94 55.46 51.94L51.01 43.77Z" />
				</g>
			</g>
		</g>
		<path id="Path_3195" class="shp3" d="M46.92 66.23C47.96 65.93 48.98 65.56 49.97 65.12C50.96 64.68 51.92 64.18 52.84 63.62C53.77 63.05 54.65 62.43 55.49 61.75C56.34 61.07 57.13 60.33 57.88 59.55L71.99 61.22C71.99 61.22 64.01 47.85 64.01 47.48C64.19 46.53 64.32 45.56 64.39 44.6C64.45 43.63 64.47 42.66 64.42 41.69C64.37 40.72 64.27 39.75 64.11 38.8C63.94 37.84 63.72 36.9 63.45 35.97C62.56 32.88 61.07 30 59.07 27.49C57.07 24.98 54.59 22.89 51.78 21.33C48.97 19.78 45.88 18.8 42.69 18.44C39.5 18.09 36.27 18.36 33.18 19.25C30.09 20.14 27.21 21.63 24.7 23.63C22.19 25.63 20.1 28.11 18.55 30.92C17 33.73 16.01 36.82 15.66 40.02C15.3 43.21 15.58 46.44 16.47 49.52C17.39 52.61 18.9 55.49 20.92 57.99C22.95 60.5 25.44 62.58 28.26 64.13C31.09 65.68 34.18 66.67 37.38 67.03C40.59 67.39 43.82 67.12 46.92 66.23Z" />
		<g id="Group_1883">
			<path id="Path_3196" fill-rule="evenodd" class="shp1" d="M25.57 40.05C25.38 38.94 25.75 35.04 28.54 33C32.63 30.03 39.87 29.84 41.35 37.08C43.58 46.55 27.43 53.24 25.57 40.05Z" />
			<path id="Path_3197" fill-rule="evenodd" class="shp4" d="M27.8 39.31C27.61 38.2 27.8 34.67 30.21 33C33.55 30.4 39.68 30.4 41.17 37.08C43.02 45.62 29.65 51.38 27.8 39.31Z" />
			<path id="Path_3198" fill-rule="evenodd" class="shp1" d="M34.48 40.05C34.48 39.68 34.48 38.19 35.41 37.64C36.71 36.71 39.13 36.52 39.68 39.12C40.42 42.47 35.23 44.7 34.48 40.05Z" />
		</g>
	</g>
</svg>