<svg xmlns="http://www.w3.org/2000/svg" xmlns:xlink="http://www.w3.org/1999/xlink" width="121.675" height="121.675" viewBox="0 0 121.675 121.675">
  <defs>
    <filter id="Path_3191" x="0" y="0" width="121.675" height="121.675" filterUnits="userSpaceOnUse">
      <feOffset dy="8" input="SourceAlpha"/>
      <feGaussianBlur stdDeviation="6" result="blur"/>
      <feFlood flood-opacity="0.161"/>
      <feComposite operator="in" in2="blur"/>
      <feComposite in="SourceGraphic"/>
    </filter>
    <clipPath id="clip-path">
      <path id="Path_3194" data-name="Path 3194" d="M-434.506,535.521a24.691,24.691,0,0,0,10.956-6.685l14.113,1.671s-7.985-13.37-7.985-13.741a24.332,24.332,0,0,0-.557-11.513,24.428,24.428,0,0,0-30.268-16.712,24.428,24.428,0,0,0-16.712,30.268C-460.874,531.622-447.318,539.235-434.506,535.521Z" transform="translate(465.915 -487.585)"/>
    </clipPath>
  </defs>
  <g id="logos_4" data-name="logos 4" transform="translate(18.5 10.5)">
    <g id="Group_1880" data-name="Group 1880" transform="translate(0 0)">
      <g transform="matrix(1, 0, 0, 1, -18.5, -10.5)" filter="url(#Path_3191)">
        <path id="Path_3191-2" data-name="Path 3191" d="M-410.494,562.775h-42.338A21.159,21.159,0,0,1-474,541.606V499.269A21.159,21.159,0,0,1-452.831,478.1h42.338a21.159,21.159,0,0,1,21.169,21.169v42.337A21.279,21.279,0,0,1-410.494,562.775Z" transform="translate(492.5 -467.6)" fill="#1c3f94" stroke="#758abe" stroke-width="1"/>
      </g>
    </g>
    <g id="Group_1882" data-name="Group 1882" transform="translate(15.013 17.613)">
      <g id="Group_1881" data-name="Group 1881" clip-path="url(#clip-path)">
        <path id="Path_3192" data-name="Path 3192" d="M-434.506,535.621a24.693,24.693,0,0,0,10.956-6.685l14.113,1.671s-7.985-13.37-7.985-13.741a24.332,24.332,0,0,0-.557-11.513,24.428,24.428,0,0,0-30.268-16.712,24.428,24.428,0,0,0-16.712,30.268A24.706,24.706,0,0,0-434.506,535.621Z" transform="translate(465.915 -487.5)" fill="#fff"/>
        <path id="Path_3193" data-name="Path 3193" d="M-430.638,513.152a17.485,17.485,0,0,0-2.785-20.8,17.334,17.334,0,0,0-7.056-4.642h-.371c-5.571-.371-13.555,3.342-14.484,4.271l-2.043,1.671a34.588,34.588,0,0,0-6.5,9.1c-3.528,7.985-.928,16.341.186,19.126a42.725,42.725,0,0,0,5.2,7.613s.186.371.371.371a28.955,28.955,0,0,0,19.312-7.984l1.114-.557c.557-.371,11.513,0,11.513,0Z" transform="translate(466.132 -487.499)" fill="#ed174f"/>
      </g>
    </g>
    <path id="Path_3195" data-name="Path 3195" d="M-434.506,535.621a24.693,24.693,0,0,0,10.956-6.685l14.113,1.671s-7.985-13.37-7.985-13.741a24.332,24.332,0,0,0-.557-11.513,24.428,24.428,0,0,0-30.268-16.712,24.428,24.428,0,0,0-16.712,30.268A24.706,24.706,0,0,0-434.506,535.621Z" transform="translate(480.928 -469.887)" fill="none" stroke="#1c3f94" stroke-miterlimit="10" stroke-width="2"/>
    <g id="Group_1883" data-name="Group 1883" transform="translate(25.028 30.565)">
      <path id="Path_3196" data-name="Path 3196" d="M-460.481,503.548c-.186-1.114.186-5.014,2.971-7.056,4.085-2.971,11.327-3.157,12.813,4.085C-442.47,510.047-458.625,516.732-460.481,503.548Z" transform="translate(460.522 -494.56)" fill="#fff" fill-rule="evenodd"/>
      <path id="Path_3197" data-name="Path 3197" d="M-459.275,502.658c-.186-1.114,0-4.642,2.414-6.313,3.342-2.6,9.47-2.6,10.956,4.085C-444.049,508.972-457.419,514.728-459.275,502.658Z" transform="translate(461.544 -494.414)" fill="#202020" fill-rule="evenodd"/>
      <path id="Path_3198" data-name="Path 3198" d="M-455.7,500.8c0-.371,0-1.857.929-2.414,1.3-.928,3.714-1.114,4.271,1.486C-449.758,503.217-454.957,505.446-455.7,500.8Z" transform="translate(464.654 -491.816)" fill="#fff" fill-rule="evenodd"/>
    </g>
  </g>
</svg>
