<svg id="Group_2659" data-name="Group 2659" xmlns="http://www.w3.org/2000/svg" width="14.924" height="12.151" viewBox="0 0 14.924 12.151">
  <g id="Group_25" data-name="Group 25" transform="translate(0)">
    <path id="Path_124" data-name="Path 124" d="M14.924,1.429a6.855,6.855,0,0,1-1.765.487A3.076,3.076,0,0,0,14.5.218a6.266,6.266,0,0,1-1.933.756A3.056,3.056,0,0,0,7.277,3.059a3.373,3.373,0,0,0,.084.706A8.758,8.758,0,0,1,1.042.571,2.9,2.9,0,0,0,.622,2.1,3.078,3.078,0,0,0,1.983,4.655,3.041,3.041,0,0,1,.588,4.269V4.3A3.081,3.081,0,0,0,3.042,7.311a3.12,3.12,0,0,1-.807.1,3.143,3.143,0,0,1-.571-.05A3.081,3.081,0,0,0,4.521,9.5a6.117,6.117,0,0,1-3.8,1.311c-.252,0-.487-.017-.723-.034a8.62,8.62,0,0,0,4.689,1.378,8.651,8.651,0,0,0,8.705-8.705v-.42A6.008,6.008,0,0,0,14.924,1.429Z" transform="translate(0)" fill="#1c3f94"/>
  </g>
</svg>
