<svg id="Group_1844" data-name="Group 1844" xmlns="http://www.w3.org/2000/svg" width="32.878" height="31.939" viewBox="0 0 32.878 31.939">
  <g id="Rounded_Rectangle_3" data-name="Rounded Rectangle 3" transform="translate(0 0)" fill="none" stroke="#879dbb" stroke-width="1">
    <rect width="32.878" height="31.939" stroke="none"/>
    <rect x="0.5" y="0.5" width="31.878" height="30.939" fill="none"/>
  </g>
  <g id="Group_843" data-name="Group 843" transform="translate(6.785 8.533)">
    <g id="Group_25" data-name="Group 25" transform="translate(0)">
      <path id="Path_124" data-name="Path 124" d="M19.274,1.845a8.853,8.853,0,0,1-2.279.629A3.973,3.973,0,0,0,18.731.282a8.093,8.093,0,0,1-2.5.977A3.947,3.947,0,0,0,9.4,3.95a4.357,4.357,0,0,0,.109.912A11.311,11.311,0,0,1,1.346.738,3.741,3.741,0,0,0,.8,2.713a3.975,3.975,0,0,0,1.758,3.3,3.927,3.927,0,0,1-1.8-.5v.043A3.979,3.979,0,0,0,3.929,9.441a4.029,4.029,0,0,1-1.042.13,4.059,4.059,0,0,1-.738-.065,3.979,3.979,0,0,0,3.69,2.756A7.9,7.9,0,0,1,.933,13.956c-.326,0-.629-.022-.933-.043a11.132,11.132,0,0,0,6.056,1.78A11.172,11.172,0,0,0,17.3,4.449V3.907A7.759,7.759,0,0,0,19.274,1.845Z" transform="translate(0)" fill="#879dbb"/>
    </g>
  </g>
</svg>
