<svg id="Group_1847" data-name="Group 1847" xmlns="http://www.w3.org/2000/svg" width="32.878" height="31.939" viewBox="0 0 32.878 31.939">
  <g id="Group_847" data-name="Group 847" transform="translate(0 0)">
    <g id="Rounded_Rectangle_3_copy" data-name="Rounded Rectangle 3 copy" fill="none" stroke="#879dbb" stroke-width="1">
      <rect width="32.878" height="31.939" stroke="none"/>
      <rect x="0.5" y="0.5" width="31.878" height="30.939" fill="none"/>
    </g>
  </g>
  <path id="Path_1496" data-name="Path 1496" d="M143.466,13.476a2.352,2.352,0,0,0-1.535-1.686,48.4,48.4,0,0,0-6.8-.391,46.324,46.324,0,0,0-6.713.361,2.479,2.479,0,0,0-1.686,1.716,25.745,25.745,0,0,0-.331,4.545,25.745,25.745,0,0,0,.331,4.545,2.6,2.6,0,0,0,1.686,1.716,46.324,46.324,0,0,0,6.713.361,46.324,46.324,0,0,0,6.713-.361,2.44,2.44,0,0,0,1.656-1.716,26.811,26.811,0,0,0,.361-4.545A27.968,27.968,0,0,0,143.466,13.476Zm-10.024,7.5V15.1l4.365,2.95Z" transform="translate(-118.203 -1.854)" fill="#879dbb"/>
</svg>
